G75*
G70*
%OFA0B0*%
%FSLAX24Y24*%
%IPPOS*%
%LPD*%
%AMOC8*
5,1,8,0,0,1.08239X$1,22.5*
%
%ADD10C,0.0000*%
%ADD11R,0.0300X0.0300*%
%ADD12C,0.0520*%
%ADD13R,0.0984X0.0197*%
%ADD14R,0.0984X0.0787*%
%ADD15R,0.0709X0.0551*%
%ADD16R,0.0748X0.1339*%
%ADD17C,0.0660*%
%ADD18R,0.0512X0.0591*%
%ADD19R,0.0236X0.0197*%
%ADD20R,0.0236X0.0236*%
%ADD21R,0.0256X0.0197*%
%ADD22R,0.0220X0.0500*%
%ADD23R,0.0500X0.0220*%
%ADD24R,0.0480X0.0880*%
%ADD25R,0.1417X0.0866*%
%ADD26R,0.0591X0.0512*%
%ADD27C,0.0600*%
%ADD28C,0.0120*%
%ADD29C,0.0317*%
%ADD30C,0.0396*%
%ADD31C,0.0400*%
%ADD32C,0.0160*%
%ADD33C,0.0240*%
%ADD34C,0.0100*%
%ADD35C,0.0180*%
%ADD36C,0.0320*%
D10*
X001910Y000410D02*
X018098Y000410D01*
X018174Y000412D01*
X018250Y000418D01*
X018325Y000427D01*
X018400Y000441D01*
X018474Y000458D01*
X018547Y000479D01*
X018619Y000503D01*
X018690Y000532D01*
X018759Y000563D01*
X018826Y000598D01*
X018891Y000637D01*
X018955Y000679D01*
X019016Y000724D01*
X019075Y000772D01*
X019131Y000823D01*
X019185Y000877D01*
X019236Y000933D01*
X019284Y000992D01*
X019329Y001053D01*
X019371Y001117D01*
X019410Y001182D01*
X019445Y001249D01*
X019476Y001318D01*
X019505Y001389D01*
X019529Y001461D01*
X019550Y001534D01*
X019567Y001608D01*
X019581Y001683D01*
X019590Y001758D01*
X019596Y001834D01*
X019598Y001910D01*
X019598Y007160D01*
X019596Y007236D01*
X019590Y007312D01*
X019581Y007387D01*
X019567Y007462D01*
X019550Y007536D01*
X019529Y007609D01*
X019505Y007681D01*
X019476Y007752D01*
X019445Y007821D01*
X019410Y007888D01*
X019371Y007953D01*
X019329Y008017D01*
X019284Y008078D01*
X019236Y008137D01*
X019185Y008193D01*
X019131Y008247D01*
X019075Y008298D01*
X019016Y008346D01*
X018955Y008391D01*
X018891Y008433D01*
X018826Y008472D01*
X018759Y008507D01*
X018690Y008538D01*
X018619Y008567D01*
X018547Y008591D01*
X018474Y008612D01*
X018400Y008629D01*
X018325Y008643D01*
X018250Y008652D01*
X018174Y008658D01*
X018098Y008660D01*
X001910Y008660D01*
X001834Y008658D01*
X001758Y008652D01*
X001683Y008643D01*
X001608Y008629D01*
X001534Y008612D01*
X001461Y008591D01*
X001389Y008567D01*
X001318Y008538D01*
X001249Y008507D01*
X001182Y008472D01*
X001117Y008433D01*
X001053Y008391D01*
X000992Y008346D01*
X000933Y008298D01*
X000877Y008247D01*
X000823Y008193D01*
X000772Y008137D01*
X000724Y008078D01*
X000679Y008017D01*
X000637Y007953D01*
X000598Y007888D01*
X000563Y007821D01*
X000532Y007752D01*
X000503Y007681D01*
X000479Y007609D01*
X000458Y007536D01*
X000441Y007462D01*
X000427Y007387D01*
X000418Y007312D01*
X000412Y007236D01*
X000410Y007160D01*
X000410Y001910D01*
X000412Y001834D01*
X000418Y001758D01*
X000427Y001683D01*
X000441Y001608D01*
X000458Y001534D01*
X000479Y001461D01*
X000503Y001389D01*
X000532Y001318D01*
X000563Y001249D01*
X000598Y001182D01*
X000637Y001117D01*
X000679Y001053D01*
X000724Y000992D01*
X000772Y000933D01*
X000823Y000877D01*
X000877Y000823D01*
X000933Y000772D01*
X000992Y000724D01*
X001053Y000679D01*
X001117Y000637D01*
X001182Y000598D01*
X001249Y000563D01*
X001318Y000532D01*
X001389Y000503D01*
X001461Y000479D01*
X001534Y000458D01*
X001608Y000441D01*
X001683Y000427D01*
X001758Y000418D01*
X001834Y000412D01*
X001910Y000410D01*
X002583Y003669D02*
X002585Y003695D01*
X002591Y003721D01*
X002601Y003746D01*
X002614Y003769D01*
X002630Y003789D01*
X002650Y003807D01*
X002672Y003822D01*
X002695Y003834D01*
X002721Y003842D01*
X002747Y003846D01*
X002773Y003846D01*
X002799Y003842D01*
X002825Y003834D01*
X002849Y003822D01*
X002870Y003807D01*
X002890Y003789D01*
X002906Y003769D01*
X002919Y003746D01*
X002929Y003721D01*
X002935Y003695D01*
X002937Y003669D01*
X002935Y003643D01*
X002929Y003617D01*
X002919Y003592D01*
X002906Y003569D01*
X002890Y003549D01*
X002870Y003531D01*
X002848Y003516D01*
X002825Y003504D01*
X002799Y003496D01*
X002773Y003492D01*
X002747Y003492D01*
X002721Y003496D01*
X002695Y003504D01*
X002671Y003516D01*
X002650Y003531D01*
X002630Y003549D01*
X002614Y003569D01*
X002601Y003592D01*
X002591Y003617D01*
X002585Y003643D01*
X002583Y003669D01*
X002583Y005401D02*
X002585Y005427D01*
X002591Y005453D01*
X002601Y005478D01*
X002614Y005501D01*
X002630Y005521D01*
X002650Y005539D01*
X002672Y005554D01*
X002695Y005566D01*
X002721Y005574D01*
X002747Y005578D01*
X002773Y005578D01*
X002799Y005574D01*
X002825Y005566D01*
X002849Y005554D01*
X002870Y005539D01*
X002890Y005521D01*
X002906Y005501D01*
X002919Y005478D01*
X002929Y005453D01*
X002935Y005427D01*
X002937Y005401D01*
X002935Y005375D01*
X002929Y005349D01*
X002919Y005324D01*
X002906Y005301D01*
X002890Y005281D01*
X002870Y005263D01*
X002848Y005248D01*
X002825Y005236D01*
X002799Y005228D01*
X002773Y005224D01*
X002747Y005224D01*
X002721Y005228D01*
X002695Y005236D01*
X002671Y005248D01*
X002650Y005263D01*
X002630Y005281D01*
X002614Y005301D01*
X002601Y005324D01*
X002591Y005349D01*
X002585Y005375D01*
X002583Y005401D01*
D11*
X006660Y002835D03*
X006660Y002235D03*
X008710Y001410D03*
X009310Y001410D03*
X010635Y001410D03*
X011235Y001410D03*
X010410Y002435D03*
X010410Y003035D03*
X010410Y004535D03*
X010410Y005135D03*
X009660Y005935D03*
X009660Y006535D03*
X015110Y006635D03*
X015710Y006635D03*
X015710Y006085D03*
X015110Y006085D03*
X015110Y005535D03*
X015710Y005535D03*
D12*
X013410Y006535D03*
X011410Y006535D03*
D13*
X003744Y005165D03*
X003744Y004850D03*
X003744Y004535D03*
X003744Y004220D03*
X003744Y003905D03*
D14*
X003744Y002763D03*
X001579Y002763D03*
X001579Y006307D03*
X003744Y006307D03*
D15*
X004910Y002954D03*
X005910Y002954D03*
X005910Y001616D03*
X004910Y001616D03*
D16*
X005292Y005535D03*
X006828Y005535D03*
D17*
X017410Y005535D03*
X018410Y005535D03*
X018410Y004535D03*
X017410Y004535D03*
X017410Y003535D03*
X018410Y003535D03*
D18*
X008734Y006210D03*
X007986Y006210D03*
X003909Y007410D03*
X003161Y007410D03*
D19*
X002811Y001705D03*
X002259Y001705D03*
X002259Y001115D03*
X002811Y001115D03*
D20*
X002811Y001410D03*
X002259Y001410D03*
D21*
X003644Y001278D03*
X004176Y001278D03*
X004176Y001592D03*
X003644Y001592D03*
X003644Y001907D03*
X004176Y001907D03*
X004176Y000963D03*
X003644Y000963D03*
D22*
X012308Y001595D03*
X012623Y001595D03*
X012938Y001595D03*
X013253Y001595D03*
X013567Y001595D03*
X013882Y001595D03*
X014197Y001595D03*
X014512Y001595D03*
X014512Y004975D03*
X014197Y004975D03*
X013882Y004975D03*
X013567Y004975D03*
X013253Y004975D03*
X012938Y004975D03*
X012623Y004975D03*
X012308Y004975D03*
D23*
X011720Y004387D03*
X011720Y004072D03*
X011720Y003757D03*
X011720Y003442D03*
X011720Y003128D03*
X011720Y002813D03*
X011720Y002498D03*
X011720Y002183D03*
X015100Y002183D03*
X015100Y002498D03*
X015100Y002813D03*
X015100Y003128D03*
X015100Y003442D03*
X015100Y003757D03*
X015100Y004072D03*
X015100Y004387D03*
D24*
X009320Y002440D03*
X008410Y002440D03*
X007500Y002440D03*
D25*
X008410Y004880D03*
D26*
X009660Y007161D03*
X009660Y007909D03*
D27*
X007410Y008035D03*
X006410Y008035D03*
X005410Y008035D03*
X015410Y008035D03*
X016410Y008035D03*
X016035Y001035D03*
X017035Y001035D03*
D28*
X001428Y000746D02*
X001143Y000910D01*
X000910Y001143D01*
X000746Y001428D01*
X000661Y001746D01*
X000650Y001910D01*
X000650Y007160D01*
X000661Y007324D01*
X000746Y007642D01*
X000910Y007927D01*
X001143Y008160D01*
X001428Y008324D01*
X001746Y008409D01*
X001910Y008420D01*
X005144Y008420D01*
X005020Y008296D01*
X004950Y008126D01*
X004950Y007971D01*
X004669Y007690D01*
X004325Y007690D01*
X004325Y007772D01*
X004231Y007865D01*
X003587Y007865D01*
X003535Y007813D01*
X003515Y007833D01*
X003479Y007854D01*
X003438Y007865D01*
X003221Y007865D01*
X003221Y007470D01*
X003101Y007470D01*
X003101Y007865D01*
X002884Y007865D01*
X002843Y007854D01*
X002807Y007833D01*
X002777Y007804D01*
X002756Y007767D01*
X002745Y007726D01*
X002745Y007470D01*
X003101Y007470D01*
X003101Y007350D01*
X003221Y007350D01*
X003221Y006955D01*
X003438Y006955D01*
X003479Y006966D01*
X003515Y006987D01*
X003535Y007007D01*
X003587Y006955D01*
X004231Y006955D01*
X004325Y007048D01*
X004325Y007130D01*
X004841Y007130D01*
X004944Y007173D01*
X005346Y007575D01*
X005501Y007575D01*
X005671Y007645D01*
X005800Y007774D01*
X005870Y007943D01*
X005870Y008126D01*
X005800Y008296D01*
X005676Y008420D01*
X006144Y008420D01*
X006020Y008296D01*
X005950Y008126D01*
X005950Y007943D01*
X006020Y007774D01*
X006130Y007664D01*
X006130Y006901D01*
X005773Y006544D01*
X005730Y006441D01*
X005730Y006364D01*
X004852Y006364D01*
X004758Y006271D01*
X004758Y005635D01*
X004560Y005635D01*
X004468Y005597D01*
X004398Y005527D01*
X004295Y005423D01*
X003186Y005423D01*
X003177Y005415D01*
X003177Y005484D01*
X003114Y005637D01*
X002996Y005755D01*
X002843Y005818D01*
X002677Y005818D01*
X002524Y005755D01*
X002406Y005637D01*
X002343Y005484D01*
X002343Y005318D01*
X002406Y005165D01*
X002524Y005047D01*
X002677Y004984D01*
X002843Y004984D01*
X002996Y005047D01*
X003092Y005143D01*
X003092Y004055D01*
X003099Y004049D01*
X003092Y004025D01*
X003092Y003927D01*
X002996Y004023D01*
X002843Y004086D01*
X002677Y004086D01*
X002524Y004023D01*
X002406Y003905D01*
X002343Y003752D01*
X002343Y003586D01*
X002406Y003433D01*
X002524Y003315D01*
X002677Y003252D01*
X002843Y003252D01*
X002996Y003315D01*
X003114Y003433D01*
X003177Y003586D01*
X003177Y003665D01*
X003190Y003658D01*
X003231Y003647D01*
X003744Y003647D01*
X003744Y003905D01*
X003744Y003905D01*
X003744Y003647D01*
X004257Y003647D01*
X004298Y003658D01*
X004335Y003679D01*
X004364Y003708D01*
X004385Y003745D01*
X004396Y003786D01*
X004396Y003905D01*
X003744Y003905D01*
X003744Y003905D01*
X004396Y003905D01*
X004396Y004025D01*
X004390Y004049D01*
X004396Y004055D01*
X004396Y004109D01*
X004670Y003836D01*
X004670Y003390D01*
X004489Y003390D01*
X004396Y003296D01*
X004396Y003181D01*
X004385Y003219D01*
X004364Y003255D01*
X004335Y003285D01*
X004298Y003306D01*
X004257Y003317D01*
X003804Y003317D01*
X003804Y002823D01*
X004396Y002823D01*
X004396Y002703D01*
X003804Y002703D01*
X003804Y002210D01*
X004257Y002210D01*
X004298Y002221D01*
X004335Y002242D01*
X004364Y002271D01*
X004385Y002308D01*
X004396Y002349D01*
X004396Y002612D01*
X004489Y002519D01*
X005331Y002519D01*
X005410Y002598D01*
X005489Y002519D01*
X006331Y002519D01*
X006390Y002578D01*
X006434Y002535D01*
X006350Y002451D01*
X006350Y002027D01*
X006326Y002040D01*
X006285Y002051D01*
X005970Y002051D01*
X005970Y001676D01*
X005850Y001676D01*
X005850Y002051D01*
X005535Y002051D01*
X005494Y002040D01*
X005457Y002019D01*
X005428Y001990D01*
X005410Y001959D01*
X005392Y001990D01*
X005363Y002019D01*
X005326Y002040D01*
X005285Y002051D01*
X004970Y002051D01*
X004970Y001676D01*
X004850Y001676D01*
X004850Y002051D01*
X004535Y002051D01*
X004494Y002040D01*
X004464Y002023D01*
X004464Y002072D01*
X004370Y002166D01*
X003982Y002166D01*
X003910Y002094D01*
X003838Y002166D01*
X003490Y002166D01*
X003480Y002191D01*
X003461Y002210D01*
X003684Y002210D01*
X003684Y002703D01*
X003804Y002703D01*
X003804Y002823D01*
X003684Y002823D01*
X003684Y002703D01*
X003092Y002703D01*
X003092Y002349D01*
X003102Y002310D01*
X003029Y002280D01*
X002940Y002191D01*
X002891Y002073D01*
X002891Y001964D01*
X002626Y001964D01*
X002535Y001872D01*
X002484Y001923D01*
X002652Y002091D01*
X002723Y002091D01*
X002841Y002140D01*
X002930Y002229D01*
X002979Y002347D01*
X002979Y002473D01*
X002930Y002591D01*
X002841Y002680D01*
X002723Y002729D01*
X002597Y002729D01*
X002479Y002680D01*
X002390Y002591D01*
X002341Y002473D01*
X002341Y002402D01*
X002039Y002101D01*
X002039Y001928D01*
X001981Y001870D01*
X001981Y000950D01*
X002075Y000856D01*
X002220Y000856D01*
X002216Y000848D01*
X002216Y000722D01*
X002246Y000650D01*
X001910Y000650D01*
X001746Y000661D01*
X001428Y000746D01*
X001394Y000766D02*
X002216Y000766D01*
X002047Y000884D02*
X001189Y000884D01*
X001051Y001003D02*
X001981Y001003D01*
X001981Y001121D02*
X000932Y001121D01*
X000855Y001240D02*
X001981Y001240D01*
X001981Y001358D02*
X000786Y001358D01*
X000733Y001477D02*
X001981Y001477D01*
X001981Y001595D02*
X000701Y001595D01*
X000669Y001714D02*
X001981Y001714D01*
X001981Y001832D02*
X000655Y001832D01*
X000650Y001951D02*
X002039Y001951D01*
X002259Y002009D02*
X002660Y002410D01*
X002979Y002425D02*
X003092Y002425D01*
X003092Y002543D02*
X002950Y002543D01*
X002859Y002662D02*
X003092Y002662D01*
X003092Y002823D02*
X003684Y002823D01*
X003684Y003317D01*
X003231Y003317D01*
X003190Y003306D01*
X003154Y003285D01*
X003124Y003255D01*
X003103Y003219D01*
X003092Y003178D01*
X003092Y002823D01*
X003092Y002899D02*
X002231Y002899D01*
X002231Y002823D02*
X002231Y003178D01*
X002220Y003219D01*
X002199Y003255D01*
X002169Y003285D01*
X002133Y003306D01*
X002092Y003317D01*
X001639Y003317D01*
X001639Y002823D01*
X002231Y002823D01*
X002231Y002703D02*
X001639Y002703D01*
X001639Y002210D01*
X002092Y002210D01*
X002133Y002221D01*
X002169Y002242D01*
X002199Y002271D01*
X002220Y002308D01*
X002231Y002349D01*
X002231Y002703D01*
X002231Y002662D02*
X002461Y002662D01*
X002370Y002543D02*
X002231Y002543D01*
X002231Y002425D02*
X002341Y002425D01*
X002245Y002306D02*
X002219Y002306D01*
X002126Y002188D02*
X000650Y002188D01*
X000650Y002306D02*
X000939Y002306D01*
X000938Y002308D02*
X000959Y002271D01*
X000989Y002242D01*
X001025Y002221D01*
X001066Y002210D01*
X001519Y002210D01*
X001519Y002703D01*
X001639Y002703D01*
X001639Y002823D01*
X001519Y002823D01*
X001519Y002703D01*
X000927Y002703D01*
X000927Y002349D01*
X000938Y002308D01*
X000927Y002425D02*
X000650Y002425D01*
X000650Y002543D02*
X000927Y002543D01*
X000927Y002662D02*
X000650Y002662D01*
X000650Y002780D02*
X001519Y002780D01*
X001519Y002823D02*
X000927Y002823D01*
X000927Y003178D01*
X000938Y003219D01*
X000959Y003255D01*
X000989Y003285D01*
X001025Y003306D01*
X001066Y003317D01*
X001519Y003317D01*
X001519Y002823D01*
X001519Y002899D02*
X001639Y002899D01*
X001639Y003017D02*
X001519Y003017D01*
X001519Y003136D02*
X001639Y003136D01*
X001639Y003254D02*
X001519Y003254D01*
X000958Y003254D02*
X000650Y003254D01*
X000650Y003136D02*
X000927Y003136D01*
X000927Y003017D02*
X000650Y003017D01*
X000650Y002899D02*
X000927Y002899D01*
X001519Y002662D02*
X001639Y002662D01*
X001639Y002543D02*
X001519Y002543D01*
X001519Y002425D02*
X001639Y002425D01*
X001639Y002306D02*
X001519Y002306D01*
X002039Y002069D02*
X000650Y002069D01*
X001639Y002780D02*
X003684Y002780D01*
X003684Y002899D02*
X003804Y002899D01*
X003804Y003017D02*
X003684Y003017D01*
X003684Y003136D02*
X003804Y003136D01*
X003804Y003254D02*
X003684Y003254D01*
X003123Y003254D02*
X002849Y003254D01*
X002671Y003254D02*
X002200Y003254D01*
X002231Y003136D02*
X003092Y003136D01*
X003092Y003017D02*
X002231Y003017D01*
X002466Y003373D02*
X000650Y003373D01*
X000650Y003491D02*
X002382Y003491D01*
X002343Y003610D02*
X000650Y003610D01*
X000650Y003728D02*
X002343Y003728D01*
X002382Y003847D02*
X000650Y003847D01*
X000650Y003965D02*
X002466Y003965D01*
X002671Y004084D02*
X000650Y004084D01*
X000650Y004202D02*
X003092Y004202D01*
X003092Y004084D02*
X002849Y004084D01*
X003054Y003965D02*
X003092Y003965D01*
X003744Y003847D02*
X003744Y003847D01*
X003744Y003728D02*
X003744Y003728D01*
X003177Y003610D02*
X004670Y003610D01*
X004670Y003728D02*
X004376Y003728D01*
X004396Y003847D02*
X004659Y003847D01*
X004541Y003965D02*
X004396Y003965D01*
X004396Y004084D02*
X004422Y004084D01*
X004929Y004706D02*
X005359Y004275D01*
X005649Y004275D01*
X005679Y004305D01*
X005797Y004354D01*
X005923Y004354D01*
X006041Y004305D01*
X006130Y004216D01*
X006179Y004098D01*
X006179Y003972D01*
X006130Y003854D01*
X006100Y003824D01*
X006100Y003390D01*
X006331Y003390D01*
X006424Y003296D01*
X006424Y003126D01*
X006444Y003145D01*
X006876Y003145D01*
X006970Y003051D01*
X006970Y002619D01*
X006886Y002535D01*
X006970Y002451D01*
X006970Y002019D01*
X006940Y001989D01*
X006940Y001942D01*
X006979Y001848D01*
X006979Y001722D01*
X006930Y001604D01*
X006841Y001515D01*
X006723Y001466D01*
X006597Y001466D01*
X006479Y001515D01*
X006390Y001604D01*
X006360Y001676D01*
X005970Y001676D01*
X005970Y001556D01*
X006424Y001556D01*
X006424Y001319D01*
X006413Y001278D01*
X006392Y001242D01*
X006363Y001212D01*
X006326Y001191D01*
X006285Y001180D01*
X005970Y001180D01*
X005970Y001556D01*
X005850Y001556D01*
X004970Y001556D01*
X004970Y001676D01*
X005424Y001676D01*
X005850Y001676D01*
X005850Y001556D01*
X005850Y001180D01*
X005535Y001180D01*
X005494Y001191D01*
X005457Y001212D01*
X005428Y001242D01*
X005410Y001272D01*
X005392Y001242D01*
X005363Y001212D01*
X005326Y001191D01*
X005285Y001180D01*
X004970Y001180D01*
X004970Y001556D01*
X004850Y001556D01*
X004464Y001556D01*
X004464Y001592D01*
X004176Y001592D01*
X004176Y001592D01*
X004464Y001592D01*
X004464Y001676D01*
X004850Y001676D01*
X004850Y001556D01*
X004850Y001180D01*
X004726Y001180D01*
X004751Y001155D01*
X008439Y001155D01*
X008432Y001162D01*
X008411Y001198D01*
X008400Y001239D01*
X008400Y001395D01*
X008695Y001395D01*
X008695Y001425D01*
X008695Y001720D01*
X008539Y001720D01*
X008498Y001709D01*
X008462Y001688D01*
X008432Y001658D01*
X008411Y001622D01*
X008400Y001581D01*
X008400Y001425D01*
X008695Y001425D01*
X008725Y001425D01*
X008725Y001720D01*
X008881Y001720D01*
X008922Y001709D01*
X008958Y001688D01*
X008988Y001658D01*
X009004Y001630D01*
X009040Y001666D01*
X009040Y001840D01*
X009014Y001840D01*
X008920Y001934D01*
X008920Y002946D01*
X008960Y002986D01*
X008960Y003517D01*
X009015Y003649D01*
X009116Y003750D01*
X009116Y003750D01*
X009300Y003934D01*
X009300Y004857D01*
X009355Y004989D01*
X009456Y005090D01*
X009588Y005145D01*
X009732Y005145D01*
X009864Y005090D01*
X009965Y004989D01*
X010020Y004857D01*
X010020Y003713D01*
X009965Y003581D01*
X009864Y003480D01*
X009680Y003296D01*
X009680Y002986D01*
X009720Y002946D01*
X009720Y001934D01*
X009626Y001840D01*
X009600Y001840D01*
X009600Y001646D01*
X009620Y001626D01*
X009620Y001194D01*
X009581Y001155D01*
X010364Y001155D01*
X010357Y001162D01*
X010336Y001198D01*
X010325Y001239D01*
X010325Y001395D01*
X010620Y001395D01*
X010620Y001425D01*
X010620Y001720D01*
X010464Y001720D01*
X010423Y001709D01*
X010387Y001688D01*
X010357Y001658D01*
X010336Y001622D01*
X010325Y001581D01*
X010325Y001425D01*
X010620Y001425D01*
X010650Y001425D01*
X010650Y001720D01*
X010806Y001720D01*
X010847Y001709D01*
X010883Y001688D01*
X010913Y001658D01*
X010929Y001630D01*
X011019Y001720D01*
X011451Y001720D01*
X011515Y001656D01*
X011540Y001716D01*
X011629Y001805D01*
X011747Y001854D01*
X011873Y001854D01*
X011991Y001805D01*
X012021Y001775D01*
X012038Y001775D01*
X012038Y001911D01*
X012069Y001943D01*
X012066Y001943D01*
X012036Y001913D01*
X011404Y001913D01*
X011310Y002006D01*
X011310Y002888D01*
X011150Y002888D01*
X011150Y002487D01*
X011113Y002399D01*
X011013Y002299D01*
X010946Y002232D01*
X010858Y002195D01*
X010696Y002195D01*
X010626Y002125D01*
X010194Y002125D01*
X010100Y002219D01*
X010100Y002651D01*
X010184Y002735D01*
X010100Y002819D01*
X010100Y003251D01*
X010170Y003321D01*
X010170Y003324D01*
X010140Y003354D01*
X010091Y003472D01*
X010091Y003598D01*
X010140Y003716D01*
X010209Y003785D01*
X010140Y003854D01*
X010091Y003972D01*
X010091Y004098D01*
X010140Y004216D01*
X010170Y004246D01*
X010170Y004249D01*
X010100Y004319D01*
X010100Y004751D01*
X010184Y004835D01*
X010100Y004919D01*
X010100Y005351D01*
X010194Y005445D01*
X010626Y005445D01*
X010696Y005375D01*
X010858Y005375D01*
X010946Y005338D01*
X011113Y005171D01*
X011150Y005083D01*
X011150Y003684D01*
X011152Y003682D01*
X011310Y003682D01*
X011310Y004564D01*
X011404Y004657D01*
X012036Y004657D01*
X012130Y004564D01*
X012130Y003544D01*
X012632Y004046D01*
X012699Y004113D01*
X012725Y004124D01*
X012667Y004182D01*
X012619Y004299D01*
X012619Y004426D01*
X012667Y004543D01*
X012689Y004565D01*
X012131Y004565D01*
X012038Y004659D01*
X012038Y005291D01*
X012068Y005321D01*
X012068Y005538D01*
X011491Y006115D01*
X011326Y006115D01*
X011172Y006179D01*
X011096Y006255D01*
X009906Y006255D01*
X009880Y006229D01*
X009908Y006213D01*
X009938Y006183D01*
X009959Y006147D01*
X009970Y006106D01*
X009970Y005950D01*
X009675Y005950D01*
X009675Y005920D01*
X009970Y005920D01*
X009970Y005764D01*
X009959Y005723D01*
X009938Y005687D01*
X009908Y005657D01*
X009872Y005636D01*
X009831Y005625D01*
X009675Y005625D01*
X009675Y005920D01*
X009645Y005920D01*
X009645Y005625D01*
X009489Y005625D01*
X009448Y005636D01*
X009412Y005657D01*
X009382Y005687D01*
X009361Y005723D01*
X009350Y005764D01*
X009350Y005920D01*
X009645Y005920D01*
X009645Y005950D01*
X009350Y005950D01*
X009350Y006106D01*
X009361Y006147D01*
X009382Y006183D01*
X009412Y006213D01*
X009440Y006229D01*
X009350Y006319D01*
X009350Y006745D01*
X009298Y006745D01*
X009205Y006839D01*
X009205Y007483D01*
X009257Y007535D01*
X009237Y007555D01*
X009216Y007591D01*
X009205Y007632D01*
X009205Y007849D01*
X009600Y007849D01*
X009600Y007969D01*
X009205Y007969D01*
X009205Y008186D01*
X009216Y008227D01*
X009237Y008263D01*
X009266Y008293D01*
X009303Y008314D01*
X009344Y008325D01*
X009600Y008325D01*
X009600Y007969D01*
X009720Y007969D01*
X010115Y007969D01*
X010115Y008186D01*
X010104Y008227D01*
X010083Y008263D01*
X010054Y008293D01*
X010017Y008314D01*
X009976Y008325D01*
X009720Y008325D01*
X009720Y007969D01*
X009720Y007849D01*
X010115Y007849D01*
X010115Y007632D01*
X010104Y007591D01*
X010083Y007555D01*
X010063Y007535D01*
X010115Y007483D01*
X010115Y007401D01*
X011737Y007401D01*
X011737Y007401D01*
X011784Y007401D01*
X011833Y007401D01*
X011833Y007401D01*
X011877Y007383D01*
X011921Y007364D01*
X011921Y007364D01*
X011955Y007331D01*
X011988Y007297D01*
X011988Y007297D01*
X012392Y006893D01*
X012481Y006893D01*
X012613Y006839D01*
X012714Y006738D01*
X012768Y006606D01*
X012768Y006464D01*
X012714Y006332D01*
X012613Y006231D01*
X012481Y006177D01*
X012339Y006177D01*
X012207Y006231D01*
X012106Y006332D01*
X012052Y006464D01*
X012052Y006554D01*
X011685Y006921D01*
X011576Y006921D01*
X011648Y006891D01*
X011766Y006773D01*
X011830Y006619D01*
X011830Y006454D01*
X012414Y005871D01*
X012419Y005884D01*
X012487Y005951D01*
X012487Y005951D01*
X012990Y006454D01*
X012990Y006619D01*
X013054Y006773D01*
X013172Y006891D01*
X013326Y006955D01*
X013494Y006955D01*
X013648Y006891D01*
X013724Y006815D01*
X014044Y006815D01*
X014101Y006872D01*
X014204Y006915D01*
X014864Y006915D01*
X014894Y006945D01*
X015326Y006945D01*
X015416Y006855D01*
X015432Y006883D01*
X015462Y006913D01*
X015498Y006934D01*
X015539Y006945D01*
X015695Y006945D01*
X015695Y006650D01*
X015725Y006650D01*
X015725Y006945D01*
X015881Y006945D01*
X015922Y006934D01*
X015958Y006913D01*
X015988Y006883D01*
X016009Y006847D01*
X016020Y006806D01*
X016020Y006650D01*
X015725Y006650D01*
X015725Y006620D01*
X016020Y006620D01*
X016020Y006464D01*
X016009Y006423D01*
X015988Y006387D01*
X015961Y006360D01*
X015996Y006325D01*
X016111Y006325D01*
X016170Y006384D01*
X016170Y006936D01*
X015522Y007584D01*
X015501Y007575D01*
X015318Y007575D01*
X015149Y007645D01*
X015020Y007774D01*
X014950Y007943D01*
X014950Y008126D01*
X015020Y008296D01*
X015144Y008420D01*
X007676Y008420D01*
X007800Y008296D01*
X007870Y008126D01*
X007870Y007971D01*
X008223Y007618D01*
X008266Y007515D01*
X008266Y006665D01*
X008308Y006665D01*
X008360Y006613D01*
X008380Y006633D01*
X008416Y006654D01*
X008457Y006665D01*
X008674Y006665D01*
X008674Y006270D01*
X008794Y006270D01*
X008794Y006665D01*
X009011Y006665D01*
X009052Y006654D01*
X009088Y006633D01*
X009118Y006604D01*
X009139Y006567D01*
X009150Y006526D01*
X009150Y006270D01*
X008794Y006270D01*
X008794Y006150D01*
X008794Y005755D01*
X009011Y005755D01*
X009052Y005766D01*
X009088Y005787D01*
X009118Y005816D01*
X009139Y005853D01*
X009150Y005894D01*
X009150Y006150D01*
X008794Y006150D01*
X008674Y006150D01*
X008674Y005755D01*
X008457Y005755D01*
X008416Y005766D01*
X008380Y005787D01*
X008360Y005807D01*
X008346Y005793D01*
X008346Y005473D01*
X009185Y005473D01*
X009279Y005379D01*
X009279Y004381D01*
X009185Y004287D01*
X008770Y004287D01*
X008770Y002986D01*
X008810Y002946D01*
X008810Y001934D01*
X008716Y001840D01*
X008104Y001840D01*
X008010Y001934D01*
X008010Y002946D01*
X008050Y002986D01*
X008050Y004287D01*
X007635Y004287D01*
X007541Y004381D01*
X007541Y005379D01*
X007626Y005464D01*
X007626Y005793D01*
X007570Y005848D01*
X007570Y006572D01*
X007664Y006665D01*
X007706Y006665D01*
X007706Y007343D01*
X007474Y007575D01*
X007318Y007575D01*
X007149Y007645D01*
X007020Y007774D01*
X006950Y007943D01*
X006950Y008126D01*
X007020Y008296D01*
X007144Y008420D01*
X006676Y008420D01*
X006800Y008296D01*
X006870Y008126D01*
X006870Y007943D01*
X006800Y007774D01*
X006690Y007664D01*
X006690Y006824D01*
X006706Y006840D01*
X006838Y006895D01*
X006982Y006895D01*
X007114Y006840D01*
X007215Y006739D01*
X007270Y006607D01*
X007270Y006362D01*
X007362Y006271D01*
X007362Y004799D01*
X007268Y004706D01*
X006387Y004706D01*
X006294Y004799D01*
X006294Y004987D01*
X006280Y004954D01*
X006191Y004865D01*
X006073Y004816D01*
X005947Y004816D01*
X005829Y004865D01*
X005826Y004868D01*
X005826Y004799D01*
X005733Y004706D01*
X004929Y004706D01*
X004958Y004676D02*
X007541Y004676D01*
X007541Y004795D02*
X007357Y004795D01*
X007362Y004913D02*
X007541Y004913D01*
X007541Y005032D02*
X007362Y005032D01*
X007362Y005150D02*
X007541Y005150D01*
X007541Y005269D02*
X007362Y005269D01*
X007362Y005387D02*
X007549Y005387D01*
X007626Y005506D02*
X007362Y005506D01*
X007362Y005624D02*
X007626Y005624D01*
X007626Y005743D02*
X007362Y005743D01*
X007362Y005861D02*
X007570Y005861D01*
X007570Y005980D02*
X007362Y005980D01*
X007362Y006098D02*
X007570Y006098D01*
X007570Y006217D02*
X007362Y006217D01*
X007297Y006335D02*
X007570Y006335D01*
X007570Y006454D02*
X007270Y006454D01*
X007270Y006572D02*
X007571Y006572D01*
X007706Y006691D02*
X007235Y006691D01*
X007145Y006809D02*
X007706Y006809D01*
X007706Y006928D02*
X006690Y006928D01*
X006690Y007046D02*
X007706Y007046D01*
X007706Y007165D02*
X006690Y007165D01*
X006690Y007283D02*
X007706Y007283D01*
X007648Y007402D02*
X006690Y007402D01*
X006690Y007520D02*
X007529Y007520D01*
X007165Y007639D02*
X006690Y007639D01*
X006783Y007757D02*
X007037Y007757D01*
X006978Y007876D02*
X006842Y007876D01*
X006870Y007994D02*
X006950Y007994D01*
X006950Y008113D02*
X006870Y008113D01*
X006827Y008231D02*
X006993Y008231D01*
X007074Y008350D02*
X006746Y008350D01*
X006074Y008350D02*
X005746Y008350D01*
X005827Y008231D02*
X005993Y008231D01*
X005950Y008113D02*
X005870Y008113D01*
X005870Y007994D02*
X005950Y007994D01*
X005978Y007876D02*
X005842Y007876D01*
X005783Y007757D02*
X006037Y007757D01*
X006130Y007639D02*
X005655Y007639D01*
X005291Y007520D02*
X006130Y007520D01*
X006130Y007402D02*
X005172Y007402D01*
X005054Y007283D02*
X006130Y007283D01*
X006130Y007165D02*
X004924Y007165D01*
X004322Y007046D02*
X006130Y007046D01*
X006130Y006928D02*
X000650Y006928D01*
X000650Y007046D02*
X002760Y007046D01*
X002756Y007053D02*
X002777Y007016D01*
X002807Y006987D01*
X002843Y006966D01*
X002884Y006955D01*
X003101Y006955D01*
X003101Y007350D01*
X002745Y007350D01*
X002745Y007094D01*
X002756Y007053D01*
X002745Y007165D02*
X000650Y007165D01*
X000658Y007283D02*
X002745Y007283D01*
X003101Y007283D02*
X003221Y007283D01*
X003221Y007165D02*
X003101Y007165D01*
X003101Y007046D02*
X003221Y007046D01*
X003231Y006860D02*
X003190Y006849D01*
X003154Y006828D01*
X003124Y006799D01*
X003103Y006762D01*
X003092Y006721D01*
X003092Y006367D01*
X003684Y006367D01*
X003684Y006860D01*
X003231Y006860D01*
X003135Y006809D02*
X002189Y006809D01*
X002199Y006799D02*
X002169Y006828D01*
X002133Y006849D01*
X002092Y006860D01*
X001639Y006860D01*
X001639Y006367D01*
X001519Y006367D01*
X001519Y006860D01*
X001066Y006860D01*
X001025Y006849D01*
X000989Y006828D01*
X000959Y006799D01*
X000938Y006762D01*
X000927Y006721D01*
X000927Y006367D01*
X001519Y006367D01*
X001519Y006247D01*
X000927Y006247D01*
X000927Y005892D01*
X000938Y005851D01*
X000959Y005815D01*
X000989Y005785D01*
X001025Y005764D01*
X001066Y005753D01*
X001519Y005753D01*
X001519Y006247D01*
X001639Y006247D01*
X001639Y006367D01*
X002231Y006367D01*
X002231Y006721D01*
X002220Y006762D01*
X002199Y006799D01*
X002231Y006691D02*
X003092Y006691D01*
X003092Y006572D02*
X002231Y006572D01*
X002231Y006454D02*
X003092Y006454D01*
X003092Y006247D02*
X003092Y005892D01*
X003103Y005851D01*
X003124Y005815D01*
X003154Y005785D01*
X003190Y005764D01*
X003231Y005753D01*
X003684Y005753D01*
X003684Y006247D01*
X003092Y006247D01*
X003092Y006217D02*
X002231Y006217D01*
X002231Y006247D02*
X001639Y006247D01*
X001639Y005753D01*
X002092Y005753D01*
X002133Y005764D01*
X002169Y005785D01*
X002199Y005815D01*
X002220Y005851D01*
X002231Y005892D01*
X002231Y006247D01*
X002231Y006098D02*
X003092Y006098D01*
X003092Y005980D02*
X002231Y005980D01*
X002223Y005861D02*
X003100Y005861D01*
X003009Y005743D02*
X004758Y005743D01*
X004758Y005861D02*
X004388Y005861D01*
X004385Y005851D02*
X004396Y005892D01*
X004396Y006247D01*
X003804Y006247D01*
X003804Y006367D01*
X003684Y006367D01*
X003684Y006247D01*
X003804Y006247D01*
X003804Y005753D01*
X004257Y005753D01*
X004298Y005764D01*
X004335Y005785D01*
X004364Y005815D01*
X004385Y005851D01*
X004396Y005980D02*
X004758Y005980D01*
X004758Y006098D02*
X004396Y006098D01*
X004396Y006217D02*
X004758Y006217D01*
X004823Y006335D02*
X003804Y006335D01*
X003804Y006367D02*
X004396Y006367D01*
X004396Y006721D01*
X004385Y006762D01*
X004364Y006799D01*
X004335Y006828D01*
X004298Y006849D01*
X004257Y006860D01*
X003804Y006860D01*
X003804Y006367D01*
X003804Y006454D02*
X003684Y006454D01*
X003684Y006572D02*
X003804Y006572D01*
X003804Y006691D02*
X003684Y006691D01*
X003684Y006809D02*
X003804Y006809D01*
X004354Y006809D02*
X006038Y006809D01*
X005920Y006691D02*
X004396Y006691D01*
X004396Y006572D02*
X005801Y006572D01*
X005735Y006454D02*
X004396Y006454D01*
X003804Y006217D02*
X003684Y006217D01*
X003684Y006335D02*
X001639Y006335D01*
X001639Y006217D02*
X001519Y006217D01*
X001519Y006335D02*
X000650Y006335D01*
X000650Y006217D02*
X000927Y006217D01*
X000927Y006098D02*
X000650Y006098D01*
X000650Y005980D02*
X000927Y005980D01*
X000935Y005861D02*
X000650Y005861D01*
X000650Y005743D02*
X002511Y005743D01*
X002401Y005624D02*
X000650Y005624D01*
X000650Y005506D02*
X002352Y005506D01*
X002343Y005387D02*
X000650Y005387D01*
X000650Y005269D02*
X002363Y005269D01*
X002421Y005150D02*
X000650Y005150D01*
X000650Y005032D02*
X002562Y005032D01*
X002958Y005032D02*
X003092Y005032D01*
X003092Y004913D02*
X000650Y004913D01*
X000650Y004795D02*
X003092Y004795D01*
X003092Y004676D02*
X000650Y004676D01*
X000650Y004558D02*
X003092Y004558D01*
X003092Y004439D02*
X000650Y004439D01*
X000650Y004321D02*
X003092Y004321D01*
X003138Y003491D02*
X004670Y003491D01*
X004472Y003373D02*
X003054Y003373D01*
X003804Y002780D02*
X004396Y002780D01*
X003804Y002662D02*
X003684Y002662D01*
X003684Y002543D02*
X003804Y002543D01*
X003804Y002425D02*
X003684Y002425D01*
X003684Y002306D02*
X003804Y002306D01*
X003481Y002188D02*
X006350Y002188D01*
X006350Y002306D02*
X004384Y002306D01*
X004396Y002425D02*
X006350Y002425D01*
X006355Y002543D02*
X006426Y002543D01*
X006894Y002543D02*
X007100Y002543D01*
X007100Y002500D02*
X007440Y002500D01*
X007440Y003040D01*
X007239Y003040D01*
X007198Y003029D01*
X007162Y003008D01*
X007132Y002978D01*
X007111Y002942D01*
X007100Y002901D01*
X007100Y002500D01*
X007100Y002380D02*
X007100Y001979D01*
X007111Y001938D01*
X007132Y001902D01*
X007162Y001872D01*
X007198Y001851D01*
X007239Y001840D01*
X007440Y001840D01*
X007440Y002380D01*
X007560Y002380D01*
X007560Y002500D01*
X007900Y002500D01*
X007900Y002901D01*
X007889Y002942D01*
X007868Y002978D01*
X007838Y003008D01*
X007802Y003029D01*
X007761Y003040D01*
X007560Y003040D01*
X007560Y002500D01*
X007440Y002500D01*
X007440Y002380D01*
X007100Y002380D01*
X007100Y002306D02*
X006970Y002306D01*
X006970Y002188D02*
X007100Y002188D01*
X007100Y002069D02*
X006970Y002069D01*
X006940Y001951D02*
X007108Y001951D01*
X006979Y001832D02*
X009040Y001832D01*
X009040Y001714D02*
X008905Y001714D01*
X008725Y001714D02*
X008695Y001714D01*
X008515Y001714D02*
X006975Y001714D01*
X006921Y001595D02*
X008404Y001595D01*
X008400Y001477D02*
X006748Y001477D01*
X006572Y001477D02*
X006424Y001477D01*
X006424Y001358D02*
X008400Y001358D01*
X008400Y001240D02*
X006390Y001240D01*
X005970Y001240D02*
X005850Y001240D01*
X005850Y001358D02*
X005970Y001358D01*
X005970Y001477D02*
X005850Y001477D01*
X005850Y001595D02*
X004970Y001595D01*
X004970Y001477D02*
X004850Y001477D01*
X004850Y001595D02*
X004464Y001595D01*
X004850Y001714D02*
X004970Y001714D01*
X004970Y001832D02*
X004850Y001832D01*
X004850Y001951D02*
X004970Y001951D01*
X004464Y002069D02*
X006350Y002069D01*
X005970Y001951D02*
X005850Y001951D01*
X005850Y001832D02*
X005970Y001832D01*
X005970Y001714D02*
X005850Y001714D01*
X005970Y001595D02*
X006399Y001595D01*
X005430Y001240D02*
X005390Y001240D01*
X004970Y001240D02*
X004850Y001240D01*
X004850Y001358D02*
X004970Y001358D01*
X004660Y000935D02*
X004317Y001278D01*
X004176Y001278D01*
X003644Y001592D02*
X003453Y001592D01*
X003210Y001835D01*
X003210Y002010D01*
X002891Y002069D02*
X002630Y002069D01*
X002888Y002188D02*
X002939Y002188D01*
X002962Y002306D02*
X003092Y002306D01*
X002613Y001951D02*
X002512Y001951D01*
X002259Y002009D02*
X002259Y001705D01*
X002259Y001410D01*
X002259Y001115D01*
X004176Y000963D02*
X004232Y000963D01*
X004510Y000685D01*
X014210Y000685D01*
X014510Y000985D01*
X014510Y001593D01*
X014782Y001595D02*
X014841Y001595D01*
X014841Y001598D02*
X014841Y001472D01*
X014890Y001354D01*
X014979Y001265D01*
X015097Y001216D01*
X015223Y001216D01*
X015341Y001265D01*
X015430Y001354D01*
X015479Y001472D01*
X015479Y001514D01*
X016509Y002545D01*
X017708Y002545D01*
X017796Y002582D01*
X018113Y002899D01*
X018150Y002987D01*
X018150Y003083D01*
X018135Y003118D01*
X018313Y003045D01*
X018507Y003045D01*
X018688Y003120D01*
X018825Y003257D01*
X018900Y003438D01*
X018900Y003632D01*
X018825Y003813D01*
X018688Y003950D01*
X018507Y004025D01*
X018313Y004025D01*
X018188Y003973D01*
X018275Y004061D01*
X018313Y004045D01*
X018507Y004045D01*
X018688Y004120D01*
X018825Y004257D01*
X018900Y004438D01*
X018900Y004632D01*
X018825Y004813D01*
X018688Y004950D01*
X018507Y005025D01*
X018313Y005025D01*
X018132Y004950D01*
X017995Y004813D01*
X017920Y004632D01*
X017920Y004438D01*
X017936Y004400D01*
X017848Y004313D01*
X017900Y004438D01*
X017900Y004632D01*
X017825Y004813D01*
X017688Y004950D01*
X017507Y005025D01*
X017313Y005025D01*
X017132Y004950D01*
X016995Y004813D01*
X016920Y004632D01*
X016920Y004438D01*
X016995Y004257D01*
X017132Y004120D01*
X017313Y004045D01*
X017507Y004045D01*
X017685Y004118D01*
X017670Y004083D01*
X017670Y003987D01*
X017685Y003952D01*
X017507Y004025D01*
X017313Y004025D01*
X017132Y003950D01*
X016995Y003813D01*
X016971Y003755D01*
X016344Y003755D01*
X016796Y004207D01*
X016863Y004274D01*
X016900Y004362D01*
X016900Y005633D01*
X016863Y005721D01*
X016524Y006060D01*
X016613Y006149D01*
X016650Y006237D01*
X016650Y007083D01*
X016613Y007171D01*
X015861Y007923D01*
X015870Y007943D01*
X015870Y008126D01*
X015800Y008296D01*
X015676Y008420D01*
X016144Y008420D01*
X016020Y008296D01*
X015950Y008126D01*
X015950Y007943D01*
X016020Y007774D01*
X016149Y007645D01*
X016318Y007575D01*
X016501Y007575D01*
X016522Y007584D01*
X016670Y007436D01*
X016670Y006987D01*
X016707Y006899D01*
X017636Y005970D01*
X017598Y005989D01*
X017525Y006013D01*
X017449Y006025D01*
X017448Y006025D01*
X017448Y005573D01*
X017900Y005573D01*
X017900Y005574D01*
X017888Y005650D01*
X017864Y005723D01*
X017845Y005761D01*
X017936Y005670D01*
X017920Y005632D01*
X017920Y005438D01*
X017995Y005257D01*
X018132Y005120D01*
X018313Y005045D01*
X018507Y005045D01*
X018688Y005120D01*
X018825Y005257D01*
X018900Y005438D01*
X018900Y005632D01*
X018825Y005813D01*
X018688Y005950D01*
X018507Y006025D01*
X018313Y006025D01*
X018275Y006009D01*
X017150Y007134D01*
X017150Y007583D01*
X017113Y007671D01*
X016861Y007923D01*
X016870Y007943D01*
X016870Y008126D01*
X016800Y008296D01*
X016676Y008420D01*
X018098Y008420D01*
X018262Y008409D01*
X018580Y008324D01*
X018865Y008160D01*
X019097Y007927D01*
X019262Y007642D01*
X019347Y007324D01*
X019358Y007160D01*
X019358Y001910D01*
X019347Y001746D01*
X019262Y001428D01*
X019262Y001428D01*
X019097Y001143D01*
X018865Y000910D01*
X018580Y000746D01*
X018262Y000661D01*
X018097Y000650D01*
X017288Y000650D01*
X017335Y000684D01*
X017386Y000735D01*
X017428Y000794D01*
X017461Y000858D01*
X017484Y000927D01*
X017494Y000995D01*
X017075Y000995D01*
X017075Y001075D01*
X016995Y001075D01*
X016995Y001494D01*
X016927Y001484D01*
X016858Y001461D01*
X016794Y001428D01*
X016735Y001386D01*
X016684Y001335D01*
X016642Y001276D01*
X016609Y001212D01*
X016586Y001143D01*
X016576Y001075D01*
X016995Y001075D01*
X016995Y000995D01*
X016576Y000995D01*
X016586Y000927D01*
X016609Y000858D01*
X016642Y000794D01*
X016684Y000735D01*
X016735Y000684D01*
X016782Y000650D01*
X016301Y000650D01*
X016425Y000774D01*
X016495Y000943D01*
X016495Y001126D01*
X016425Y001296D01*
X016296Y001425D01*
X016126Y001495D01*
X015943Y001495D01*
X015774Y001425D01*
X015645Y001296D01*
X015575Y001126D01*
X015575Y000943D01*
X015645Y000774D01*
X015769Y000650D01*
X014486Y000650D01*
X014601Y000765D01*
X014730Y000894D01*
X014730Y001226D01*
X014782Y001279D01*
X014782Y001911D01*
X014749Y001945D01*
X014751Y001945D01*
X014784Y001913D01*
X015198Y001913D01*
X015139Y001854D01*
X015097Y001854D01*
X014979Y001805D01*
X014890Y001716D01*
X014841Y001598D01*
X014841Y001477D02*
X014782Y001477D01*
X014782Y001358D02*
X014888Y001358D01*
X014743Y001240D02*
X015040Y001240D01*
X015280Y001240D02*
X015622Y001240D01*
X015575Y001121D02*
X014730Y001121D01*
X014730Y001003D02*
X015575Y001003D01*
X015600Y000884D02*
X014720Y000884D01*
X014602Y000766D02*
X015654Y000766D01*
X016416Y000766D02*
X016662Y000766D01*
X016600Y000884D02*
X016470Y000884D01*
X016495Y001003D02*
X016995Y001003D01*
X017075Y001003D02*
X018957Y001003D01*
X019075Y001121D02*
X017487Y001121D01*
X017484Y001143D02*
X017461Y001212D01*
X017428Y001276D01*
X017386Y001335D01*
X017335Y001386D01*
X017276Y001428D01*
X017212Y001461D01*
X017143Y001484D01*
X017075Y001494D01*
X017075Y001075D01*
X017494Y001075D01*
X017484Y001143D01*
X017447Y001240D02*
X019153Y001240D01*
X019221Y001358D02*
X017363Y001358D01*
X017165Y001477D02*
X019275Y001477D01*
X019306Y001595D02*
X015559Y001595D01*
X015479Y001477D02*
X015899Y001477D01*
X015707Y001358D02*
X015432Y001358D01*
X016171Y001477D02*
X016905Y001477D01*
X016995Y001477D02*
X017075Y001477D01*
X017075Y001358D02*
X016995Y001358D01*
X016707Y001358D02*
X016363Y001358D01*
X016448Y001240D02*
X016623Y001240D01*
X016583Y001121D02*
X016495Y001121D01*
X016995Y001121D02*
X017075Y001121D01*
X017075Y001240D02*
X016995Y001240D01*
X017470Y000884D02*
X018819Y000884D01*
X018614Y000766D02*
X017408Y000766D01*
X015678Y001714D02*
X019338Y001714D01*
X019352Y001832D02*
X015796Y001832D01*
X015915Y001951D02*
X019358Y001951D01*
X019358Y002069D02*
X016033Y002069D01*
X016152Y002188D02*
X019358Y002188D01*
X019358Y002306D02*
X016270Y002306D01*
X016389Y002425D02*
X019358Y002425D01*
X019358Y002543D02*
X016507Y002543D01*
X017876Y002662D02*
X019358Y002662D01*
X019358Y002780D02*
X017994Y002780D01*
X018113Y002899D02*
X019358Y002899D01*
X019358Y003017D02*
X018150Y003017D01*
X017910Y003035D02*
X017910Y004035D01*
X017679Y003965D02*
X017652Y003965D01*
X017670Y004084D02*
X017600Y004084D01*
X017220Y004084D02*
X016673Y004084D01*
X016791Y004202D02*
X017050Y004202D01*
X016968Y004321D02*
X016883Y004321D01*
X016900Y004439D02*
X016920Y004439D01*
X016920Y004558D02*
X016900Y004558D01*
X016900Y004676D02*
X016938Y004676D01*
X016900Y004795D02*
X016987Y004795D01*
X016900Y004913D02*
X017095Y004913D01*
X017222Y005081D02*
X017295Y005057D01*
X017371Y005045D01*
X017372Y005045D01*
X017372Y005497D01*
X017448Y005497D01*
X017448Y005573D01*
X017372Y005573D01*
X017372Y005497D01*
X016920Y005497D01*
X016920Y005496D01*
X016932Y005420D01*
X016956Y005347D01*
X016991Y005278D01*
X017036Y005216D01*
X017091Y005161D01*
X017153Y005116D01*
X017222Y005081D01*
X017106Y005150D02*
X016900Y005150D01*
X016900Y005032D02*
X019358Y005032D01*
X019358Y005150D02*
X018718Y005150D01*
X018830Y005269D02*
X019358Y005269D01*
X019358Y005387D02*
X018879Y005387D01*
X018900Y005506D02*
X019358Y005506D01*
X019358Y005624D02*
X018900Y005624D01*
X018854Y005743D02*
X019358Y005743D01*
X019358Y005861D02*
X018777Y005861D01*
X018617Y005980D02*
X019358Y005980D01*
X019358Y006098D02*
X018186Y006098D01*
X018068Y006217D02*
X019358Y006217D01*
X019358Y006335D02*
X017949Y006335D01*
X017831Y006454D02*
X019358Y006454D01*
X019358Y006572D02*
X017712Y006572D01*
X017594Y006691D02*
X019358Y006691D01*
X019358Y006809D02*
X017475Y006809D01*
X017357Y006928D02*
X019358Y006928D01*
X019358Y007046D02*
X017238Y007046D01*
X017150Y007165D02*
X019357Y007165D01*
X019349Y007283D02*
X017150Y007283D01*
X017150Y007402D02*
X019326Y007402D01*
X019294Y007520D02*
X017150Y007520D01*
X017127Y007639D02*
X019263Y007639D01*
X019195Y007757D02*
X017027Y007757D01*
X016909Y007876D02*
X019127Y007876D01*
X019030Y007994D02*
X016870Y007994D01*
X016870Y008113D02*
X018912Y008113D01*
X018741Y008231D02*
X016827Y008231D01*
X016746Y008350D02*
X018485Y008350D01*
X016586Y007520D02*
X016264Y007520D01*
X016165Y007639D02*
X016146Y007639D01*
X016037Y007757D02*
X016027Y007757D01*
X015978Y007876D02*
X015909Y007876D01*
X015870Y007994D02*
X015950Y007994D01*
X015950Y008113D02*
X015870Y008113D01*
X015827Y008231D02*
X015993Y008231D01*
X016074Y008350D02*
X015746Y008350D01*
X015074Y008350D02*
X007746Y008350D01*
X007827Y008231D02*
X009218Y008231D01*
X009600Y008231D02*
X009720Y008231D01*
X009720Y008113D02*
X009600Y008113D01*
X009600Y007994D02*
X009720Y007994D01*
X009720Y007876D02*
X014978Y007876D01*
X014950Y007994D02*
X010115Y007994D01*
X010115Y008113D02*
X014950Y008113D01*
X014993Y008231D02*
X010102Y008231D01*
X009600Y007876D02*
X007965Y007876D01*
X007870Y007994D02*
X009205Y007994D01*
X009205Y008113D02*
X007870Y008113D01*
X008084Y007757D02*
X009205Y007757D01*
X009205Y007639D02*
X008202Y007639D01*
X008264Y007520D02*
X009242Y007520D01*
X009205Y007402D02*
X008266Y007402D01*
X008266Y007283D02*
X009205Y007283D01*
X009205Y007165D02*
X008266Y007165D01*
X008266Y007046D02*
X009205Y007046D01*
X009205Y006928D02*
X008266Y006928D01*
X008266Y006809D02*
X009235Y006809D01*
X009350Y006691D02*
X008266Y006691D01*
X008674Y006572D02*
X008794Y006572D01*
X008794Y006454D02*
X008674Y006454D01*
X008674Y006335D02*
X008794Y006335D01*
X008794Y006217D02*
X009418Y006217D01*
X009350Y006335D02*
X009150Y006335D01*
X009150Y006454D02*
X009350Y006454D01*
X009350Y006572D02*
X009136Y006572D01*
X009902Y006217D02*
X011135Y006217D01*
X011508Y006098D02*
X009970Y006098D01*
X009970Y005980D02*
X011626Y005980D01*
X011745Y005861D02*
X009970Y005861D01*
X009964Y005743D02*
X011863Y005743D01*
X011982Y005624D02*
X008346Y005624D01*
X008346Y005506D02*
X012068Y005506D01*
X012068Y005387D02*
X010684Y005387D01*
X011016Y005269D02*
X012038Y005269D01*
X012038Y005150D02*
X011122Y005150D01*
X011150Y005032D02*
X012038Y005032D01*
X012038Y004913D02*
X011150Y004913D01*
X011150Y004795D02*
X012038Y004795D01*
X012038Y004676D02*
X011150Y004676D01*
X011150Y004558D02*
X011310Y004558D01*
X011310Y004439D02*
X011150Y004439D01*
X011150Y004321D02*
X011310Y004321D01*
X011310Y004202D02*
X011150Y004202D01*
X011150Y004084D02*
X011310Y004084D01*
X011310Y003965D02*
X011150Y003965D01*
X011150Y003847D02*
X011310Y003847D01*
X011310Y003728D02*
X011150Y003728D01*
X012130Y003728D02*
X012314Y003728D01*
X012195Y003610D02*
X012130Y003610D01*
X012130Y003847D02*
X012432Y003847D01*
X012551Y003965D02*
X012130Y003965D01*
X012130Y004084D02*
X012669Y004084D01*
X012659Y004202D02*
X012130Y004202D01*
X012130Y004321D02*
X012619Y004321D01*
X012624Y004439D02*
X012130Y004439D01*
X012130Y004558D02*
X012682Y004558D01*
X013186Y004565D02*
X013253Y004565D01*
X013384Y004565D01*
X013390Y004567D01*
X013391Y004565D01*
X013744Y004565D01*
X013745Y004567D01*
X013751Y004565D01*
X013882Y004565D01*
X013882Y004975D01*
X013882Y004975D01*
X013882Y005385D01*
X013807Y005385D01*
X013807Y005493D01*
X014159Y005845D01*
X014824Y005845D01*
X014859Y005810D01*
X014800Y005751D01*
X014800Y005319D01*
X014870Y005249D01*
X014870Y005037D01*
X014907Y004949D01*
X015198Y004657D01*
X014784Y004657D01*
X014754Y004627D01*
X014751Y004627D01*
X014782Y004659D01*
X014782Y005291D01*
X014689Y005385D01*
X014021Y005385D01*
X014020Y005383D01*
X014014Y005385D01*
X013882Y005385D01*
X013882Y004975D01*
X013882Y004975D01*
X013882Y004565D01*
X014014Y004565D01*
X014020Y004567D01*
X014021Y004565D01*
X014476Y004565D01*
X014434Y004523D01*
X014061Y004150D01*
X013176Y004150D01*
X013208Y004182D01*
X013256Y004299D01*
X013256Y004426D01*
X013208Y004543D01*
X013186Y004565D01*
X013193Y004558D02*
X014468Y004558D01*
X014350Y004439D02*
X013251Y004439D01*
X013256Y004321D02*
X014231Y004321D01*
X014113Y004202D02*
X013216Y004202D01*
X013253Y004565D02*
X013253Y004975D01*
X013253Y004565D01*
X013253Y004676D02*
X013253Y004676D01*
X013253Y004795D02*
X013253Y004795D01*
X013253Y004913D02*
X013253Y004913D01*
X013253Y004975D02*
X013253Y004975D01*
X013882Y005032D02*
X013882Y005032D01*
X013882Y005150D02*
X013882Y005150D01*
X013882Y005269D02*
X013882Y005269D01*
X013807Y005387D02*
X014800Y005387D01*
X014800Y005506D02*
X013820Y005506D01*
X013938Y005624D02*
X014800Y005624D01*
X014800Y005743D02*
X014057Y005743D01*
X014782Y005269D02*
X014850Y005269D01*
X014870Y005150D02*
X014782Y005150D01*
X014782Y005032D02*
X014872Y005032D01*
X014943Y004913D02*
X014782Y004913D01*
X014782Y004795D02*
X015061Y004795D01*
X015180Y004676D02*
X014782Y004676D01*
X015503Y005032D02*
X016420Y005032D01*
X016420Y005150D02*
X015384Y005150D01*
X015350Y005184D02*
X015350Y005249D01*
X015416Y005315D01*
X015432Y005287D01*
X015462Y005257D01*
X015498Y005236D01*
X015539Y005225D01*
X015695Y005225D01*
X015695Y005520D01*
X015725Y005520D01*
X015725Y005550D01*
X016020Y005550D01*
X016020Y005706D01*
X016009Y005747D01*
X015988Y005783D01*
X015961Y005810D01*
X015996Y005845D01*
X016061Y005845D01*
X016420Y005486D01*
X016420Y004509D01*
X016058Y004148D01*
X016030Y004216D01*
X016000Y004246D01*
X016000Y004483D01*
X015963Y004571D01*
X015896Y004638D01*
X015350Y005184D01*
X015370Y005269D02*
X015450Y005269D01*
X015695Y005269D02*
X015725Y005269D01*
X015725Y005225D02*
X015881Y005225D01*
X015922Y005236D01*
X015958Y005257D01*
X015988Y005287D01*
X016009Y005323D01*
X016020Y005364D01*
X016020Y005520D01*
X015725Y005520D01*
X015725Y005225D01*
X015970Y005269D02*
X016420Y005269D01*
X016420Y005387D02*
X016020Y005387D01*
X016020Y005506D02*
X016400Y005506D01*
X016282Y005624D02*
X016020Y005624D01*
X016010Y005743D02*
X016163Y005743D01*
X016605Y005980D02*
X017203Y005980D01*
X017222Y005989D02*
X017153Y005954D01*
X017091Y005909D01*
X017036Y005854D01*
X016991Y005792D01*
X016956Y005723D01*
X016932Y005650D01*
X016920Y005574D01*
X016920Y005573D01*
X017372Y005573D01*
X017372Y006025D01*
X017371Y006025D01*
X017295Y006013D01*
X017222Y005989D01*
X017372Y005980D02*
X017448Y005980D01*
X017448Y005861D02*
X017372Y005861D01*
X017372Y005743D02*
X017448Y005743D01*
X017448Y005624D02*
X017372Y005624D01*
X017372Y005506D02*
X016900Y005506D01*
X016900Y005624D02*
X016928Y005624D01*
X016966Y005743D02*
X016842Y005743D01*
X016723Y005861D02*
X017043Y005861D01*
X017508Y006098D02*
X016562Y006098D01*
X016641Y006217D02*
X017389Y006217D01*
X017271Y006335D02*
X016650Y006335D01*
X016650Y006454D02*
X017152Y006454D01*
X017034Y006572D02*
X016650Y006572D01*
X016650Y006691D02*
X016915Y006691D01*
X016797Y006809D02*
X016650Y006809D01*
X016650Y006928D02*
X016695Y006928D01*
X016670Y007046D02*
X016650Y007046D01*
X016670Y007165D02*
X016616Y007165D01*
X016670Y007283D02*
X016501Y007283D01*
X016383Y007402D02*
X016670Y007402D01*
X016060Y007046D02*
X012239Y007046D01*
X012357Y006928D02*
X013260Y006928D01*
X013090Y006809D02*
X012642Y006809D01*
X012733Y006691D02*
X013020Y006691D01*
X012990Y006572D02*
X012768Y006572D01*
X012764Y006454D02*
X012989Y006454D01*
X012871Y006335D02*
X012715Y006335D01*
X012752Y006217D02*
X012577Y006217D01*
X012634Y006098D02*
X012186Y006098D01*
X012243Y006217D02*
X012068Y006217D01*
X012105Y006335D02*
X011949Y006335D01*
X012056Y006454D02*
X011831Y006454D01*
X011830Y006572D02*
X012034Y006572D01*
X011916Y006691D02*
X011800Y006691D01*
X011797Y006809D02*
X011730Y006809D01*
X012121Y007165D02*
X015941Y007165D01*
X015823Y007283D02*
X012002Y007283D01*
X011921Y007364D02*
X011921Y007364D01*
X011833Y007401D02*
X011833Y007401D01*
X013560Y006928D02*
X014876Y006928D01*
X015344Y006928D02*
X015487Y006928D01*
X015695Y006928D02*
X015725Y006928D01*
X015725Y006809D02*
X015695Y006809D01*
X015933Y006928D02*
X016170Y006928D01*
X016170Y006809D02*
X016019Y006809D01*
X016020Y006691D02*
X016170Y006691D01*
X016170Y006572D02*
X016020Y006572D01*
X016017Y006454D02*
X016170Y006454D01*
X016121Y006335D02*
X015986Y006335D01*
X015725Y006691D02*
X015695Y006691D01*
X015704Y007402D02*
X010115Y007402D01*
X010078Y007520D02*
X015586Y007520D01*
X015165Y007639D02*
X010115Y007639D01*
X010115Y007757D02*
X015037Y007757D01*
X012515Y005980D02*
X012305Y005980D01*
X010136Y005387D02*
X009271Y005387D01*
X009279Y005269D02*
X010100Y005269D01*
X010100Y005150D02*
X009279Y005150D01*
X009279Y005032D02*
X009397Y005032D01*
X009323Y004913D02*
X009279Y004913D01*
X009279Y004795D02*
X009300Y004795D01*
X009300Y004676D02*
X009279Y004676D01*
X009279Y004558D02*
X009300Y004558D01*
X009300Y004439D02*
X009279Y004439D01*
X009300Y004321D02*
X009218Y004321D01*
X009300Y004202D02*
X008770Y004202D01*
X008770Y004084D02*
X009300Y004084D01*
X009300Y003965D02*
X008770Y003965D01*
X008770Y003847D02*
X009212Y003847D01*
X009094Y003728D02*
X008770Y003728D01*
X008770Y003610D02*
X008998Y003610D01*
X008960Y003491D02*
X008770Y003491D01*
X008770Y003373D02*
X008960Y003373D01*
X008960Y003254D02*
X008770Y003254D01*
X008770Y003136D02*
X008960Y003136D01*
X008960Y003017D02*
X008770Y003017D01*
X008810Y002899D02*
X008920Y002899D01*
X008920Y002780D02*
X008810Y002780D01*
X008810Y002662D02*
X008920Y002662D01*
X008920Y002543D02*
X008810Y002543D01*
X008810Y002425D02*
X008920Y002425D01*
X008920Y002306D02*
X008810Y002306D01*
X008810Y002188D02*
X008920Y002188D01*
X008920Y002069D02*
X008810Y002069D01*
X008810Y001951D02*
X008920Y001951D01*
X009600Y001832D02*
X011694Y001832D01*
X011539Y001714D02*
X011458Y001714D01*
X011366Y001951D02*
X009720Y001951D01*
X009720Y002069D02*
X011310Y002069D01*
X011310Y002188D02*
X010689Y002188D01*
X011020Y002306D02*
X011310Y002306D01*
X011310Y002425D02*
X011124Y002425D01*
X011150Y002543D02*
X011310Y002543D01*
X011310Y002662D02*
X011150Y002662D01*
X011150Y002780D02*
X011310Y002780D01*
X010139Y002780D02*
X009720Y002780D01*
X009720Y002899D02*
X010100Y002899D01*
X010100Y003017D02*
X009680Y003017D01*
X009680Y003136D02*
X010100Y003136D01*
X010103Y003254D02*
X009680Y003254D01*
X009757Y003373D02*
X010132Y003373D01*
X010091Y003491D02*
X009875Y003491D01*
X009977Y003610D02*
X010096Y003610D01*
X010152Y003728D02*
X010020Y003728D01*
X010020Y003847D02*
X010148Y003847D01*
X010094Y003965D02*
X010020Y003965D01*
X010020Y004084D02*
X010091Y004084D01*
X010134Y004202D02*
X010020Y004202D01*
X010020Y004321D02*
X010100Y004321D01*
X010100Y004439D02*
X010020Y004439D01*
X010020Y004558D02*
X010100Y004558D01*
X010100Y004676D02*
X010020Y004676D01*
X010020Y004795D02*
X010143Y004795D01*
X010106Y004913D02*
X009997Y004913D01*
X009923Y005032D02*
X010100Y005032D01*
X009675Y005743D02*
X009645Y005743D01*
X009645Y005861D02*
X009675Y005861D01*
X009350Y005861D02*
X009141Y005861D01*
X009150Y005980D02*
X009350Y005980D01*
X009350Y006098D02*
X009150Y006098D01*
X008794Y006098D02*
X008674Y006098D01*
X008674Y005980D02*
X008794Y005980D01*
X008794Y005861D02*
X008674Y005861D01*
X008346Y005743D02*
X009356Y005743D01*
X007541Y004558D02*
X005077Y004558D01*
X005195Y004439D02*
X007541Y004439D01*
X007602Y004321D02*
X006004Y004321D01*
X006136Y004202D02*
X008050Y004202D01*
X008050Y004084D02*
X006179Y004084D01*
X006176Y003965D02*
X008050Y003965D01*
X008050Y003847D02*
X006122Y003847D01*
X006100Y003728D02*
X008050Y003728D01*
X008050Y003610D02*
X006100Y003610D01*
X006100Y003491D02*
X008050Y003491D01*
X008050Y003373D02*
X006348Y003373D01*
X006424Y003254D02*
X008050Y003254D01*
X008050Y003136D02*
X006886Y003136D01*
X006970Y003017D02*
X007177Y003017D01*
X007100Y002899D02*
X006970Y002899D01*
X006970Y002780D02*
X007100Y002780D01*
X007100Y002662D02*
X006970Y002662D01*
X006970Y002425D02*
X007440Y002425D01*
X007440Y002543D02*
X007560Y002543D01*
X007560Y002425D02*
X008010Y002425D01*
X008010Y002543D02*
X007900Y002543D01*
X007900Y002662D02*
X008010Y002662D01*
X008010Y002780D02*
X007900Y002780D01*
X007900Y002899D02*
X008010Y002899D01*
X008050Y003017D02*
X007823Y003017D01*
X007560Y003017D02*
X007440Y003017D01*
X007440Y002899D02*
X007560Y002899D01*
X007560Y002780D02*
X007440Y002780D01*
X007440Y002662D02*
X007560Y002662D01*
X007560Y002380D02*
X007900Y002380D01*
X007900Y001979D01*
X007889Y001938D01*
X007868Y001902D01*
X007838Y001872D01*
X007802Y001851D01*
X007761Y001840D01*
X007560Y001840D01*
X007560Y002380D01*
X007560Y002306D02*
X007440Y002306D01*
X007440Y002188D02*
X007560Y002188D01*
X007560Y002069D02*
X007440Y002069D01*
X007440Y001951D02*
X007560Y001951D01*
X007892Y001951D02*
X008010Y001951D01*
X008010Y002069D02*
X007900Y002069D01*
X007900Y002188D02*
X008010Y002188D01*
X008010Y002306D02*
X007900Y002306D01*
X008695Y001595D02*
X008725Y001595D01*
X008725Y001477D02*
X008695Y001477D01*
X009310Y001410D02*
X009320Y001410D01*
X009320Y001410D01*
X009620Y001358D02*
X010325Y001358D01*
X010325Y001477D02*
X009620Y001477D01*
X009620Y001595D02*
X010329Y001595D01*
X010440Y001714D02*
X009600Y001714D01*
X009720Y002188D02*
X010131Y002188D01*
X010100Y002306D02*
X009720Y002306D01*
X009720Y002425D02*
X010100Y002425D01*
X010100Y002543D02*
X009720Y002543D01*
X009720Y002662D02*
X010110Y002662D01*
X011926Y001832D02*
X012038Y001832D01*
X011460Y001185D02*
X011235Y001410D01*
X011460Y001185D02*
X013160Y001185D01*
X013253Y001278D01*
X013474Y001185D02*
X013567Y001185D01*
X013567Y001595D01*
X013567Y001595D01*
X013567Y002005D01*
X013436Y002005D01*
X013430Y002003D01*
X013429Y002005D01*
X013080Y002005D01*
X013129Y002122D01*
X013129Y002248D01*
X013101Y002315D01*
X013179Y002315D01*
X013229Y002265D01*
X013347Y002216D01*
X013473Y002216D01*
X013591Y002265D01*
X013680Y002354D01*
X013729Y002472D01*
X013729Y002598D01*
X013680Y002716D01*
X013591Y002805D01*
X013473Y002854D01*
X013430Y002854D01*
X013479Y002972D01*
X013479Y003098D01*
X013430Y003216D01*
X013341Y003305D01*
X013228Y003352D01*
X013230Y003354D01*
X013279Y003472D01*
X013279Y003598D01*
X013249Y003670D01*
X014208Y003670D01*
X014296Y003707D01*
X014690Y004101D01*
X014690Y002425D01*
X014621Y002425D01*
X014591Y002455D01*
X014473Y002504D01*
X014347Y002504D01*
X014229Y002455D01*
X014140Y002366D01*
X014091Y002248D01*
X014091Y002122D01*
X014140Y002005D01*
X014021Y002005D01*
X013706Y002005D01*
X013705Y002003D01*
X013699Y002005D01*
X013567Y002005D01*
X013567Y001595D01*
X013567Y001595D01*
X013567Y001185D01*
X013699Y001185D01*
X013705Y001187D01*
X013706Y001185D01*
X013949Y001185D01*
X013919Y001155D01*
X013462Y001155D01*
X013474Y001185D01*
X013567Y001240D02*
X013567Y001240D01*
X013567Y001358D02*
X013567Y001358D01*
X013567Y001477D02*
X013567Y001477D01*
X013567Y001714D02*
X013567Y001714D01*
X013567Y001832D02*
X013567Y001832D01*
X013567Y001951D02*
X013567Y001951D01*
X013107Y002069D02*
X014113Y002069D01*
X014091Y002188D02*
X013129Y002188D01*
X013105Y002306D02*
X013188Y002306D01*
X013410Y002535D02*
X012710Y002535D01*
X013430Y002854D02*
X013430Y002854D01*
X013448Y002899D02*
X014690Y002899D01*
X014690Y003017D02*
X013479Y003017D01*
X013463Y003136D02*
X014690Y003136D01*
X014690Y003254D02*
X013392Y003254D01*
X013238Y003373D02*
X014690Y003373D01*
X014690Y003491D02*
X013279Y003491D01*
X013274Y003610D02*
X014690Y003610D01*
X014690Y003728D02*
X014317Y003728D01*
X014436Y003847D02*
X014690Y003847D01*
X014690Y003965D02*
X014554Y003965D01*
X014673Y004084D02*
X014690Y004084D01*
X016000Y004321D02*
X016231Y004321D01*
X016350Y004439D02*
X016000Y004439D01*
X015969Y004558D02*
X016420Y004558D01*
X016420Y004676D02*
X015858Y004676D01*
X015740Y004795D02*
X016420Y004795D01*
X016420Y004913D02*
X015621Y004913D01*
X015695Y005387D02*
X015725Y005387D01*
X015725Y005506D02*
X015695Y005506D01*
X016900Y005387D02*
X016943Y005387D01*
X016900Y005269D02*
X016998Y005269D01*
X017372Y005269D02*
X017448Y005269D01*
X017448Y005150D02*
X017372Y005150D01*
X017448Y005045D02*
X017449Y005045D01*
X017525Y005057D01*
X017598Y005081D01*
X017667Y005116D01*
X017729Y005161D01*
X017784Y005216D01*
X017829Y005278D01*
X017864Y005347D01*
X017888Y005420D01*
X017900Y005496D01*
X017900Y005497D01*
X017448Y005497D01*
X017448Y005045D01*
X017714Y005150D02*
X018102Y005150D01*
X017990Y005269D02*
X017822Y005269D01*
X017877Y005387D02*
X017941Y005387D01*
X017920Y005506D02*
X017448Y005506D01*
X017448Y005387D02*
X017372Y005387D01*
X017892Y005624D02*
X017920Y005624D01*
X017863Y005743D02*
X017854Y005743D01*
X017626Y005980D02*
X017617Y005980D01*
X017725Y004913D02*
X018095Y004913D01*
X017987Y004795D02*
X017833Y004795D01*
X017882Y004676D02*
X017938Y004676D01*
X017920Y004558D02*
X017900Y004558D01*
X017900Y004439D02*
X017920Y004439D01*
X017856Y004321D02*
X017852Y004321D01*
X018600Y004084D02*
X019358Y004084D01*
X019358Y004202D02*
X018770Y004202D01*
X018852Y004321D02*
X019358Y004321D01*
X019358Y004439D02*
X018900Y004439D01*
X018900Y004558D02*
X019358Y004558D01*
X019358Y004676D02*
X018882Y004676D01*
X018833Y004795D02*
X019358Y004795D01*
X019358Y004913D02*
X018725Y004913D01*
X018652Y003965D02*
X019358Y003965D01*
X019358Y003847D02*
X018791Y003847D01*
X018860Y003728D02*
X019358Y003728D01*
X019358Y003610D02*
X018900Y003610D01*
X018900Y003491D02*
X019358Y003491D01*
X019358Y003373D02*
X018873Y003373D01*
X018822Y003254D02*
X019358Y003254D01*
X019358Y003136D02*
X018703Y003136D01*
X017410Y003535D02*
X016260Y003535D01*
X015960Y003235D01*
X015692Y003442D02*
X015100Y003442D01*
X015692Y003442D02*
X016035Y003785D01*
X016436Y003847D02*
X017029Y003847D01*
X017168Y003965D02*
X016554Y003965D01*
X016113Y004202D02*
X016036Y004202D01*
X016796Y004207D02*
X016796Y004207D01*
X013882Y004676D02*
X013882Y004676D01*
X013882Y004795D02*
X013882Y004795D01*
X013882Y004913D02*
X013882Y004913D01*
X013616Y002780D02*
X014690Y002780D01*
X014690Y002662D02*
X013703Y002662D01*
X013729Y002543D02*
X014690Y002543D01*
X014199Y002425D02*
X013709Y002425D01*
X013632Y002306D02*
X014115Y002306D01*
X014782Y001832D02*
X015044Y001832D01*
X014889Y001714D02*
X014782Y001714D01*
X014210Y001582D02*
X014210Y001535D01*
X014210Y001135D01*
X014010Y000935D01*
X004660Y000935D01*
X004465Y002543D02*
X004396Y002543D01*
X005355Y002543D02*
X005465Y002543D01*
X006424Y003136D02*
X006434Y003136D01*
X004396Y003254D02*
X004365Y003254D01*
X005314Y004321D02*
X005716Y004321D01*
X005821Y004795D02*
X006299Y004795D01*
X006294Y004913D02*
X006239Y004913D01*
X004534Y005624D02*
X003119Y005624D01*
X003168Y005506D02*
X004377Y005506D01*
X003804Y005861D02*
X003684Y005861D01*
X003684Y005980D02*
X003804Y005980D01*
X003804Y006098D02*
X003684Y006098D01*
X001639Y006098D02*
X001519Y006098D01*
X001519Y005980D02*
X001639Y005980D01*
X001639Y005861D02*
X001519Y005861D01*
X001519Y006454D02*
X001639Y006454D01*
X001639Y006572D02*
X001519Y006572D01*
X001519Y006691D02*
X001639Y006691D01*
X001639Y006809D02*
X001519Y006809D01*
X000969Y006809D02*
X000650Y006809D01*
X000650Y006691D02*
X000927Y006691D01*
X000927Y006572D02*
X000650Y006572D01*
X000650Y006454D02*
X000927Y006454D01*
X000681Y007402D02*
X003101Y007402D01*
X003101Y007520D02*
X003221Y007520D01*
X003221Y007639D02*
X003101Y007639D01*
X003101Y007757D02*
X003221Y007757D01*
X002753Y007757D02*
X000812Y007757D01*
X000745Y007639D02*
X002745Y007639D01*
X002745Y007520D02*
X000713Y007520D01*
X000881Y007876D02*
X004855Y007876D01*
X004950Y007994D02*
X000977Y007994D01*
X001096Y008113D02*
X004950Y008113D01*
X004993Y008231D02*
X001267Y008231D01*
X001523Y008350D02*
X005074Y008350D01*
X004736Y007757D02*
X004325Y007757D01*
X010620Y001714D02*
X010650Y001714D01*
X010830Y001714D02*
X011012Y001714D01*
X010650Y001595D02*
X010620Y001595D01*
X010620Y001477D02*
X010650Y001477D01*
X010325Y001240D02*
X009620Y001240D01*
D29*
X011810Y001535D03*
X012810Y002185D03*
X013410Y002535D03*
X013760Y002185D03*
X014410Y002185D03*
X015160Y001535D03*
X013160Y003035D03*
X012960Y003535D03*
X012938Y004363D03*
X010410Y004035D03*
X010410Y003535D03*
X009660Y004785D03*
X006010Y005135D03*
X005860Y004035D03*
X005460Y003535D03*
X002660Y002410D03*
X003210Y002010D03*
X002535Y000785D03*
X006660Y001785D03*
X014560Y005635D03*
X016260Y004935D03*
X015760Y004035D03*
X015960Y003235D03*
X006910Y006535D03*
D30*
X003910Y006410D03*
X003535Y006160D03*
X001785Y006410D03*
X001410Y006160D03*
X001785Y002910D03*
X001410Y002660D03*
X003535Y002660D03*
X003910Y002910D03*
X012410Y006535D03*
D31*
X009660Y004785D02*
X009660Y003785D01*
X009320Y003445D01*
X009320Y002440D01*
X008410Y002440D02*
X008410Y004785D01*
X008380Y004785D01*
X007986Y005111D02*
X007910Y005035D01*
X007986Y005111D02*
X007986Y006210D01*
X006910Y006035D02*
X006910Y005803D01*
X006928Y005785D01*
X006828Y005535D01*
X006910Y005617D02*
X006910Y006535D01*
D32*
X006910Y005617D02*
X006828Y005535D01*
X007986Y005111D02*
X007986Y004959D01*
X008160Y004785D01*
X008380Y004785D01*
X010410Y004535D02*
X010410Y004035D01*
X010910Y003585D02*
X010910Y005035D01*
X010810Y005135D01*
X010410Y005135D01*
X011410Y006535D02*
X012308Y005637D01*
X012308Y004975D01*
X012623Y004975D02*
X012623Y005748D01*
X013410Y006535D01*
X014060Y006085D02*
X013567Y005592D01*
X013567Y004975D01*
X012938Y004975D02*
X012938Y004363D01*
X012835Y003910D02*
X014160Y003910D01*
X014637Y004387D01*
X015100Y004387D01*
X015760Y004435D02*
X015760Y004035D01*
X016035Y003785D02*
X016660Y004410D01*
X016660Y005585D01*
X016160Y006085D01*
X016210Y006085D01*
X016410Y006285D01*
X016410Y007035D01*
X015410Y008035D01*
X016410Y008035D02*
X016910Y007535D01*
X016910Y007035D01*
X018410Y005535D01*
X018410Y004535D02*
X017910Y004035D01*
X015760Y004435D02*
X015110Y005085D01*
X015110Y005535D01*
X015110Y006085D01*
X014060Y006085D01*
X013567Y005592D02*
X013117Y005592D01*
X012938Y005413D01*
X012938Y004975D01*
X012835Y003910D02*
X012053Y003128D01*
X011720Y003128D01*
X011003Y003128D01*
X010910Y003035D01*
X010910Y002535D01*
X010810Y002435D01*
X010410Y002435D01*
X010410Y003035D02*
X010410Y003535D01*
X010910Y003585D02*
X011053Y003442D01*
X011720Y003442D01*
X012238Y002813D02*
X012960Y003535D01*
X012860Y003035D02*
X013160Y003035D01*
X012860Y003035D02*
X012323Y002498D01*
X011720Y002498D01*
X011720Y002183D02*
X012358Y002183D01*
X012623Y001998D02*
X012623Y001595D01*
X012308Y001595D02*
X012248Y001535D01*
X011810Y001535D01*
X012623Y001998D02*
X012810Y002185D01*
X013253Y001595D02*
X013253Y001278D01*
X014197Y001548D02*
X014210Y001535D01*
X014197Y001548D02*
X014197Y001595D01*
X014510Y001593D02*
X014512Y001595D01*
X015160Y001535D02*
X016410Y002785D01*
X017660Y002785D01*
X017910Y003035D01*
X015100Y002183D02*
X015098Y002185D01*
X014410Y002185D01*
X012238Y002813D02*
X011720Y002813D01*
X009320Y001410D02*
X009310Y001410D01*
X006660Y002835D02*
X006029Y002835D01*
X005910Y002954D01*
X005860Y003004D01*
X005860Y004035D01*
X005260Y004035D01*
X004445Y004850D01*
X003744Y004850D01*
X003744Y004535D02*
X004310Y004535D01*
X004910Y003935D01*
X004910Y002954D01*
X005457Y003535D01*
X005460Y003535D01*
X005913Y002985D02*
X005910Y002954D01*
X002811Y001115D02*
X002810Y001115D01*
X002810Y001060D01*
X002535Y000789D01*
X002535Y000785D01*
X011785Y007161D02*
X012410Y006535D01*
X011785Y007161D02*
X009660Y007161D01*
X015710Y006085D02*
X016160Y006085D01*
D33*
X015110Y006635D02*
X014260Y006635D01*
X014160Y006535D01*
X013410Y006535D01*
X011410Y006535D02*
X009660Y006535D01*
X007986Y006210D02*
X007986Y007459D01*
X007410Y008035D01*
X006410Y008035D02*
X006410Y006785D01*
X006010Y006385D01*
X006010Y005135D01*
X004785Y007410D02*
X003909Y007410D01*
X004785Y007410D02*
X005410Y008035D01*
X009320Y002440D02*
X009320Y001410D01*
X006660Y001785D02*
X006660Y002235D01*
D34*
X003644Y001278D02*
X003417Y001278D01*
X002990Y001705D01*
X002811Y001705D01*
X002811Y001410D02*
X002985Y001410D01*
X003432Y000963D01*
X003644Y000963D01*
X012358Y002183D02*
X012710Y002535D01*
D35*
X005292Y005385D02*
X005292Y005535D01*
X005292Y005385D02*
X004610Y005385D01*
X004390Y005165D01*
X003744Y005165D01*
D36*
X008410Y004880D02*
X008410Y004785D01*
M02*
