G75*
G70*
%OFA0B0*%
%FSLAX24Y24*%
%IPPOS*%
%LPD*%
%AMOC8*
5,1,8,0,0,1.08239X$1,22.5*
%
%ADD10C,0.0050*%
%ADD11C,0.0120*%
%ADD12C,0.0080*%
%ADD13C,0.0060*%
%ADD14C,0.0040*%
%ADD15C,0.0100*%
%ADD16R,0.0620X0.0100*%
%ADD17C,0.0067*%
D10*
X002456Y001095D02*
X002614Y001095D01*
X002614Y001725D02*
X002456Y001725D01*
X012050Y001925D02*
X012050Y004645D01*
X014650Y004645D01*
X014770Y004525D01*
X014770Y001925D01*
X012050Y001925D01*
X015310Y001910D02*
X015310Y001865D01*
X015355Y001820D01*
X015445Y001820D01*
X015490Y001775D01*
X015490Y001730D01*
X015445Y001685D01*
X015355Y001685D01*
X015310Y001730D01*
X015605Y001685D02*
X015695Y001685D01*
X015650Y001685D02*
X015650Y001955D01*
X015605Y001955D01*
X015490Y001910D02*
X015445Y001955D01*
X015355Y001955D01*
X015310Y001910D01*
X015801Y001820D02*
X015801Y001730D01*
X015846Y001685D01*
X015936Y001685D01*
X015981Y001730D01*
X015981Y001820D01*
X015936Y001865D01*
X015846Y001865D01*
X015801Y001820D01*
X016096Y001865D02*
X016096Y001730D01*
X016141Y001685D01*
X016186Y001730D01*
X016231Y001685D01*
X016276Y001730D01*
X016276Y001865D01*
X016685Y001910D02*
X016685Y001730D01*
X016730Y001685D01*
X016820Y001685D01*
X016865Y001730D01*
X016980Y001685D02*
X017070Y001685D01*
X017025Y001685D02*
X017025Y001955D01*
X016980Y001955D01*
X016865Y001910D02*
X016820Y001955D01*
X016730Y001955D01*
X016685Y001910D01*
X017176Y001820D02*
X017176Y001730D01*
X017221Y001685D01*
X017311Y001685D01*
X017356Y001730D01*
X017356Y001820D01*
X017311Y001865D01*
X017221Y001865D01*
X017176Y001820D01*
X017471Y001820D02*
X017471Y001730D01*
X017516Y001685D01*
X017651Y001685D01*
X017765Y001685D02*
X017765Y001955D01*
X017651Y001865D02*
X017516Y001865D01*
X017471Y001820D01*
X017765Y001775D02*
X017901Y001865D01*
X017765Y001775D02*
X017901Y001685D01*
X018565Y002345D02*
X018610Y002345D01*
X018655Y002390D01*
X018655Y002615D01*
X018520Y002615D01*
X018475Y002570D01*
X018475Y002480D01*
X018520Y002435D01*
X018655Y002435D01*
X018770Y002480D02*
X018770Y002570D01*
X018815Y002615D01*
X018905Y002615D01*
X018950Y002570D01*
X018950Y002525D01*
X018770Y002525D01*
X018770Y002480D02*
X018815Y002435D01*
X018905Y002435D01*
X019110Y002480D02*
X019155Y002435D01*
X019110Y002480D02*
X019110Y002660D01*
X019065Y002615D02*
X019155Y002615D01*
X019122Y002980D02*
X019212Y003070D01*
X019122Y003160D01*
X019393Y003160D01*
X019393Y003274D02*
X019393Y003364D01*
X019393Y003319D02*
X019122Y003319D01*
X019122Y003274D02*
X019122Y003364D01*
X019167Y003471D02*
X019212Y003471D01*
X019257Y003516D01*
X019257Y003606D01*
X019302Y003651D01*
X019347Y003651D01*
X019393Y003606D01*
X019393Y003516D01*
X019347Y003471D01*
X019167Y003471D02*
X019122Y003516D01*
X019122Y003606D01*
X019167Y003651D01*
X019167Y003765D02*
X019347Y003765D01*
X019393Y003810D01*
X019393Y003900D01*
X019347Y003946D01*
X019167Y003946D01*
X019122Y003900D01*
X019122Y003810D01*
X019167Y003765D01*
X019167Y004176D02*
X019212Y004176D01*
X019257Y004221D01*
X019257Y004311D01*
X019302Y004356D01*
X019347Y004356D01*
X019393Y004311D01*
X019393Y004221D01*
X019347Y004176D01*
X019167Y004176D02*
X019122Y004221D01*
X019122Y004311D01*
X019167Y004356D01*
X019167Y004471D02*
X019347Y004471D01*
X019393Y004516D01*
X019393Y004606D01*
X019347Y004651D01*
X019167Y004651D02*
X019122Y004606D01*
X019122Y004516D01*
X019167Y004471D01*
X019122Y004765D02*
X019393Y004765D01*
X019302Y004765D02*
X019122Y004946D01*
X019257Y004810D02*
X019393Y004946D01*
X019393Y005176D02*
X019122Y005176D01*
X019122Y005311D01*
X019167Y005356D01*
X019257Y005356D01*
X019302Y005311D01*
X019302Y005176D01*
X019302Y005266D02*
X019393Y005356D01*
X019347Y005471D02*
X019393Y005516D01*
X019393Y005606D01*
X019347Y005651D01*
X019302Y005651D01*
X019257Y005606D01*
X019257Y005516D01*
X019212Y005471D01*
X019167Y005471D01*
X019122Y005516D01*
X019122Y005606D01*
X019167Y005651D01*
X019122Y005765D02*
X019122Y005946D01*
X019122Y005855D02*
X019393Y005855D01*
X019023Y006035D02*
X019023Y005151D01*
X016823Y005293D02*
X016823Y005383D01*
X016777Y005428D01*
X016687Y005428D01*
X016687Y005338D01*
X016597Y005428D02*
X016552Y005383D01*
X016552Y005293D01*
X016597Y005248D01*
X016777Y005248D01*
X016823Y005293D01*
X016823Y005542D02*
X016552Y005542D01*
X016823Y005722D01*
X016552Y005722D01*
X016552Y005837D02*
X016552Y005972D01*
X016597Y006017D01*
X016777Y006017D01*
X016823Y005972D01*
X016823Y005837D01*
X016552Y005837D01*
X016552Y004972D02*
X016552Y004881D01*
X016552Y004926D02*
X016823Y004926D01*
X016823Y004881D02*
X016823Y004972D01*
X016777Y004767D02*
X016823Y004722D01*
X016823Y004632D01*
X016777Y004587D01*
X016687Y004632D02*
X016687Y004722D01*
X016732Y004767D01*
X016777Y004767D01*
X016597Y004767D02*
X016552Y004722D01*
X016552Y004632D01*
X016597Y004587D01*
X016642Y004587D01*
X016687Y004632D01*
X016597Y004472D02*
X016552Y004427D01*
X016552Y004337D01*
X016597Y004292D01*
X016777Y004292D01*
X016823Y004337D01*
X016823Y004427D01*
X016777Y004472D01*
X016597Y004472D01*
X016552Y004178D02*
X016823Y004178D01*
X016642Y004088D02*
X016552Y004178D01*
X016642Y004088D02*
X016552Y003998D01*
X016823Y003998D01*
X016777Y003767D02*
X016597Y003767D01*
X016552Y003722D01*
X016552Y003587D01*
X016823Y003587D01*
X016823Y003722D01*
X016777Y003767D01*
X016777Y003472D02*
X016597Y003472D01*
X016552Y003427D01*
X016552Y003292D01*
X016823Y003292D01*
X016823Y003427D01*
X016777Y003472D01*
X016732Y003178D02*
X016552Y003178D01*
X016732Y003178D02*
X016823Y003088D01*
X016732Y002998D01*
X016552Y002998D01*
X016560Y002705D02*
X016650Y002705D01*
X016605Y002705D02*
X016605Y002435D01*
X016560Y002435D02*
X016650Y002435D01*
X016756Y002480D02*
X016801Y002435D01*
X016892Y002435D01*
X016937Y002480D01*
X016937Y002525D01*
X016892Y002570D01*
X016801Y002570D01*
X016756Y002615D01*
X016756Y002660D01*
X016801Y002705D01*
X016892Y002705D01*
X016937Y002660D01*
X017051Y002705D02*
X017186Y002705D01*
X017231Y002660D01*
X017231Y002570D01*
X017186Y002525D01*
X017051Y002525D01*
X017051Y002435D02*
X017051Y002705D01*
X017640Y002705D02*
X017821Y002705D01*
X017730Y002705D02*
X017730Y002435D01*
X017935Y002480D02*
X017980Y002525D01*
X018115Y002525D01*
X018115Y002570D02*
X018115Y002435D01*
X017980Y002435D01*
X017935Y002480D01*
X018070Y002615D02*
X018115Y002570D01*
X018070Y002615D02*
X017980Y002615D01*
X018230Y002615D02*
X018230Y002435D01*
X018230Y002525D02*
X018320Y002615D01*
X018365Y002615D01*
X019122Y002980D02*
X019393Y002980D01*
X014349Y004365D02*
X014351Y004388D01*
X014357Y004411D01*
X014366Y004432D01*
X014379Y004452D01*
X014395Y004469D01*
X014413Y004483D01*
X014433Y004494D01*
X014455Y004502D01*
X014478Y004506D01*
X014502Y004506D01*
X014525Y004502D01*
X014547Y004494D01*
X014567Y004483D01*
X014585Y004469D01*
X014601Y004452D01*
X014614Y004432D01*
X014623Y004411D01*
X014629Y004388D01*
X014631Y004365D01*
X014629Y004342D01*
X014623Y004319D01*
X014614Y004298D01*
X014601Y004278D01*
X014585Y004261D01*
X014567Y004247D01*
X014547Y004236D01*
X014525Y004228D01*
X014502Y004224D01*
X014478Y004224D01*
X014455Y004228D01*
X014433Y004236D01*
X014413Y004247D01*
X014395Y004261D01*
X014379Y004278D01*
X014366Y004298D01*
X014357Y004319D01*
X014351Y004342D01*
X014349Y004365D01*
X015860Y007095D02*
X015905Y007095D01*
X015950Y007140D01*
X015950Y007365D01*
X015815Y007365D01*
X015770Y007320D01*
X015770Y007230D01*
X015815Y007185D01*
X015950Y007185D01*
X016064Y007185D02*
X016064Y007365D01*
X016064Y007275D02*
X016155Y007365D01*
X016200Y007365D01*
X016355Y007365D02*
X016445Y007365D01*
X016490Y007320D01*
X016490Y007185D01*
X016355Y007185D01*
X016310Y007230D01*
X016355Y007275D01*
X016490Y007275D01*
X016605Y007185D02*
X016605Y007365D01*
X016650Y007365D01*
X016695Y007320D01*
X016740Y007365D01*
X016785Y007320D01*
X016785Y007185D01*
X016695Y007185D02*
X016695Y007320D01*
X015655Y007320D02*
X015655Y007230D01*
X015610Y007185D01*
X015520Y007185D01*
X015475Y007230D01*
X015475Y007320D01*
X015520Y007365D01*
X015610Y007365D01*
X015655Y007320D01*
X015365Y007365D02*
X015320Y007365D01*
X015230Y007275D01*
X015230Y007185D02*
X015230Y007365D01*
X015115Y007320D02*
X015070Y007275D01*
X014935Y007275D01*
X014935Y007185D02*
X014935Y007455D01*
X015070Y007455D01*
X015115Y007410D01*
X015115Y007320D01*
X008977Y007900D02*
X008887Y007810D01*
X008797Y007900D01*
X008797Y008080D01*
X008682Y008035D02*
X008637Y008080D01*
X008547Y008080D01*
X008502Y008035D01*
X008592Y007945D02*
X008637Y007945D01*
X008682Y007900D01*
X008682Y007855D01*
X008637Y007810D01*
X008547Y007810D01*
X008502Y007855D01*
X008400Y007855D02*
X008400Y007810D01*
X008355Y007810D01*
X008355Y007855D01*
X008400Y007855D01*
X008240Y007855D02*
X008195Y007810D01*
X008105Y007810D01*
X008060Y007855D01*
X008150Y007945D02*
X008195Y007945D01*
X008240Y007900D01*
X008240Y007855D01*
X008195Y007945D02*
X008240Y007990D01*
X008240Y008035D01*
X008195Y008080D01*
X008105Y008080D01*
X008060Y008035D01*
X008637Y007945D02*
X008682Y007990D01*
X008682Y008035D01*
X008977Y008080D02*
X008977Y007900D01*
X007704Y007365D02*
X007614Y007365D01*
X007659Y007410D02*
X007659Y007230D01*
X007704Y007185D01*
X007499Y007185D02*
X007364Y007185D01*
X007319Y007230D01*
X007319Y007320D01*
X007364Y007365D01*
X007499Y007365D01*
X007204Y007320D02*
X007204Y007275D01*
X007024Y007275D01*
X007024Y007230D02*
X007024Y007320D01*
X007069Y007365D01*
X007159Y007365D01*
X007204Y007320D01*
X007159Y007185D02*
X007069Y007185D01*
X007024Y007230D01*
X006918Y007185D02*
X006828Y007185D01*
X006873Y007185D02*
X006873Y007455D01*
X006828Y007455D01*
X006713Y007320D02*
X006668Y007365D01*
X006578Y007365D01*
X006533Y007320D01*
X006533Y007230D01*
X006578Y007185D01*
X006668Y007185D01*
X006713Y007275D02*
X006533Y007275D01*
X006419Y007275D02*
X006419Y007230D01*
X006374Y007185D01*
X006284Y007185D01*
X006239Y007230D01*
X006284Y007320D02*
X006374Y007320D01*
X006419Y007275D01*
X006419Y007410D02*
X006374Y007455D01*
X006284Y007455D01*
X006239Y007410D01*
X006239Y007365D01*
X006284Y007320D01*
X006713Y007320D02*
X006713Y007275D01*
X005829Y007230D02*
X005829Y007410D01*
X005784Y007455D01*
X005649Y007455D01*
X005649Y007185D01*
X005784Y007185D01*
X005829Y007230D01*
X005535Y007230D02*
X005535Y007410D01*
X005490Y007455D01*
X005355Y007455D01*
X005355Y007185D01*
X005490Y007185D01*
X005535Y007230D01*
X005240Y007275D02*
X005240Y007455D01*
X005060Y007455D02*
X005060Y007275D01*
X005150Y007185D01*
X005240Y007275D01*
X004695Y007810D02*
X004785Y007900D01*
X004785Y008080D01*
X004605Y008080D02*
X004605Y007900D01*
X004695Y007810D01*
X004490Y007855D02*
X004490Y007945D01*
X004445Y007990D01*
X004400Y007990D01*
X004310Y007945D01*
X004310Y008080D01*
X004490Y008080D01*
X004490Y007855D02*
X004445Y007810D01*
X004355Y007810D01*
X004310Y007855D01*
D11*
X010270Y008025D02*
X010270Y008155D01*
X010271Y008191D01*
X010275Y008227D01*
X010283Y008263D01*
X010294Y008297D01*
X010309Y008331D01*
X010327Y008362D01*
X010348Y008392D01*
X010371Y008419D01*
X010398Y008445D01*
X010426Y008467D01*
X010457Y008486D01*
X010489Y008503D01*
X010523Y008516D01*
X010558Y008526D01*
X010594Y008532D01*
X010630Y008535D01*
X014250Y008535D01*
X014286Y008532D01*
X014322Y008526D01*
X014357Y008516D01*
X014391Y008503D01*
X014423Y008486D01*
X014454Y008467D01*
X014482Y008445D01*
X014509Y008419D01*
X014532Y008392D01*
X014553Y008362D01*
X014571Y008331D01*
X014586Y008297D01*
X014597Y008263D01*
X014605Y008227D01*
X014609Y008191D01*
X014610Y008155D01*
X014610Y008045D01*
X014609Y008045D02*
X014610Y008008D01*
X014606Y007971D01*
X014599Y007934D01*
X014588Y007898D01*
X014574Y007864D01*
X014557Y007831D01*
X014536Y007800D01*
X014512Y007771D01*
X014486Y007744D01*
X014457Y007721D01*
X014426Y007700D01*
X014394Y007682D01*
X014359Y007668D01*
X014324Y007657D01*
X014287Y007649D01*
X014250Y007646D01*
X014250Y007645D02*
X010630Y007645D01*
X010594Y007648D01*
X010558Y007654D01*
X010523Y007664D01*
X010489Y007677D01*
X010457Y007694D01*
X010426Y007713D01*
X010398Y007735D01*
X010371Y007761D01*
X010348Y007788D01*
X010327Y007818D01*
X010309Y007849D01*
X010294Y007883D01*
X010283Y007917D01*
X010275Y007953D01*
X010271Y007989D01*
X010270Y008025D01*
D12*
X010565Y008135D02*
X010688Y008135D01*
X010841Y008073D02*
X010965Y008197D01*
X011026Y008197D01*
X011187Y008135D02*
X011248Y008197D01*
X011372Y008197D01*
X011433Y008135D01*
X011433Y008073D01*
X011187Y008073D01*
X011187Y008012D02*
X011187Y008135D01*
X011187Y008012D02*
X011248Y007950D01*
X011372Y007950D01*
X011601Y008012D02*
X011601Y008135D01*
X011663Y008197D01*
X011786Y008197D01*
X011848Y008135D01*
X011848Y008073D01*
X011601Y008073D01*
X011601Y008012D02*
X011663Y007950D01*
X011786Y007950D01*
X012077Y008012D02*
X012139Y007950D01*
X012077Y008012D02*
X012077Y008259D01*
X012015Y008197D02*
X012139Y008197D01*
X012291Y008197D02*
X012291Y007950D01*
X012291Y008073D02*
X012415Y008197D01*
X012477Y008197D01*
X012637Y008135D02*
X012637Y008012D01*
X012698Y007950D01*
X012822Y007950D01*
X012884Y008012D01*
X012884Y008135D01*
X012822Y008197D01*
X012698Y008197D01*
X012637Y008135D01*
X013051Y008197D02*
X013051Y007950D01*
X013298Y007950D02*
X013298Y008135D01*
X013236Y008197D01*
X013051Y008197D01*
X013465Y008197D02*
X013527Y008197D01*
X013527Y007950D01*
X013465Y007950D02*
X013589Y007950D01*
X013742Y008012D02*
X013803Y007950D01*
X013989Y007950D01*
X014156Y007950D02*
X014341Y007950D01*
X014403Y008012D01*
X014341Y008073D01*
X014218Y008073D01*
X014156Y008135D01*
X014218Y008197D01*
X014403Y008197D01*
X013989Y008197D02*
X013803Y008197D01*
X013742Y008135D01*
X013742Y008012D01*
X013527Y008320D02*
X013527Y008382D01*
X014910Y008285D02*
X014910Y007785D01*
X015160Y007535D01*
X015660Y007535D01*
X015910Y007785D01*
X016160Y007535D01*
X016660Y007535D01*
X016910Y007785D01*
X016910Y008285D01*
X016660Y008535D01*
X016160Y008535D01*
X015910Y008285D01*
X015660Y008535D01*
X015160Y008535D01*
X014910Y008285D01*
X013760Y007435D02*
X011060Y007435D01*
X010841Y007950D02*
X010841Y008197D01*
X010688Y008320D02*
X010627Y008259D01*
X010627Y007950D01*
X007910Y007785D02*
X007660Y007535D01*
X007160Y007535D01*
X006910Y007785D01*
X006660Y007535D01*
X006160Y007535D01*
X005910Y007785D01*
X005660Y007535D01*
X005160Y007535D01*
X004910Y007785D01*
X004910Y008285D01*
X005160Y008535D01*
X005660Y008535D01*
X005910Y008285D01*
X006160Y008535D01*
X006660Y008535D01*
X006910Y008285D01*
X007160Y008535D01*
X007660Y008535D01*
X007910Y008285D01*
X007910Y007785D01*
X011060Y007435D02*
X011001Y007433D01*
X010943Y007427D01*
X010884Y007418D01*
X010827Y007404D01*
X010771Y007387D01*
X010716Y007366D01*
X010662Y007342D01*
X010610Y007314D01*
X010560Y007283D01*
X010512Y007249D01*
X010467Y007212D01*
X010424Y007171D01*
X010383Y007128D01*
X010346Y007083D01*
X010312Y007035D01*
X010281Y006985D01*
X010253Y006933D01*
X010229Y006879D01*
X010208Y006824D01*
X010191Y006768D01*
X010177Y006711D01*
X010168Y006652D01*
X010162Y006594D01*
X010160Y006535D01*
X010162Y006476D01*
X010168Y006418D01*
X010177Y006359D01*
X010191Y006302D01*
X010208Y006246D01*
X010229Y006191D01*
X010253Y006137D01*
X010281Y006085D01*
X010312Y006035D01*
X010346Y005987D01*
X010383Y005942D01*
X010424Y005899D01*
X010467Y005858D01*
X010512Y005821D01*
X010560Y005787D01*
X010610Y005756D01*
X010662Y005728D01*
X010716Y005704D01*
X010771Y005683D01*
X010827Y005666D01*
X010884Y005652D01*
X010943Y005643D01*
X011001Y005637D01*
X011060Y005635D01*
X013760Y005635D01*
X013819Y005637D01*
X013877Y005643D01*
X013936Y005652D01*
X013993Y005666D01*
X014049Y005683D01*
X014104Y005704D01*
X014158Y005728D01*
X014210Y005756D01*
X014260Y005787D01*
X014308Y005821D01*
X014353Y005858D01*
X014396Y005899D01*
X014437Y005942D01*
X014474Y005987D01*
X014508Y006035D01*
X014539Y006085D01*
X014567Y006137D01*
X014591Y006191D01*
X014612Y006246D01*
X014629Y006302D01*
X014643Y006359D01*
X014652Y006418D01*
X014658Y006476D01*
X014660Y006535D01*
X014658Y006594D01*
X014652Y006652D01*
X014643Y006711D01*
X014629Y006768D01*
X014612Y006824D01*
X014591Y006879D01*
X014567Y006933D01*
X014539Y006985D01*
X014508Y007035D01*
X014474Y007083D01*
X014437Y007128D01*
X014396Y007171D01*
X014353Y007212D01*
X014308Y007249D01*
X014260Y007283D01*
X014210Y007314D01*
X014158Y007342D01*
X014104Y007366D01*
X014049Y007387D01*
X013993Y007404D01*
X013936Y007418D01*
X013877Y007427D01*
X013819Y007433D01*
X013760Y007435D01*
X009700Y004360D02*
X007120Y004360D01*
X007120Y002960D01*
X009700Y002960D01*
X009700Y004360D01*
X005910Y002482D02*
X005713Y002088D01*
X006107Y002088D01*
X005910Y002482D01*
X005107Y002088D02*
X004713Y002088D01*
X004910Y002482D01*
X005107Y002088D01*
X003075Y003039D02*
X002248Y003039D01*
X004059Y003315D02*
X004059Y003669D01*
X004059Y005401D02*
X004059Y005755D01*
X003075Y006031D02*
X002248Y006031D01*
X015535Y001285D02*
X015535Y000785D01*
X015785Y000535D01*
X016285Y000535D01*
X016535Y000785D01*
X016785Y000535D01*
X017285Y000535D01*
X017535Y000785D01*
X017535Y001285D01*
X017285Y001535D01*
X016785Y001535D01*
X016535Y001285D01*
X016285Y001535D01*
X015785Y001535D01*
X015535Y001285D01*
D13*
X011971Y000935D02*
X011911Y000935D01*
X011790Y000815D01*
X011790Y000695D02*
X011790Y000935D01*
X011644Y000875D02*
X011644Y000815D01*
X011404Y000815D01*
X011404Y000755D02*
X011404Y000875D01*
X011464Y000935D01*
X011584Y000935D01*
X011644Y000875D01*
X011584Y000695D02*
X011464Y000695D01*
X011404Y000755D01*
X011257Y000695D02*
X011257Y000875D01*
X011197Y000935D01*
X011137Y000875D01*
X011137Y000695D01*
X011017Y000695D02*
X011017Y000935D01*
X011077Y000935D01*
X011137Y000875D01*
X010871Y000875D02*
X010810Y000935D01*
X010750Y000875D01*
X010750Y000695D01*
X010630Y000695D02*
X010630Y000935D01*
X010690Y000935D01*
X010750Y000875D01*
X010871Y000875D02*
X010871Y000695D01*
X010484Y000695D02*
X010484Y000875D01*
X010424Y000935D01*
X010304Y000935D01*
X010304Y000815D02*
X010484Y000815D01*
X010304Y000815D02*
X010244Y000755D01*
X010304Y000695D01*
X010484Y000695D01*
X010101Y000935D02*
X010041Y000935D01*
X009921Y000815D01*
X009921Y000695D02*
X009921Y000935D01*
X009775Y000935D02*
X009595Y000935D01*
X009535Y000875D01*
X009535Y000755D01*
X009595Y000695D01*
X009775Y000695D01*
X009775Y000635D02*
X009775Y000935D01*
X009388Y000875D02*
X009388Y000755D01*
X009328Y000695D01*
X009208Y000695D01*
X009148Y000755D01*
X009148Y000875D01*
X009208Y000935D01*
X009328Y000935D01*
X009388Y000875D01*
X009006Y000935D02*
X008946Y000935D01*
X008826Y000815D01*
X008826Y000695D02*
X008826Y000935D01*
X008679Y000875D02*
X008619Y000815D01*
X008439Y000815D01*
X008679Y000875D02*
X008679Y000995D01*
X008619Y001055D01*
X008439Y001055D01*
X008439Y000695D01*
X007906Y000695D02*
X007785Y000815D01*
X007846Y000815D02*
X007665Y000815D01*
X007519Y000815D02*
X007519Y001055D01*
X007665Y001055D02*
X007846Y001055D01*
X007906Y000995D01*
X007906Y000875D01*
X007846Y000815D01*
X007665Y000695D02*
X007665Y001055D01*
X007519Y000815D02*
X007399Y000695D01*
X007279Y000815D01*
X007279Y001055D01*
X007132Y000935D02*
X007132Y000695D01*
X006892Y000695D02*
X006892Y000935D01*
X007012Y001055D01*
X007132Y000935D01*
X007132Y000875D02*
X006892Y000875D01*
X006359Y000815D02*
X006359Y000755D01*
X006299Y000695D01*
X006118Y000695D01*
X006118Y001055D01*
X006299Y001055D01*
X006359Y000995D01*
X006359Y000935D01*
X006299Y000875D01*
X006118Y000875D01*
X005972Y000815D02*
X005972Y000755D01*
X005912Y000695D01*
X005792Y000695D01*
X005732Y000755D01*
X005792Y000875D02*
X005912Y000875D01*
X005972Y000815D01*
X005792Y000875D02*
X005732Y000935D01*
X005732Y000995D01*
X005792Y001055D01*
X005912Y001055D01*
X005972Y000995D01*
X006299Y000875D02*
X006359Y000815D01*
X005585Y000755D02*
X005525Y000695D01*
X005405Y000695D01*
X005345Y000755D01*
X005345Y001055D01*
X005585Y001055D02*
X005585Y000755D01*
X009655Y000575D02*
X009715Y000575D01*
X009775Y000635D01*
X016910Y003285D02*
X016910Y003785D01*
X017160Y004035D01*
X016910Y004285D01*
X016910Y004785D01*
X017160Y005035D01*
X016910Y005285D01*
X016910Y005785D01*
X017160Y006035D01*
X018660Y006035D01*
X018910Y005785D01*
X018910Y005285D01*
X018660Y005035D01*
X018910Y004785D01*
X018910Y004285D01*
X018660Y004035D01*
X018910Y003785D01*
X018910Y003285D01*
X018660Y003035D01*
X017160Y003035D01*
X016910Y003285D01*
D14*
X002191Y002108D02*
X002191Y002071D01*
X002044Y002071D01*
X002044Y002108D02*
X002081Y002144D01*
X002154Y002144D01*
X002191Y002108D01*
X002154Y001998D02*
X002081Y001998D01*
X002044Y002034D01*
X002044Y002108D01*
X001951Y002144D02*
X001878Y001998D01*
X001805Y002144D01*
X001682Y002144D02*
X001682Y001998D01*
X001718Y001998D02*
X001645Y001998D01*
X001559Y001998D02*
X001522Y002034D01*
X001522Y002181D01*
X001485Y002144D02*
X001559Y002144D01*
X001645Y002144D02*
X001682Y002144D01*
X001682Y002218D02*
X001682Y002254D01*
X001393Y002144D02*
X001283Y002144D01*
X001246Y002108D01*
X001246Y002034D01*
X001283Y001998D01*
X001393Y001998D01*
X001153Y001998D02*
X001153Y002144D01*
X001080Y002218D01*
X001007Y002144D01*
X001007Y001998D01*
X000924Y001998D02*
X000887Y001998D01*
X000887Y002034D01*
X000924Y002034D01*
X000924Y001998D01*
X000924Y002108D02*
X000887Y002108D01*
X000887Y002144D01*
X000924Y002144D01*
X000924Y002108D01*
X001007Y002108D02*
X001153Y002108D01*
X000794Y002108D02*
X000794Y002034D01*
X000758Y001998D01*
X000684Y001998D01*
X000648Y002034D01*
X000648Y002181D01*
X000684Y002218D01*
X000758Y002218D01*
X000794Y002181D01*
X000794Y002108D02*
X000721Y002108D01*
X000758Y001843D02*
X000794Y001806D01*
X000794Y001769D01*
X000758Y001733D01*
X000648Y001733D01*
X000758Y001733D02*
X000794Y001696D01*
X000794Y001659D01*
X000758Y001623D01*
X000648Y001623D01*
X000648Y001843D01*
X000758Y001843D01*
X000887Y001769D02*
X000887Y001733D01*
X000924Y001733D01*
X000924Y001769D01*
X000887Y001769D01*
X000887Y001659D02*
X000887Y001623D01*
X000924Y001623D01*
X000924Y001659D01*
X000887Y001659D01*
X001007Y001623D02*
X001007Y001843D01*
X001117Y001843D01*
X001153Y001806D01*
X001153Y001733D01*
X001117Y001696D01*
X001007Y001696D01*
X001246Y001733D02*
X001246Y001659D01*
X001283Y001623D01*
X001356Y001623D01*
X001393Y001659D01*
X001393Y001733D01*
X001356Y001769D01*
X001283Y001769D01*
X001246Y001733D01*
X001485Y001769D02*
X001485Y001659D01*
X001522Y001623D01*
X001559Y001659D01*
X001596Y001623D01*
X001632Y001659D01*
X001632Y001769D01*
X001725Y001733D02*
X001762Y001769D01*
X001835Y001769D01*
X001872Y001733D01*
X001872Y001696D01*
X001725Y001696D01*
X001725Y001659D02*
X001725Y001733D01*
X001725Y001659D02*
X001762Y001623D01*
X001835Y001623D01*
X001964Y001623D02*
X001964Y001769D01*
X001964Y001696D02*
X002038Y001769D01*
X002074Y001769D01*
X001482Y001504D02*
X001482Y001468D01*
X001482Y001394D02*
X001482Y001248D01*
X001446Y001248D02*
X001519Y001248D01*
X001642Y001284D02*
X001679Y001248D01*
X001642Y001284D02*
X001642Y001431D01*
X001605Y001394D02*
X001679Y001394D01*
X001765Y001358D02*
X001801Y001394D01*
X001875Y001394D01*
X001912Y001358D01*
X001912Y001321D01*
X001765Y001321D01*
X001765Y001284D02*
X001765Y001358D01*
X001765Y001284D02*
X001801Y001248D01*
X001875Y001248D01*
X001482Y001394D02*
X001446Y001394D01*
X001356Y001394D02*
X001319Y001394D01*
X001246Y001321D01*
X001246Y001248D02*
X001246Y001394D01*
X001153Y001468D02*
X001153Y001248D01*
X001080Y001321D01*
X001007Y001248D01*
X001007Y001468D01*
X000924Y001394D02*
X000924Y001358D01*
X000887Y001358D01*
X000887Y001394D01*
X000924Y001394D01*
X000924Y001284D02*
X000924Y001248D01*
X000887Y001248D01*
X000887Y001284D01*
X000924Y001284D01*
X000794Y001248D02*
X000721Y001321D01*
X000758Y001321D02*
X000648Y001321D01*
X000648Y001248D02*
X000648Y001468D01*
X000758Y001468D01*
X000794Y001431D01*
X000794Y001358D01*
X000758Y001321D01*
D15*
X006560Y002485D02*
X006560Y002585D01*
X006760Y002585D02*
X006760Y002485D01*
X008960Y001510D02*
X009060Y001510D01*
X009060Y001310D02*
X008960Y001310D01*
X010885Y001310D02*
X010985Y001310D01*
X010985Y001510D02*
X010885Y001510D01*
X010510Y002685D02*
X010510Y002785D01*
X010310Y002785D02*
X010310Y002685D01*
X010310Y004785D02*
X010310Y004885D01*
X010510Y004885D02*
X010510Y004785D01*
X009760Y006185D02*
X009760Y006285D01*
X009560Y006285D02*
X009560Y006185D01*
X015360Y006185D02*
X015460Y006185D01*
X015460Y005985D02*
X015360Y005985D01*
X015360Y005635D02*
X015460Y005635D01*
X015460Y005435D02*
X015360Y005435D01*
X015360Y006535D02*
X015460Y006535D01*
X015460Y006735D02*
X015360Y006735D01*
D16*
X005910Y002485D03*
X004910Y002485D03*
D17*
X002780Y000906D02*
X002782Y000917D01*
X002787Y000926D01*
X002795Y000933D01*
X002806Y000937D01*
X002816Y000937D01*
X002826Y000933D01*
X002835Y000926D01*
X002840Y000917D01*
X002842Y000906D01*
X002840Y000895D01*
X002835Y000886D01*
X002827Y000879D01*
X002816Y000875D01*
X002806Y000875D01*
X002795Y000879D01*
X002787Y000886D01*
X002782Y000895D01*
X002780Y000906D01*
M02*
