G75*
G70*
%OFA0B0*%
%FSLAX24Y24*%
%IPPOS*%
%LPD*%
%AMOC8*
5,1,8,0,0,1.08239X$1,22.5*
%
%ADD10C,0.0000*%
%ADD11R,0.0300X0.0300*%
%ADD12C,0.0520*%
%ADD13C,0.0740*%
%ADD14R,0.0984X0.0197*%
%ADD15R,0.0984X0.0787*%
%ADD16R,0.0327X0.0248*%
%ADD17R,0.0748X0.1339*%
%ADD18C,0.0660*%
%ADD19R,0.0480X0.0880*%
%ADD20R,0.1417X0.0866*%
%ADD21R,0.0512X0.0591*%
%ADD22R,0.0236X0.0197*%
%ADD23R,0.0236X0.0236*%
%ADD24R,0.0256X0.0197*%
%ADD25C,0.0760*%
%ADD26R,0.0220X0.0500*%
%ADD27R,0.0500X0.0220*%
%ADD28C,0.0120*%
%ADD29C,0.0317*%
%ADD30C,0.0396*%
%ADD31C,0.0400*%
%ADD32C,0.0240*%
%ADD33C,0.0160*%
%ADD34C,0.0100*%
%ADD35C,0.0180*%
D10*
X001910Y000410D02*
X018660Y000410D01*
X018736Y000412D01*
X018812Y000418D01*
X018887Y000427D01*
X018962Y000441D01*
X019036Y000458D01*
X019109Y000479D01*
X019181Y000503D01*
X019252Y000532D01*
X019321Y000563D01*
X019388Y000598D01*
X019453Y000637D01*
X019517Y000679D01*
X019578Y000724D01*
X019637Y000772D01*
X019693Y000823D01*
X019747Y000877D01*
X019798Y000933D01*
X019846Y000992D01*
X019891Y001053D01*
X019933Y001117D01*
X019972Y001182D01*
X020007Y001249D01*
X020038Y001318D01*
X020067Y001389D01*
X020091Y001461D01*
X020112Y001534D01*
X020129Y001608D01*
X020143Y001683D01*
X020152Y001758D01*
X020158Y001834D01*
X020160Y001910D01*
X020160Y007160D01*
X020158Y007236D01*
X020152Y007312D01*
X020143Y007387D01*
X020129Y007462D01*
X020112Y007536D01*
X020091Y007609D01*
X020067Y007681D01*
X020038Y007752D01*
X020007Y007821D01*
X019972Y007888D01*
X019933Y007953D01*
X019891Y008017D01*
X019846Y008078D01*
X019798Y008137D01*
X019747Y008193D01*
X019693Y008247D01*
X019637Y008298D01*
X019578Y008346D01*
X019517Y008391D01*
X019453Y008433D01*
X019388Y008472D01*
X019321Y008507D01*
X019252Y008538D01*
X019181Y008567D01*
X019109Y008591D01*
X019036Y008612D01*
X018962Y008629D01*
X018887Y008643D01*
X018812Y008652D01*
X018736Y008658D01*
X018660Y008660D01*
X001910Y008660D01*
X001834Y008658D01*
X001758Y008652D01*
X001683Y008643D01*
X001608Y008629D01*
X001534Y008612D01*
X001461Y008591D01*
X001389Y008567D01*
X001318Y008538D01*
X001249Y008507D01*
X001182Y008472D01*
X001117Y008433D01*
X001053Y008391D01*
X000992Y008346D01*
X000933Y008298D01*
X000877Y008247D01*
X000823Y008193D01*
X000772Y008137D01*
X000724Y008078D01*
X000679Y008017D01*
X000637Y007953D01*
X000598Y007888D01*
X000563Y007821D01*
X000532Y007752D01*
X000503Y007681D01*
X000479Y007609D01*
X000458Y007536D01*
X000441Y007462D01*
X000427Y007387D01*
X000418Y007312D01*
X000412Y007236D01*
X000410Y007160D01*
X000410Y001910D01*
X000412Y001834D01*
X000418Y001758D01*
X000427Y001683D01*
X000441Y001608D01*
X000458Y001534D01*
X000479Y001461D01*
X000503Y001389D01*
X000532Y001318D01*
X000563Y001249D01*
X000598Y001182D01*
X000637Y001117D01*
X000679Y001053D01*
X000724Y000992D01*
X000772Y000933D01*
X000823Y000877D01*
X000877Y000823D01*
X000933Y000772D01*
X000992Y000724D01*
X001053Y000679D01*
X001117Y000637D01*
X001182Y000598D01*
X001249Y000563D01*
X001318Y000532D01*
X001389Y000503D01*
X001461Y000479D01*
X001534Y000458D01*
X001608Y000441D01*
X001683Y000427D01*
X001758Y000418D01*
X001834Y000412D01*
X001910Y000410D01*
X002583Y003669D02*
X002585Y003695D01*
X002591Y003721D01*
X002601Y003746D01*
X002614Y003769D01*
X002630Y003789D01*
X002650Y003807D01*
X002672Y003822D01*
X002695Y003834D01*
X002721Y003842D01*
X002747Y003846D01*
X002773Y003846D01*
X002799Y003842D01*
X002825Y003834D01*
X002849Y003822D01*
X002870Y003807D01*
X002890Y003789D01*
X002906Y003769D01*
X002919Y003746D01*
X002929Y003721D01*
X002935Y003695D01*
X002937Y003669D01*
X002935Y003643D01*
X002929Y003617D01*
X002919Y003592D01*
X002906Y003569D01*
X002890Y003549D01*
X002870Y003531D01*
X002848Y003516D01*
X002825Y003504D01*
X002799Y003496D01*
X002773Y003492D01*
X002747Y003492D01*
X002721Y003496D01*
X002695Y003504D01*
X002671Y003516D01*
X002650Y003531D01*
X002630Y003549D01*
X002614Y003569D01*
X002601Y003592D01*
X002591Y003617D01*
X002585Y003643D01*
X002583Y003669D01*
X002583Y005401D02*
X002585Y005427D01*
X002591Y005453D01*
X002601Y005478D01*
X002614Y005501D01*
X002630Y005521D01*
X002650Y005539D01*
X002672Y005554D01*
X002695Y005566D01*
X002721Y005574D01*
X002747Y005578D01*
X002773Y005578D01*
X002799Y005574D01*
X002825Y005566D01*
X002849Y005554D01*
X002870Y005539D01*
X002890Y005521D01*
X002906Y005501D01*
X002919Y005478D01*
X002929Y005453D01*
X002935Y005427D01*
X002937Y005401D01*
X002935Y005375D01*
X002929Y005349D01*
X002919Y005324D01*
X002906Y005301D01*
X002890Y005281D01*
X002870Y005263D01*
X002848Y005248D01*
X002825Y005236D01*
X002799Y005228D01*
X002773Y005224D01*
X002747Y005224D01*
X002721Y005228D01*
X002695Y005236D01*
X002671Y005248D01*
X002650Y005263D01*
X002630Y005281D01*
X002614Y005301D01*
X002601Y005324D01*
X002591Y005349D01*
X002585Y005375D01*
X002583Y005401D01*
D11*
X006660Y002835D03*
X006660Y002235D03*
X008710Y001410D03*
X009310Y001410D03*
X010635Y001410D03*
X011235Y001410D03*
X010410Y002435D03*
X010410Y003035D03*
X010410Y004535D03*
X010410Y005135D03*
X009660Y005935D03*
X009660Y006535D03*
X015110Y006635D03*
X015710Y006635D03*
X015710Y006085D03*
X015110Y006085D03*
X015110Y005535D03*
X015710Y005535D03*
D12*
X013410Y006535D03*
X011410Y006535D03*
D13*
X016410Y007285D03*
X017410Y007285D03*
X017410Y001785D03*
X016410Y001785D03*
D14*
X003744Y003905D03*
X003744Y004220D03*
X003744Y004535D03*
X003744Y004850D03*
X003744Y005165D03*
D15*
X003744Y006307D03*
X001579Y006307D03*
X001579Y002763D03*
X003744Y002763D03*
D16*
X004910Y002988D03*
X005910Y002988D03*
X005910Y002082D03*
X004910Y002082D03*
D17*
X005292Y005535D03*
X006828Y005535D03*
D18*
X017410Y005535D03*
X018410Y005535D03*
X018410Y004535D03*
X017410Y004535D03*
X017410Y003535D03*
X018410Y003535D03*
D19*
X009320Y002315D03*
X008410Y002315D03*
X007500Y002315D03*
D20*
X008410Y004755D03*
D21*
X008734Y005835D03*
X007986Y005835D03*
D22*
X002811Y001705D03*
X002259Y001705D03*
X002259Y001115D03*
X002811Y001115D03*
D23*
X002811Y001410D03*
X002259Y001410D03*
D24*
X003644Y001278D03*
X003644Y001592D03*
X004176Y001592D03*
X004176Y001278D03*
X004176Y000963D03*
X003644Y000963D03*
X003644Y001907D03*
X004176Y001907D03*
D25*
X005410Y007285D03*
X006410Y007285D03*
X007410Y007285D03*
D26*
X012308Y004975D03*
X012623Y004975D03*
X012938Y004975D03*
X013253Y004975D03*
X013567Y004975D03*
X013882Y004975D03*
X014197Y004975D03*
X014512Y004975D03*
X014512Y001595D03*
X014197Y001595D03*
X013882Y001595D03*
X013567Y001595D03*
X013253Y001595D03*
X012938Y001595D03*
X012623Y001595D03*
X012308Y001595D03*
D27*
X011720Y002183D03*
X011720Y002498D03*
X011720Y002813D03*
X011720Y003128D03*
X011720Y003442D03*
X011720Y003757D03*
X011720Y004072D03*
X011720Y004387D03*
X015100Y004387D03*
X015100Y004072D03*
X015100Y003757D03*
X015100Y003442D03*
X015100Y003128D03*
X015100Y002813D03*
X015100Y002498D03*
X015100Y002183D03*
D28*
X001428Y000746D02*
X001143Y000910D01*
X000910Y001143D01*
X000746Y001428D01*
X000661Y001746D01*
X000650Y001910D01*
X000650Y007160D01*
X000661Y007324D01*
X000746Y007642D01*
X000910Y007927D01*
X001143Y008160D01*
X001428Y008324D01*
X001746Y008409D01*
X001910Y008420D01*
X018660Y008420D01*
X018824Y008409D01*
X019142Y008324D01*
X019427Y008160D01*
X019660Y007927D01*
X019824Y007642D01*
X019909Y007324D01*
X019920Y007160D01*
X019920Y001910D01*
X019909Y001746D01*
X019824Y001428D01*
X019660Y001143D01*
X019427Y000910D01*
X019142Y000746D01*
X018824Y000661D01*
X018660Y000650D01*
X014458Y000650D01*
X014593Y000785D01*
X014710Y000902D01*
X014710Y001206D01*
X014782Y001279D01*
X014782Y001911D01*
X014729Y001965D01*
X014731Y001965D01*
X014784Y001913D01*
X015227Y001913D01*
X015168Y001854D01*
X015097Y001854D01*
X014979Y001805D01*
X014890Y001716D01*
X014841Y001598D01*
X014841Y001472D01*
X014890Y001354D01*
X014979Y001265D01*
X015097Y001216D01*
X015223Y001216D01*
X015341Y001265D01*
X015430Y001354D01*
X015479Y001472D01*
X015479Y001543D01*
X015918Y001982D01*
X015880Y001890D01*
X015880Y001680D01*
X015961Y001485D01*
X016110Y001336D01*
X016305Y001255D01*
X016515Y001255D01*
X016710Y001336D01*
X016859Y001485D01*
X016910Y001608D01*
X016919Y001582D01*
X016957Y001507D01*
X017006Y001440D01*
X017065Y001381D01*
X017132Y001332D01*
X017207Y001294D01*
X017286Y001268D01*
X017368Y001255D01*
X017370Y001255D01*
X017370Y001745D01*
X017450Y001745D01*
X017450Y001825D01*
X017370Y001825D01*
X017370Y002315D01*
X017368Y002315D01*
X017286Y002302D01*
X017207Y002276D01*
X017132Y002238D01*
X017065Y002189D01*
X017006Y002130D01*
X016957Y002063D01*
X016919Y001988D01*
X016910Y001962D01*
X016859Y002085D01*
X016710Y002234D01*
X016515Y002315D01*
X016305Y002315D01*
X016213Y002277D01*
X016501Y002565D01*
X017751Y002565D01*
X018130Y002944D01*
X018130Y003122D01*
X018132Y003120D01*
X018313Y003045D01*
X018507Y003045D01*
X018688Y003120D01*
X018825Y003257D01*
X018900Y003438D01*
X018900Y003632D01*
X018825Y003813D01*
X018688Y003950D01*
X018507Y004025D01*
X018313Y004025D01*
X018139Y003953D01*
X018255Y004069D01*
X018313Y004045D01*
X018507Y004045D01*
X018688Y004120D01*
X018825Y004257D01*
X018900Y004438D01*
X018900Y004632D01*
X018825Y004813D01*
X018688Y004950D01*
X018507Y005025D01*
X018313Y005025D01*
X018132Y004950D01*
X017995Y004813D01*
X017920Y004632D01*
X017920Y004438D01*
X017944Y004380D01*
X017828Y004264D01*
X017900Y004438D01*
X017900Y004632D01*
X017825Y004813D01*
X017688Y004950D01*
X017507Y005025D01*
X017313Y005025D01*
X017132Y004950D01*
X016995Y004813D01*
X016920Y004632D01*
X016920Y004438D01*
X016995Y004257D01*
X017132Y004120D01*
X017313Y004045D01*
X017507Y004045D01*
X017688Y004120D01*
X017690Y004122D01*
X017690Y003948D01*
X017688Y003950D01*
X017507Y004025D01*
X017313Y004025D01*
X017132Y003950D01*
X016995Y003813D01*
X016962Y003735D01*
X016296Y003735D01*
X016880Y004319D01*
X016880Y005676D01*
X016496Y006060D01*
X016630Y006194D01*
X016630Y006802D01*
X016710Y006836D01*
X016859Y006985D01*
X016910Y007107D01*
X016961Y006985D01*
X017110Y006836D01*
X017190Y006802D01*
X017190Y006444D01*
X017714Y005920D01*
X017667Y005954D01*
X017598Y005989D01*
X017525Y006013D01*
X017449Y006025D01*
X017448Y006025D01*
X017448Y005573D01*
X017900Y005573D01*
X017900Y005574D01*
X017888Y005650D01*
X017864Y005723D01*
X017829Y005792D01*
X017795Y005839D01*
X017944Y005690D01*
X017920Y005632D01*
X017920Y005438D01*
X017995Y005257D01*
X018132Y005120D01*
X018313Y005045D01*
X018507Y005045D01*
X018688Y005120D01*
X018825Y005257D01*
X018900Y005438D01*
X018900Y005632D01*
X018825Y005813D01*
X018688Y005950D01*
X018507Y006025D01*
X018313Y006025D01*
X018255Y006001D01*
X017630Y006626D01*
X017630Y006802D01*
X017710Y006836D01*
X017859Y006985D01*
X017940Y007180D01*
X017940Y007390D01*
X017859Y007585D01*
X017710Y007734D01*
X017515Y007815D01*
X017305Y007815D01*
X017110Y007734D01*
X016961Y007585D01*
X016910Y007463D01*
X016859Y007585D01*
X016710Y007734D01*
X016515Y007815D01*
X016305Y007815D01*
X016110Y007734D01*
X015961Y007585D01*
X015880Y007390D01*
X015880Y007180D01*
X015961Y006985D01*
X016110Y006836D01*
X016190Y006802D01*
X016190Y006376D01*
X016119Y006305D01*
X016016Y006305D01*
X015961Y006360D01*
X015988Y006387D01*
X016009Y006423D01*
X016020Y006464D01*
X016020Y006620D01*
X015725Y006620D01*
X015725Y006650D01*
X015695Y006650D01*
X015695Y006945D01*
X015539Y006945D01*
X015498Y006934D01*
X015462Y006913D01*
X015432Y006883D01*
X015416Y006855D01*
X015326Y006945D01*
X014894Y006945D01*
X014844Y006895D01*
X014208Y006895D01*
X014113Y006855D01*
X014052Y006795D01*
X013744Y006795D01*
X013648Y006891D01*
X013494Y006955D01*
X013326Y006955D01*
X013172Y006891D01*
X013054Y006773D01*
X012990Y006619D01*
X012990Y006451D01*
X012997Y006434D01*
X012531Y005968D01*
X012410Y005846D01*
X012399Y005857D01*
X011823Y006434D01*
X011830Y006451D01*
X011830Y006619D01*
X011766Y006773D01*
X011648Y006891D01*
X011494Y006955D01*
X011326Y006955D01*
X011172Y006891D01*
X011054Y006773D01*
X011047Y006755D01*
X009966Y006755D01*
X009876Y006845D01*
X009444Y006845D01*
X009350Y006751D01*
X009350Y006319D01*
X009440Y006229D01*
X009412Y006213D01*
X009382Y006183D01*
X009361Y006147D01*
X009350Y006106D01*
X009350Y005950D01*
X009645Y005950D01*
X009645Y005920D01*
X009675Y005920D01*
X009675Y005950D01*
X009970Y005950D01*
X009970Y006106D01*
X009959Y006147D01*
X009938Y006183D01*
X009908Y006213D01*
X009880Y006229D01*
X009966Y006315D01*
X011047Y006315D01*
X011054Y006297D01*
X011172Y006179D01*
X011326Y006115D01*
X011494Y006115D01*
X011511Y006122D01*
X012088Y005546D01*
X012088Y005341D01*
X012038Y005291D01*
X012038Y004659D01*
X012131Y004565D01*
X012689Y004565D01*
X012667Y004543D01*
X012619Y004426D01*
X012619Y004299D01*
X012667Y004182D01*
X012732Y004118D01*
X012615Y004001D01*
X012130Y003516D01*
X012130Y004564D01*
X012036Y004657D01*
X011404Y004657D01*
X011310Y004564D01*
X011310Y003662D01*
X011144Y003662D01*
X011130Y003676D01*
X011130Y005126D01*
X011030Y005226D01*
X010901Y005355D01*
X010716Y005355D01*
X010626Y005445D01*
X010194Y005445D01*
X010100Y005351D01*
X010100Y004919D01*
X010184Y004835D01*
X010100Y004751D01*
X010100Y004319D01*
X010171Y004247D01*
X010140Y004216D01*
X010091Y004098D01*
X010091Y003972D01*
X010140Y003854D01*
X010209Y003785D01*
X010140Y003716D01*
X010091Y003598D01*
X010091Y003472D01*
X010140Y003354D01*
X010171Y003323D01*
X010100Y003251D01*
X010100Y002819D01*
X010184Y002735D01*
X010100Y002651D01*
X010100Y002219D01*
X010194Y002125D01*
X010626Y002125D01*
X010716Y002215D01*
X010901Y002215D01*
X011030Y002344D01*
X011130Y002444D01*
X011130Y002908D01*
X011310Y002908D01*
X011310Y002006D01*
X011404Y001913D01*
X012036Y001913D01*
X012086Y001963D01*
X012089Y001963D01*
X012038Y001911D01*
X012038Y001758D01*
X011991Y001805D01*
X011873Y001854D01*
X011747Y001854D01*
X011629Y001805D01*
X011540Y001716D01*
X011515Y001656D01*
X011451Y001720D01*
X011019Y001720D01*
X010929Y001630D01*
X010913Y001658D01*
X010883Y001688D01*
X010847Y001709D01*
X010806Y001720D01*
X010650Y001720D01*
X010650Y001425D01*
X010620Y001425D01*
X010620Y001720D01*
X010464Y001720D01*
X010423Y001709D01*
X010387Y001688D01*
X010357Y001658D01*
X010336Y001622D01*
X010325Y001581D01*
X010325Y001425D01*
X010620Y001425D01*
X010620Y001395D01*
X010325Y001395D01*
X010325Y001239D01*
X010336Y001198D01*
X010357Y001162D01*
X010384Y001135D01*
X009561Y001135D01*
X009620Y001194D01*
X009620Y001626D01*
X009580Y001666D01*
X009580Y001715D01*
X009626Y001715D01*
X009720Y001809D01*
X009720Y002821D01*
X009660Y002881D01*
X009660Y003304D01*
X009853Y003497D01*
X009948Y003592D01*
X010000Y003717D01*
X010000Y004853D01*
X009948Y004978D01*
X009853Y005073D01*
X009728Y005125D01*
X009592Y005125D01*
X009467Y005073D01*
X009372Y004978D01*
X009320Y004853D01*
X009320Y003926D01*
X009127Y003733D01*
X009032Y003638D01*
X008980Y003513D01*
X008980Y002881D01*
X008920Y002821D01*
X008920Y001809D01*
X009014Y001715D01*
X009060Y001715D01*
X009060Y001686D01*
X009004Y001630D01*
X008988Y001658D01*
X008958Y001688D01*
X008922Y001709D01*
X008881Y001720D01*
X008725Y001720D01*
X008725Y001425D01*
X008695Y001425D01*
X008695Y001715D01*
X008716Y001715D01*
X008810Y001809D01*
X008810Y002821D01*
X008750Y002881D01*
X008750Y004162D01*
X009185Y004162D01*
X009279Y004256D01*
X009279Y005254D01*
X009185Y005348D01*
X008326Y005348D01*
X008326Y005398D01*
X008360Y005432D01*
X008380Y005412D01*
X008416Y005391D01*
X008457Y005380D01*
X008674Y005380D01*
X008674Y005775D01*
X008794Y005775D01*
X008794Y005380D01*
X009011Y005380D01*
X009052Y005391D01*
X009088Y005412D01*
X009118Y005441D01*
X009139Y005478D01*
X009150Y005519D01*
X009150Y005775D01*
X008794Y005775D01*
X008794Y005895D01*
X008674Y005895D01*
X008674Y006290D01*
X008457Y006290D01*
X008416Y006279D01*
X008380Y006258D01*
X008360Y006238D01*
X008308Y006290D01*
X008246Y006290D01*
X008246Y006761D01*
X008206Y006856D01*
X007931Y007132D01*
X007950Y007178D01*
X007950Y007392D01*
X007868Y007591D01*
X007716Y007743D01*
X007517Y007825D01*
X007303Y007825D01*
X007104Y007743D01*
X006952Y007591D01*
X006910Y007489D01*
X006868Y007591D01*
X006716Y007743D01*
X006517Y007825D01*
X006303Y007825D01*
X006104Y007743D01*
X005952Y007591D01*
X005910Y007489D01*
X005868Y007591D01*
X005716Y007743D01*
X005517Y007825D01*
X005303Y007825D01*
X005104Y007743D01*
X004952Y007591D01*
X004870Y007392D01*
X004870Y007178D01*
X004952Y006979D01*
X005104Y006827D01*
X005303Y006745D01*
X005517Y006745D01*
X005716Y006827D01*
X005868Y006979D01*
X005910Y007081D01*
X005952Y006979D01*
X006094Y006837D01*
X005790Y006532D01*
X005750Y006437D01*
X005750Y006347D01*
X005733Y006364D01*
X004852Y006364D01*
X004758Y006271D01*
X004758Y005615D01*
X004515Y005615D01*
X004380Y005480D01*
X004313Y005413D01*
X004303Y005423D01*
X003186Y005423D01*
X003177Y005415D01*
X003177Y005484D01*
X003114Y005637D01*
X002996Y005755D01*
X002843Y005818D01*
X002677Y005818D01*
X002524Y005755D01*
X002406Y005637D01*
X002343Y005484D01*
X002343Y005318D01*
X002406Y005165D01*
X002524Y005047D01*
X002677Y004984D01*
X002843Y004984D01*
X002996Y005047D01*
X003092Y005143D01*
X003092Y004055D01*
X003099Y004049D01*
X003092Y004025D01*
X003092Y003927D01*
X002996Y004023D01*
X002843Y004086D01*
X002677Y004086D01*
X002524Y004023D01*
X002406Y003905D01*
X002343Y003752D01*
X002343Y003586D01*
X002406Y003433D01*
X002524Y003315D01*
X002677Y003252D01*
X002843Y003252D01*
X002996Y003315D01*
X003114Y003433D01*
X003177Y003586D01*
X003177Y003665D01*
X003190Y003658D01*
X003231Y003647D01*
X003744Y003647D01*
X003744Y003905D01*
X003744Y003905D01*
X003744Y003647D01*
X004257Y003647D01*
X004298Y003658D01*
X004335Y003679D01*
X004340Y003684D01*
X004340Y003280D01*
X004335Y003285D01*
X004298Y003306D01*
X004257Y003317D01*
X003804Y003317D01*
X003804Y002823D01*
X004396Y002823D01*
X004396Y003178D01*
X004392Y003195D01*
X004587Y003000D01*
X004587Y002797D01*
X004680Y002704D01*
X005140Y002704D01*
X005233Y002797D01*
X005233Y003000D01*
X005450Y003216D01*
X005523Y003216D01*
X005641Y003265D01*
X005693Y003317D01*
X005693Y003272D01*
X005680Y003272D01*
X005587Y003178D01*
X005587Y002797D01*
X005680Y002704D01*
X006140Y002704D01*
X006160Y002724D01*
X006269Y002615D01*
X006354Y002615D01*
X006434Y002535D01*
X006350Y002451D01*
X006350Y002019D01*
X006396Y001972D01*
X006390Y001966D01*
X006341Y001848D01*
X006341Y001722D01*
X006390Y001604D01*
X006479Y001515D01*
X006597Y001466D01*
X006723Y001466D01*
X006841Y001515D01*
X006930Y001604D01*
X006979Y001722D01*
X006979Y001848D01*
X006930Y001966D01*
X006924Y001972D01*
X006970Y002019D01*
X006970Y002451D01*
X006886Y002535D01*
X006970Y002619D01*
X006970Y003051D01*
X006876Y003145D01*
X006444Y003145D01*
X006402Y003104D01*
X006298Y003208D01*
X006204Y003208D01*
X006199Y003213D01*
X006251Y003265D01*
X006380Y003394D01*
X006380Y003826D01*
X006179Y004027D01*
X006179Y004098D01*
X006130Y004216D01*
X006041Y004305D01*
X005923Y004354D01*
X005797Y004354D01*
X005679Y004305D01*
X005629Y004255D01*
X005351Y004255D01*
X004900Y004706D01*
X005733Y004706D01*
X005826Y004799D01*
X005826Y004868D01*
X005829Y004865D01*
X005947Y004816D01*
X006073Y004816D01*
X006191Y004865D01*
X006280Y004954D01*
X006294Y004987D01*
X006294Y004799D01*
X006387Y004706D01*
X007268Y004706D01*
X007362Y004799D01*
X007362Y006271D01*
X007268Y006364D01*
X007250Y006364D01*
X007250Y006603D01*
X007198Y006728D01*
X007103Y006823D01*
X006978Y006875D01*
X006842Y006875D01*
X006717Y006823D01*
X006670Y006776D01*
X006670Y006808D01*
X006716Y006827D01*
X006868Y006979D01*
X006910Y007081D01*
X006952Y006979D01*
X007104Y006827D01*
X007303Y006745D01*
X007517Y006745D01*
X007563Y006764D01*
X007726Y006601D01*
X007726Y006290D01*
X007664Y006290D01*
X007570Y006197D01*
X007570Y005473D01*
X007646Y005398D01*
X007646Y005348D01*
X007635Y005348D01*
X007541Y005254D01*
X007541Y004256D01*
X007635Y004162D01*
X008070Y004162D01*
X008070Y002881D01*
X008010Y002821D01*
X008010Y001809D01*
X008104Y001715D01*
X008520Y001715D01*
X008498Y001709D01*
X008462Y001688D01*
X008432Y001658D01*
X008411Y001622D01*
X008400Y001581D01*
X008400Y001425D01*
X008695Y001425D01*
X008695Y001395D01*
X008400Y001395D01*
X008400Y001239D01*
X008411Y001198D01*
X008432Y001162D01*
X008459Y001135D01*
X005493Y001135D01*
X005267Y001360D01*
X005150Y001478D01*
X004464Y001478D01*
X004464Y001592D01*
X004176Y001592D01*
X004176Y001592D01*
X004464Y001592D01*
X004464Y001712D01*
X004457Y001736D01*
X004464Y001743D01*
X004464Y002072D01*
X004370Y002166D01*
X003982Y002166D01*
X003910Y002094D01*
X003838Y002166D01*
X003490Y002166D01*
X003480Y002191D01*
X003461Y002210D01*
X003684Y002210D01*
X003684Y002703D01*
X003804Y002703D01*
X003804Y002210D01*
X004257Y002210D01*
X004298Y002221D01*
X004335Y002242D01*
X004364Y002271D01*
X004385Y002308D01*
X004396Y002349D01*
X004396Y002703D01*
X003804Y002703D01*
X003804Y002823D01*
X003684Y002823D01*
X003684Y002703D01*
X003092Y002703D01*
X003092Y002349D01*
X003102Y002310D01*
X003029Y002280D01*
X002979Y002230D01*
X002979Y002348D01*
X002930Y002466D01*
X002841Y002555D01*
X002723Y002604D01*
X002597Y002604D01*
X002479Y002555D01*
X002390Y002466D01*
X002341Y002348D01*
X002341Y002249D01*
X002059Y001967D01*
X002059Y001948D01*
X001981Y001870D01*
X001981Y000950D01*
X002075Y000856D01*
X002220Y000856D01*
X002216Y000848D01*
X002216Y000722D01*
X002246Y000650D01*
X001910Y000650D01*
X001746Y000661D01*
X001428Y000746D01*
X001394Y000766D02*
X002216Y000766D01*
X002047Y000884D02*
X001189Y000884D01*
X001051Y001003D02*
X001981Y001003D01*
X001981Y001121D02*
X000932Y001121D01*
X000855Y001240D02*
X001981Y001240D01*
X002259Y001115D02*
X002259Y001410D01*
X002259Y001705D01*
X002259Y001884D01*
X002660Y002285D01*
X002341Y002306D02*
X002219Y002306D01*
X002220Y002308D02*
X002231Y002349D01*
X002231Y002703D01*
X001639Y002703D01*
X001639Y002210D01*
X002092Y002210D01*
X002133Y002221D01*
X002169Y002242D01*
X002199Y002271D01*
X002220Y002308D01*
X002280Y002188D02*
X000650Y002188D01*
X000650Y002306D02*
X000939Y002306D01*
X000938Y002308D02*
X000959Y002271D01*
X000989Y002242D01*
X001025Y002221D01*
X001066Y002210D01*
X001519Y002210D01*
X001519Y002703D01*
X001639Y002703D01*
X001639Y002823D01*
X002231Y002823D01*
X002231Y003178D01*
X002220Y003219D01*
X002199Y003255D01*
X002169Y003285D01*
X002133Y003306D01*
X002092Y003317D01*
X001639Y003317D01*
X001639Y002823D01*
X001519Y002823D01*
X001519Y002703D01*
X000927Y002703D01*
X000927Y002349D01*
X000938Y002308D01*
X000927Y002425D02*
X000650Y002425D01*
X000650Y002543D02*
X000927Y002543D01*
X000927Y002662D02*
X000650Y002662D01*
X000650Y002780D02*
X001519Y002780D01*
X001519Y002823D02*
X000927Y002823D01*
X000927Y003178D01*
X000938Y003219D01*
X000959Y003255D01*
X000989Y003285D01*
X001025Y003306D01*
X001066Y003317D01*
X001519Y003317D01*
X001519Y002823D01*
X001519Y002899D02*
X001639Y002899D01*
X001639Y003017D02*
X001519Y003017D01*
X001519Y003136D02*
X001639Y003136D01*
X001639Y003254D02*
X001519Y003254D01*
X000958Y003254D02*
X000650Y003254D01*
X000650Y003136D02*
X000927Y003136D01*
X000927Y003017D02*
X000650Y003017D01*
X000650Y002899D02*
X000927Y002899D01*
X001519Y002662D02*
X001639Y002662D01*
X001639Y002543D02*
X001519Y002543D01*
X001519Y002425D02*
X001639Y002425D01*
X001639Y002306D02*
X001519Y002306D01*
X002161Y002069D02*
X000650Y002069D01*
X000650Y001951D02*
X002059Y001951D01*
X001981Y001832D02*
X000655Y001832D01*
X000669Y001714D02*
X001981Y001714D01*
X001981Y001595D02*
X000701Y001595D01*
X000733Y001477D02*
X001981Y001477D01*
X001981Y001358D02*
X000786Y001358D01*
X002979Y002306D02*
X003092Y002306D01*
X003481Y002188D02*
X004587Y002188D01*
X004587Y002227D02*
X004587Y002084D01*
X004908Y002084D01*
X004908Y002080D01*
X004912Y002080D01*
X004912Y001798D01*
X005094Y001798D01*
X005135Y001809D01*
X005172Y001830D01*
X005201Y001860D01*
X005222Y001896D01*
X005233Y001937D01*
X005233Y002080D01*
X004912Y002080D01*
X004912Y002084D01*
X005233Y002084D01*
X005233Y002227D01*
X005222Y002268D01*
X005201Y002305D01*
X005172Y002334D01*
X005135Y002355D01*
X005094Y002366D01*
X004912Y002366D01*
X004912Y002084D01*
X004908Y002084D01*
X004908Y002366D01*
X004726Y002366D01*
X004685Y002355D01*
X004648Y002334D01*
X004619Y002305D01*
X004598Y002268D01*
X004587Y002227D01*
X004620Y002306D02*
X004384Y002306D01*
X004396Y002425D02*
X006350Y002425D01*
X006426Y002543D02*
X004396Y002543D01*
X004396Y002662D02*
X006222Y002662D01*
X006135Y002355D02*
X006094Y002366D01*
X005912Y002366D01*
X005912Y002084D01*
X006233Y002084D01*
X006233Y002227D01*
X006222Y002268D01*
X006201Y002305D01*
X006172Y002334D01*
X006135Y002355D01*
X006200Y002306D02*
X006350Y002306D01*
X006350Y002188D02*
X006233Y002188D01*
X006233Y002080D02*
X006233Y001937D01*
X006222Y001896D01*
X006201Y001860D01*
X006172Y001830D01*
X006135Y001809D01*
X006094Y001798D01*
X005912Y001798D01*
X005912Y002080D01*
X005908Y002080D01*
X005908Y001798D01*
X005726Y001798D01*
X005685Y001809D01*
X005648Y001830D01*
X005619Y001860D01*
X005598Y001896D01*
X005587Y001937D01*
X005587Y002080D01*
X005908Y002080D01*
X005908Y002084D01*
X005587Y002084D01*
X005587Y002227D01*
X005598Y002268D01*
X005619Y002305D01*
X005648Y002334D01*
X005685Y002355D01*
X005726Y002366D01*
X005908Y002366D01*
X005908Y002084D01*
X005912Y002084D01*
X005912Y002080D01*
X006233Y002080D01*
X006233Y002069D02*
X006350Y002069D01*
X006384Y001951D02*
X006233Y001951D01*
X006173Y001832D02*
X006341Y001832D01*
X006345Y001714D02*
X004463Y001714D01*
X004464Y001832D02*
X004647Y001832D01*
X004648Y001830D02*
X004685Y001809D01*
X004726Y001798D01*
X004908Y001798D01*
X004908Y002080D01*
X004587Y002080D01*
X004587Y001937D01*
X004598Y001896D01*
X004619Y001860D01*
X004648Y001830D01*
X004587Y001951D02*
X004464Y001951D01*
X004464Y002069D02*
X004587Y002069D01*
X004908Y002069D02*
X004912Y002069D01*
X004908Y002188D02*
X004912Y002188D01*
X004908Y002306D02*
X004912Y002306D01*
X005200Y002306D02*
X005620Y002306D01*
X005587Y002188D02*
X005233Y002188D01*
X005233Y002069D02*
X005587Y002069D01*
X005908Y002069D02*
X005912Y002069D01*
X005908Y002188D02*
X005912Y002188D01*
X005908Y002306D02*
X005912Y002306D01*
X005908Y001951D02*
X005912Y001951D01*
X005908Y001832D02*
X005912Y001832D01*
X005647Y001832D02*
X005173Y001832D01*
X005233Y001951D02*
X005587Y001951D01*
X004912Y001951D02*
X004908Y001951D01*
X004908Y001832D02*
X004912Y001832D01*
X004464Y001595D02*
X006399Y001595D01*
X006572Y001477D02*
X005151Y001477D01*
X005270Y001358D02*
X008400Y001358D01*
X008400Y001477D02*
X006748Y001477D01*
X006921Y001595D02*
X008404Y001595D01*
X008515Y001714D02*
X006975Y001714D01*
X006979Y001832D02*
X007106Y001832D01*
X007111Y001813D02*
X007132Y001777D01*
X007162Y001747D01*
X007198Y001726D01*
X007239Y001715D01*
X007440Y001715D01*
X007440Y002255D01*
X007560Y002255D01*
X007560Y002375D01*
X007900Y002375D01*
X007900Y002776D01*
X007889Y002817D01*
X007868Y002853D01*
X007838Y002883D01*
X007802Y002904D01*
X007761Y002915D01*
X007560Y002915D01*
X007560Y002375D01*
X007440Y002375D01*
X007440Y002915D01*
X007239Y002915D01*
X007198Y002904D01*
X007162Y002883D01*
X007132Y002853D01*
X007111Y002817D01*
X007100Y002776D01*
X007100Y002375D01*
X007440Y002375D01*
X007440Y002255D01*
X007100Y002255D01*
X007100Y001854D01*
X007111Y001813D01*
X007100Y001951D02*
X006936Y001951D01*
X006970Y002069D02*
X007100Y002069D01*
X007100Y002188D02*
X006970Y002188D01*
X006970Y002306D02*
X007440Y002306D01*
X007440Y002188D02*
X007560Y002188D01*
X007560Y002255D02*
X007560Y001715D01*
X007761Y001715D01*
X007802Y001726D01*
X007838Y001747D01*
X007868Y001777D01*
X007889Y001813D01*
X007900Y001854D01*
X007900Y002255D01*
X007560Y002255D01*
X007560Y002306D02*
X008010Y002306D01*
X008010Y002188D02*
X007900Y002188D01*
X007900Y002069D02*
X008010Y002069D01*
X008010Y001951D02*
X007900Y001951D01*
X007894Y001832D02*
X008010Y001832D01*
X007560Y001832D02*
X007440Y001832D01*
X007440Y001951D02*
X007560Y001951D01*
X007560Y002069D02*
X007440Y002069D01*
X007440Y002425D02*
X007560Y002425D01*
X007560Y002543D02*
X007440Y002543D01*
X007440Y002662D02*
X007560Y002662D01*
X007560Y002780D02*
X007440Y002780D01*
X007440Y002899D02*
X007560Y002899D01*
X007811Y002899D02*
X008070Y002899D01*
X008070Y003017D02*
X006970Y003017D01*
X006970Y002899D02*
X007189Y002899D01*
X007101Y002780D02*
X006970Y002780D01*
X006970Y002662D02*
X007100Y002662D01*
X007100Y002543D02*
X006894Y002543D01*
X006970Y002425D02*
X007100Y002425D01*
X007900Y002425D02*
X008010Y002425D01*
X008010Y002543D02*
X007900Y002543D01*
X007900Y002662D02*
X008010Y002662D01*
X008010Y002780D02*
X007899Y002780D01*
X008070Y003136D02*
X006886Y003136D01*
X006434Y003136D02*
X006371Y003136D01*
X006240Y003254D02*
X008070Y003254D01*
X008070Y003373D02*
X006359Y003373D01*
X006380Y003491D02*
X008070Y003491D01*
X008070Y003610D02*
X006380Y003610D01*
X006380Y003728D02*
X008070Y003728D01*
X008070Y003847D02*
X006360Y003847D01*
X006241Y003965D02*
X008070Y003965D01*
X008070Y004084D02*
X006179Y004084D01*
X006136Y004202D02*
X007595Y004202D01*
X007541Y004321D02*
X006004Y004321D01*
X005716Y004321D02*
X005286Y004321D01*
X005167Y004439D02*
X007541Y004439D01*
X007541Y004558D02*
X005049Y004558D01*
X004930Y004676D02*
X007541Y004676D01*
X007541Y004795D02*
X007357Y004795D01*
X007362Y004913D02*
X007541Y004913D01*
X007541Y005032D02*
X007362Y005032D01*
X007362Y005150D02*
X007541Y005150D01*
X007555Y005269D02*
X007362Y005269D01*
X007362Y005387D02*
X007646Y005387D01*
X007570Y005506D02*
X007362Y005506D01*
X007362Y005624D02*
X007570Y005624D01*
X007570Y005743D02*
X007362Y005743D01*
X007362Y005861D02*
X007570Y005861D01*
X007570Y005980D02*
X007362Y005980D01*
X007362Y006098D02*
X007570Y006098D01*
X007590Y006217D02*
X007362Y006217D01*
X007297Y006335D02*
X007726Y006335D01*
X007726Y006454D02*
X007250Y006454D01*
X007250Y006572D02*
X007726Y006572D01*
X007637Y006691D02*
X007214Y006691D01*
X007148Y006809D02*
X007117Y006809D01*
X007004Y006928D02*
X006816Y006928D01*
X006895Y007046D02*
X006924Y007046D01*
X006703Y006809D02*
X006672Y006809D01*
X006066Y006809D02*
X005672Y006809D01*
X005816Y006928D02*
X006004Y006928D01*
X005924Y007046D02*
X005895Y007046D01*
X005148Y006809D02*
X004354Y006809D01*
X004364Y006799D02*
X004335Y006828D01*
X004298Y006849D01*
X004257Y006860D01*
X003804Y006860D01*
X003804Y006367D01*
X003684Y006367D01*
X003684Y006860D01*
X003231Y006860D01*
X003190Y006849D01*
X003154Y006828D01*
X003124Y006799D01*
X003103Y006762D01*
X003092Y006721D01*
X003092Y006367D01*
X003684Y006367D01*
X003684Y006247D01*
X003092Y006247D01*
X003092Y005892D01*
X003103Y005851D01*
X003124Y005815D01*
X003154Y005785D01*
X003190Y005764D01*
X003231Y005753D01*
X003684Y005753D01*
X003684Y006247D01*
X003804Y006247D01*
X003804Y006367D01*
X004396Y006367D01*
X004396Y006721D01*
X004385Y006762D01*
X004364Y006799D01*
X004396Y006691D02*
X005948Y006691D01*
X005829Y006572D02*
X004396Y006572D01*
X004396Y006454D02*
X005757Y006454D01*
X004823Y006335D02*
X003804Y006335D01*
X003804Y006247D02*
X004396Y006247D01*
X004396Y005892D01*
X004385Y005851D01*
X004364Y005815D01*
X004335Y005785D01*
X004298Y005764D01*
X004257Y005753D01*
X003804Y005753D01*
X003804Y006247D01*
X003804Y006217D02*
X003684Y006217D01*
X003684Y006335D02*
X001639Y006335D01*
X001639Y006367D02*
X001639Y006247D01*
X002231Y006247D01*
X002231Y005892D01*
X002220Y005851D01*
X002199Y005815D01*
X002169Y005785D01*
X002133Y005764D01*
X002092Y005753D01*
X001639Y005753D01*
X001639Y006247D01*
X001519Y006247D01*
X000927Y006247D01*
X000927Y005892D01*
X000938Y005851D01*
X000959Y005815D01*
X000989Y005785D01*
X001025Y005764D01*
X001066Y005753D01*
X001519Y005753D01*
X001519Y006247D01*
X001519Y006367D01*
X001519Y006860D01*
X001066Y006860D01*
X001025Y006849D01*
X000989Y006828D01*
X000959Y006799D01*
X000938Y006762D01*
X000927Y006721D01*
X000927Y006367D01*
X001519Y006367D01*
X001639Y006367D01*
X001639Y006860D01*
X002092Y006860D01*
X002133Y006849D01*
X002169Y006828D01*
X002199Y006799D01*
X002220Y006762D01*
X002231Y006721D01*
X002231Y006367D01*
X001639Y006367D01*
X001639Y006454D02*
X001519Y006454D01*
X001519Y006572D02*
X001639Y006572D01*
X001639Y006691D02*
X001519Y006691D01*
X001519Y006809D02*
X001639Y006809D01*
X002189Y006809D02*
X003135Y006809D01*
X003092Y006691D02*
X002231Y006691D01*
X002231Y006572D02*
X003092Y006572D01*
X003092Y006454D02*
X002231Y006454D01*
X002231Y006217D02*
X003092Y006217D01*
X003092Y006098D02*
X002231Y006098D01*
X002231Y005980D02*
X003092Y005980D01*
X003100Y005861D02*
X002223Y005861D01*
X002511Y005743D02*
X000650Y005743D01*
X000650Y005861D02*
X000935Y005861D01*
X000927Y005980D02*
X000650Y005980D01*
X000650Y006098D02*
X000927Y006098D01*
X000927Y006217D02*
X000650Y006217D01*
X000650Y006335D02*
X001519Y006335D01*
X001519Y006217D02*
X001639Y006217D01*
X001639Y006098D02*
X001519Y006098D01*
X001519Y005980D02*
X001639Y005980D01*
X001639Y005861D02*
X001519Y005861D01*
X000650Y005624D02*
X002401Y005624D01*
X002352Y005506D02*
X000650Y005506D01*
X000650Y005387D02*
X002343Y005387D01*
X002363Y005269D02*
X000650Y005269D01*
X000650Y005150D02*
X002421Y005150D01*
X002562Y005032D02*
X000650Y005032D01*
X000650Y004913D02*
X003092Y004913D01*
X003092Y004795D02*
X000650Y004795D01*
X000650Y004676D02*
X003092Y004676D01*
X003092Y004558D02*
X000650Y004558D01*
X000650Y004439D02*
X003092Y004439D01*
X003092Y004321D02*
X000650Y004321D01*
X000650Y004202D02*
X003092Y004202D01*
X003092Y004084D02*
X002849Y004084D01*
X002671Y004084D02*
X000650Y004084D01*
X000650Y003965D02*
X002466Y003965D01*
X002382Y003847D02*
X000650Y003847D01*
X000650Y003728D02*
X002343Y003728D01*
X002343Y003610D02*
X000650Y003610D01*
X000650Y003491D02*
X002382Y003491D01*
X002466Y003373D02*
X000650Y003373D01*
X001639Y002780D02*
X003684Y002780D01*
X003684Y002823D02*
X003092Y002823D01*
X003092Y003178D01*
X003103Y003219D01*
X003124Y003255D01*
X003154Y003285D01*
X003190Y003306D01*
X003231Y003317D01*
X003684Y003317D01*
X003684Y002823D01*
X003684Y002899D02*
X003804Y002899D01*
X003804Y003017D02*
X003684Y003017D01*
X003684Y003136D02*
X003804Y003136D01*
X003804Y003254D02*
X003684Y003254D01*
X003123Y003254D02*
X002849Y003254D01*
X002671Y003254D02*
X002200Y003254D01*
X002231Y003136D02*
X003092Y003136D01*
X003092Y003017D02*
X002231Y003017D01*
X002231Y002899D02*
X003092Y002899D01*
X003092Y002662D02*
X002231Y002662D01*
X002231Y002543D02*
X002467Y002543D01*
X002373Y002425D02*
X002231Y002425D01*
X002853Y002543D02*
X003092Y002543D01*
X003092Y002425D02*
X002947Y002425D01*
X003684Y002425D02*
X003804Y002425D01*
X003804Y002543D02*
X003684Y002543D01*
X003684Y002662D02*
X003804Y002662D01*
X003804Y002780D02*
X004604Y002780D01*
X004587Y002899D02*
X004396Y002899D01*
X004396Y003017D02*
X004570Y003017D01*
X004451Y003136D02*
X004396Y003136D01*
X004340Y003373D02*
X003054Y003373D01*
X003138Y003491D02*
X004340Y003491D01*
X004340Y003610D02*
X003177Y003610D01*
X003744Y003728D02*
X003744Y003728D01*
X003744Y003847D02*
X003744Y003847D01*
X003092Y003965D02*
X003054Y003965D01*
X005250Y003017D02*
X005587Y003017D01*
X005587Y002899D02*
X005233Y002899D01*
X005216Y002780D02*
X005604Y002780D01*
X005587Y003136D02*
X005369Y003136D01*
X005615Y003254D02*
X005663Y003254D01*
X003804Y002306D02*
X003684Y002306D01*
X003210Y002010D02*
X003210Y001835D01*
X003453Y001592D01*
X003644Y001592D01*
X004176Y001278D02*
X005067Y001278D01*
X005410Y000935D01*
X014010Y000935D01*
X014210Y001135D01*
X014210Y001535D01*
X014210Y001582D01*
X014510Y001593D02*
X014510Y000985D01*
X014210Y000685D01*
X005260Y000685D01*
X004982Y000963D01*
X004176Y000963D01*
X005388Y001240D02*
X008400Y001240D01*
X008695Y001477D02*
X008725Y001477D01*
X008725Y001595D02*
X008695Y001595D01*
X008695Y001714D02*
X008725Y001714D01*
X008810Y001832D02*
X008920Y001832D01*
X008920Y001951D02*
X008810Y001951D01*
X008810Y002069D02*
X008920Y002069D01*
X008920Y002188D02*
X008810Y002188D01*
X008810Y002306D02*
X008920Y002306D01*
X008920Y002425D02*
X008810Y002425D01*
X008810Y002543D02*
X008920Y002543D01*
X008920Y002662D02*
X008810Y002662D01*
X008810Y002780D02*
X008920Y002780D01*
X008980Y002899D02*
X008750Y002899D01*
X008750Y003017D02*
X008980Y003017D01*
X008980Y003136D02*
X008750Y003136D01*
X008750Y003254D02*
X008980Y003254D01*
X008980Y003373D02*
X008750Y003373D01*
X008750Y003491D02*
X008980Y003491D01*
X009020Y003610D02*
X008750Y003610D01*
X008750Y003728D02*
X009122Y003728D01*
X009241Y003847D02*
X008750Y003847D01*
X008750Y003965D02*
X009320Y003965D01*
X009320Y004084D02*
X008750Y004084D01*
X009225Y004202D02*
X009320Y004202D01*
X009320Y004321D02*
X009279Y004321D01*
X009279Y004439D02*
X009320Y004439D01*
X009320Y004558D02*
X009279Y004558D01*
X009279Y004676D02*
X009320Y004676D01*
X009320Y004795D02*
X009279Y004795D01*
X009279Y004913D02*
X009345Y004913D01*
X009279Y005032D02*
X009426Y005032D01*
X009279Y005150D02*
X010100Y005150D01*
X010100Y005032D02*
X009894Y005032D01*
X009975Y004913D02*
X010106Y004913D01*
X010143Y004795D02*
X010000Y004795D01*
X010000Y004676D02*
X010100Y004676D01*
X010100Y004558D02*
X010000Y004558D01*
X010000Y004439D02*
X010100Y004439D01*
X010100Y004321D02*
X010000Y004321D01*
X010000Y004202D02*
X010134Y004202D01*
X010091Y004084D02*
X010000Y004084D01*
X010000Y003965D02*
X010094Y003965D01*
X010148Y003847D02*
X010000Y003847D01*
X010000Y003728D02*
X010152Y003728D01*
X010096Y003610D02*
X009955Y003610D01*
X009853Y003497D02*
X009853Y003497D01*
X009847Y003491D02*
X010091Y003491D01*
X010132Y003373D02*
X009728Y003373D01*
X009660Y003254D02*
X010103Y003254D01*
X010100Y003136D02*
X009660Y003136D01*
X009660Y003017D02*
X010100Y003017D01*
X010100Y002899D02*
X009660Y002899D01*
X009720Y002780D02*
X010139Y002780D01*
X010110Y002662D02*
X009720Y002662D01*
X009720Y002543D02*
X010100Y002543D01*
X010100Y002425D02*
X009720Y002425D01*
X009720Y002306D02*
X010100Y002306D01*
X010131Y002188D02*
X009720Y002188D01*
X009720Y002069D02*
X011310Y002069D01*
X011310Y002188D02*
X010689Y002188D01*
X010992Y002306D02*
X011310Y002306D01*
X011310Y002425D02*
X011111Y002425D01*
X011130Y002543D02*
X011310Y002543D01*
X011310Y002662D02*
X011130Y002662D01*
X011130Y002780D02*
X011310Y002780D01*
X011310Y002899D02*
X011130Y002899D01*
X012710Y002535D02*
X013410Y002535D01*
X013703Y002662D02*
X014690Y002662D01*
X014690Y002543D02*
X013729Y002543D01*
X013729Y002598D02*
X013729Y002472D01*
X013680Y002354D01*
X013591Y002265D01*
X013473Y002216D01*
X013347Y002216D01*
X013229Y002265D01*
X013159Y002335D01*
X013093Y002335D01*
X013129Y002248D01*
X013129Y002122D01*
X013080Y002005D01*
X013429Y002005D01*
X013430Y002003D01*
X013436Y002005D01*
X013567Y002005D01*
X013567Y001595D01*
X013567Y001595D01*
X013567Y001185D01*
X013471Y001185D01*
X013421Y001135D01*
X013927Y001135D01*
X013977Y001185D01*
X013706Y001185D01*
X013705Y001187D01*
X013699Y001185D01*
X013567Y001185D01*
X013567Y001595D01*
X013567Y001595D01*
X013567Y002005D01*
X013699Y002005D01*
X013705Y002003D01*
X013706Y002005D01*
X014021Y002005D01*
X014140Y002005D01*
X014091Y002122D01*
X014091Y002248D01*
X014140Y002366D01*
X014229Y002455D01*
X014347Y002504D01*
X014473Y002504D01*
X014591Y002455D01*
X014641Y002405D01*
X014690Y002405D01*
X014690Y004129D01*
X014251Y003690D01*
X013241Y003690D01*
X013279Y003598D01*
X013279Y003472D01*
X013230Y003354D01*
X013228Y003352D01*
X013341Y003305D01*
X013430Y003216D01*
X013479Y003098D01*
X013479Y002972D01*
X013430Y002854D01*
X013430Y002854D01*
X013473Y002854D01*
X013591Y002805D01*
X013680Y002716D01*
X013729Y002598D01*
X013709Y002425D02*
X014199Y002425D01*
X014115Y002306D02*
X013632Y002306D01*
X013188Y002306D02*
X013105Y002306D01*
X013129Y002188D02*
X014091Y002188D01*
X014113Y002069D02*
X013107Y002069D01*
X013567Y001951D02*
X013567Y001951D01*
X013567Y001832D02*
X013567Y001832D01*
X013567Y001714D02*
X013567Y001714D01*
X013567Y001477D02*
X013567Y001477D01*
X013567Y001358D02*
X013567Y001358D01*
X013253Y001278D02*
X013160Y001185D01*
X011460Y001185D01*
X011235Y001410D01*
X010650Y001477D02*
X010620Y001477D01*
X010620Y001595D02*
X010650Y001595D01*
X010329Y001595D02*
X009620Y001595D01*
X009620Y001477D02*
X010325Y001477D01*
X010325Y001358D02*
X009620Y001358D01*
X009320Y001410D02*
X009320Y001410D01*
X009310Y001410D01*
X009620Y001240D02*
X010325Y001240D01*
X010440Y001714D02*
X009580Y001714D01*
X009720Y001832D02*
X011694Y001832D01*
X011539Y001714D02*
X011458Y001714D01*
X011366Y001951D02*
X009720Y001951D01*
X009060Y001714D02*
X008905Y001714D01*
X010620Y001714D02*
X010650Y001714D01*
X010830Y001714D02*
X011012Y001714D01*
X011926Y001832D02*
X012038Y001832D01*
X012074Y001951D02*
X012077Y001951D01*
X013567Y001240D02*
X013567Y001240D01*
X014573Y000766D02*
X019176Y000766D01*
X019381Y000884D02*
X014692Y000884D01*
X014710Y001003D02*
X019519Y001003D01*
X019638Y001121D02*
X014710Y001121D01*
X014743Y001240D02*
X015040Y001240D01*
X015280Y001240D02*
X019715Y001240D01*
X019784Y001358D02*
X017724Y001358D01*
X017755Y001381D02*
X017814Y001440D01*
X017863Y001507D01*
X017901Y001582D01*
X017927Y001661D01*
X017940Y001743D01*
X017940Y001745D01*
X017450Y001745D01*
X017450Y001255D01*
X017452Y001255D01*
X017534Y001268D01*
X017613Y001294D01*
X017688Y001332D01*
X017755Y001381D01*
X017841Y001477D02*
X019837Y001477D01*
X019869Y001595D02*
X017906Y001595D01*
X017935Y001714D02*
X019901Y001714D01*
X019915Y001832D02*
X017939Y001832D01*
X017940Y001827D02*
X017927Y001909D01*
X017901Y001988D01*
X017863Y002063D01*
X017814Y002130D01*
X017755Y002189D01*
X017688Y002238D01*
X017613Y002276D01*
X017534Y002302D01*
X017452Y002315D01*
X017450Y002315D01*
X017450Y001825D01*
X017940Y001825D01*
X017940Y001827D01*
X017913Y001951D02*
X019920Y001951D01*
X019920Y002069D02*
X017859Y002069D01*
X017757Y002188D02*
X019920Y002188D01*
X019920Y002306D02*
X017509Y002306D01*
X017450Y002306D02*
X017370Y002306D01*
X017311Y002306D02*
X016537Y002306D01*
X016757Y002188D02*
X017063Y002188D01*
X016961Y002069D02*
X016866Y002069D01*
X016283Y002306D02*
X016242Y002306D01*
X016361Y002425D02*
X019920Y002425D01*
X019920Y002543D02*
X016479Y002543D01*
X017370Y002188D02*
X017450Y002188D01*
X017450Y002069D02*
X017370Y002069D01*
X017370Y001951D02*
X017450Y001951D01*
X017450Y001832D02*
X017370Y001832D01*
X017370Y001714D02*
X017450Y001714D01*
X017450Y001595D02*
X017370Y001595D01*
X017370Y001477D02*
X017450Y001477D01*
X017450Y001358D02*
X017370Y001358D01*
X017096Y001358D02*
X016733Y001358D01*
X016851Y001477D02*
X016979Y001477D01*
X016914Y001595D02*
X016905Y001595D01*
X016087Y001358D02*
X015432Y001358D01*
X015479Y001477D02*
X015969Y001477D01*
X015915Y001595D02*
X015531Y001595D01*
X015650Y001714D02*
X015880Y001714D01*
X015880Y001832D02*
X015768Y001832D01*
X015887Y001951D02*
X015905Y001951D01*
X015044Y001832D02*
X014782Y001832D01*
X014782Y001714D02*
X014889Y001714D01*
X014841Y001595D02*
X014782Y001595D01*
X014782Y001477D02*
X014841Y001477D01*
X014888Y001358D02*
X014782Y001358D01*
X014743Y001951D02*
X014746Y001951D01*
X014690Y002425D02*
X014621Y002425D01*
X014690Y002780D02*
X013616Y002780D01*
X013448Y002899D02*
X014690Y002899D01*
X014690Y003017D02*
X013479Y003017D01*
X013463Y003136D02*
X014690Y003136D01*
X014690Y003254D02*
X013392Y003254D01*
X013238Y003373D02*
X014690Y003373D01*
X014690Y003491D02*
X013279Y003491D01*
X013274Y003610D02*
X014690Y003610D01*
X014690Y003728D02*
X014289Y003728D01*
X014408Y003847D02*
X014690Y003847D01*
X014690Y003965D02*
X014526Y003965D01*
X014645Y004084D02*
X014690Y004084D01*
X014417Y004478D02*
X014069Y004130D01*
X013156Y004130D01*
X013208Y004182D01*
X013256Y004299D01*
X013256Y004426D01*
X013208Y004543D01*
X013186Y004565D01*
X013253Y004565D01*
X013384Y004565D01*
X013390Y004567D01*
X013391Y004565D01*
X013744Y004565D01*
X013745Y004567D01*
X013751Y004565D01*
X013882Y004565D01*
X013882Y004975D01*
X013882Y004975D01*
X013882Y005385D01*
X013787Y005385D01*
X013787Y005501D01*
X014151Y005865D01*
X014804Y005865D01*
X014859Y005810D01*
X014800Y005751D01*
X014800Y005319D01*
X014890Y005229D01*
X014890Y004994D01*
X015227Y004657D01*
X014784Y004657D01*
X014734Y004607D01*
X014731Y004607D01*
X014782Y004659D01*
X014782Y005291D01*
X014689Y005385D01*
X014021Y005385D01*
X014020Y005383D01*
X014014Y005385D01*
X013882Y005385D01*
X013882Y004975D01*
X013882Y004975D01*
X013882Y004565D01*
X014014Y004565D01*
X014020Y004567D01*
X014021Y004565D01*
X014504Y004565D01*
X014417Y004478D01*
X014378Y004439D02*
X013251Y004439D01*
X013256Y004321D02*
X014259Y004321D01*
X014141Y004202D02*
X013216Y004202D01*
X012697Y004084D02*
X012130Y004084D01*
X012130Y004202D02*
X012659Y004202D01*
X012619Y004321D02*
X012130Y004321D01*
X012130Y004439D02*
X012624Y004439D01*
X012682Y004558D02*
X012130Y004558D01*
X012038Y004676D02*
X011130Y004676D01*
X011130Y004795D02*
X012038Y004795D01*
X012038Y004913D02*
X011130Y004913D01*
X011130Y005032D02*
X012038Y005032D01*
X012038Y005150D02*
X011106Y005150D01*
X010988Y005269D02*
X012038Y005269D01*
X012088Y005387D02*
X010684Y005387D01*
X010136Y005387D02*
X009038Y005387D01*
X009146Y005506D02*
X012088Y005506D01*
X012010Y005624D02*
X009150Y005624D01*
X009361Y005723D02*
X009382Y005687D01*
X009412Y005657D01*
X009448Y005636D01*
X009489Y005625D01*
X009645Y005625D01*
X009645Y005920D01*
X009350Y005920D01*
X009350Y005764D01*
X009361Y005723D01*
X009356Y005743D02*
X009150Y005743D01*
X009150Y005895D02*
X009150Y006151D01*
X009139Y006192D01*
X009118Y006229D01*
X009088Y006258D01*
X009052Y006279D01*
X009011Y006290D01*
X008794Y006290D01*
X008794Y005895D01*
X009150Y005895D01*
X009150Y005980D02*
X009350Y005980D01*
X009350Y005861D02*
X008794Y005861D01*
X008794Y005743D02*
X008674Y005743D01*
X008674Y005624D02*
X008794Y005624D01*
X008794Y005506D02*
X008674Y005506D01*
X008674Y005387D02*
X008794Y005387D01*
X008430Y005387D02*
X008326Y005387D01*
X009265Y005269D02*
X010100Y005269D01*
X009872Y005636D02*
X009831Y005625D01*
X009675Y005625D01*
X009675Y005920D01*
X009970Y005920D01*
X009970Y005764D01*
X009959Y005723D01*
X009938Y005687D01*
X009908Y005657D01*
X009872Y005636D01*
X009964Y005743D02*
X011891Y005743D01*
X011773Y005861D02*
X009970Y005861D01*
X009970Y005980D02*
X011654Y005980D01*
X011536Y006098D02*
X009970Y006098D01*
X009902Y006217D02*
X011135Y006217D01*
X011830Y006454D02*
X012990Y006454D01*
X012990Y006572D02*
X011830Y006572D01*
X011800Y006691D02*
X013020Y006691D01*
X013090Y006809D02*
X011730Y006809D01*
X011560Y006928D02*
X013260Y006928D01*
X013560Y006928D02*
X014876Y006928D01*
X015344Y006928D02*
X015487Y006928D01*
X015695Y006928D02*
X015725Y006928D01*
X015725Y006945D02*
X015725Y006650D01*
X016020Y006650D01*
X016020Y006806D01*
X016009Y006847D01*
X015988Y006883D01*
X015958Y006913D01*
X015922Y006934D01*
X015881Y006945D01*
X015725Y006945D01*
X015725Y006809D02*
X015695Y006809D01*
X015933Y006928D02*
X016018Y006928D01*
X016019Y006809D02*
X016174Y006809D01*
X016190Y006691D02*
X016020Y006691D01*
X016020Y006572D02*
X016190Y006572D01*
X016190Y006454D02*
X016017Y006454D01*
X015986Y006335D02*
X016149Y006335D01*
X016534Y006098D02*
X017536Y006098D01*
X017417Y006217D02*
X016630Y006217D01*
X016630Y006335D02*
X017299Y006335D01*
X017190Y006454D02*
X016630Y006454D01*
X016630Y006572D02*
X017190Y006572D01*
X017190Y006691D02*
X016630Y006691D01*
X016646Y006809D02*
X017174Y006809D01*
X017018Y006928D02*
X016802Y006928D01*
X016885Y007046D02*
X016935Y007046D01*
X017646Y006809D02*
X019920Y006809D01*
X019920Y006928D02*
X017802Y006928D01*
X017885Y007046D02*
X019920Y007046D01*
X019920Y007165D02*
X017934Y007165D01*
X017940Y007283D02*
X019912Y007283D01*
X019889Y007402D02*
X017935Y007402D01*
X017886Y007520D02*
X019857Y007520D01*
X019825Y007639D02*
X017806Y007639D01*
X017655Y007757D02*
X019758Y007757D01*
X019689Y007876D02*
X000881Y007876D01*
X000977Y007994D02*
X019593Y007994D01*
X019474Y008113D02*
X001096Y008113D01*
X001267Y008231D02*
X019303Y008231D01*
X019047Y008350D02*
X001523Y008350D01*
X000812Y007757D02*
X005138Y007757D01*
X005000Y007639D02*
X000745Y007639D01*
X000713Y007520D02*
X004923Y007520D01*
X004874Y007402D02*
X000681Y007402D01*
X000661Y007324D02*
X000661Y007324D01*
X000658Y007283D02*
X004870Y007283D01*
X004875Y007165D02*
X000650Y007165D01*
X000650Y007046D02*
X004924Y007046D01*
X005004Y006928D02*
X000650Y006928D01*
X000650Y006809D02*
X000969Y006809D01*
X000927Y006691D02*
X000650Y006691D01*
X000650Y006572D02*
X000927Y006572D01*
X000927Y006454D02*
X000650Y006454D01*
X003009Y005743D02*
X004758Y005743D01*
X004758Y005861D02*
X004388Y005861D01*
X004396Y005980D02*
X004758Y005980D01*
X004758Y006098D02*
X004396Y006098D01*
X004396Y006217D02*
X004758Y006217D01*
X003804Y006098D02*
X003684Y006098D01*
X003684Y005980D02*
X003804Y005980D01*
X003804Y005861D02*
X003684Y005861D01*
X003119Y005624D02*
X004758Y005624D01*
X004405Y005506D02*
X003168Y005506D01*
X003092Y005032D02*
X002958Y005032D01*
X005821Y004795D02*
X006299Y004795D01*
X006294Y004913D02*
X006239Y004913D01*
X008674Y005980D02*
X008794Y005980D01*
X008794Y006098D02*
X008674Y006098D01*
X008674Y006217D02*
X008794Y006217D01*
X009125Y006217D02*
X009418Y006217D01*
X009350Y006335D02*
X008246Y006335D01*
X008246Y006454D02*
X009350Y006454D01*
X009350Y006572D02*
X008246Y006572D01*
X008246Y006691D02*
X009350Y006691D01*
X009408Y006809D02*
X008226Y006809D01*
X008135Y006928D02*
X011260Y006928D01*
X011090Y006809D02*
X009912Y006809D01*
X009350Y006098D02*
X009150Y006098D01*
X009645Y005861D02*
X009675Y005861D01*
X009675Y005743D02*
X009645Y005743D01*
X011921Y006335D02*
X012899Y006335D01*
X012780Y006217D02*
X012040Y006217D01*
X012158Y006098D02*
X012662Y006098D01*
X012543Y005980D02*
X012277Y005980D01*
X012395Y005861D02*
X012425Y005861D01*
X013792Y005506D02*
X014800Y005506D01*
X014800Y005624D02*
X013910Y005624D01*
X014029Y005743D02*
X014800Y005743D01*
X014808Y005861D02*
X014147Y005861D01*
X013787Y005387D02*
X014800Y005387D01*
X014782Y005269D02*
X014850Y005269D01*
X014890Y005150D02*
X014782Y005150D01*
X014782Y005032D02*
X014890Y005032D01*
X014971Y004913D02*
X014782Y004913D01*
X014782Y004795D02*
X015089Y004795D01*
X015208Y004676D02*
X014782Y004676D01*
X014496Y004558D02*
X013193Y004558D01*
X013253Y004565D02*
X013253Y004975D01*
X013253Y004565D01*
X013253Y004676D02*
X013253Y004676D01*
X013253Y004795D02*
X013253Y004795D01*
X013253Y004913D02*
X013253Y004913D01*
X013253Y004975D02*
X013253Y004975D01*
X013882Y005032D02*
X013882Y005032D01*
X013882Y005150D02*
X013882Y005150D01*
X013882Y005269D02*
X013882Y005269D01*
X013882Y004913D02*
X013882Y004913D01*
X013882Y004795D02*
X013882Y004795D01*
X013882Y004676D02*
X013882Y004676D01*
X015330Y005176D02*
X015330Y005229D01*
X015416Y005315D01*
X015432Y005287D01*
X015462Y005257D01*
X015498Y005236D01*
X015539Y005225D01*
X015695Y005225D01*
X015695Y005520D01*
X015725Y005520D01*
X015725Y005550D01*
X016020Y005550D01*
X016020Y005706D01*
X016009Y005747D01*
X015988Y005783D01*
X015961Y005810D01*
X016016Y005865D01*
X016069Y005865D01*
X016440Y005494D01*
X016440Y004501D01*
X016067Y004128D01*
X016030Y004216D01*
X015980Y004266D01*
X015980Y004526D01*
X015851Y004655D01*
X015330Y005176D01*
X015356Y005150D02*
X016440Y005150D01*
X016440Y005032D02*
X015475Y005032D01*
X015593Y004913D02*
X016440Y004913D01*
X016440Y004795D02*
X015712Y004795D01*
X015830Y004676D02*
X016440Y004676D01*
X016440Y004558D02*
X015949Y004558D01*
X015980Y004439D02*
X016378Y004439D01*
X016259Y004321D02*
X015980Y004321D01*
X016036Y004202D02*
X016141Y004202D01*
X016526Y003965D02*
X017168Y003965D01*
X017220Y004084D02*
X016645Y004084D01*
X016763Y004202D02*
X017050Y004202D01*
X016968Y004321D02*
X016880Y004321D01*
X016880Y004439D02*
X016920Y004439D01*
X016920Y004558D02*
X016880Y004558D01*
X016880Y004676D02*
X016938Y004676D01*
X016987Y004795D02*
X016880Y004795D01*
X016880Y004913D02*
X017095Y004913D01*
X017222Y005081D02*
X017295Y005057D01*
X017371Y005045D01*
X017372Y005045D01*
X017372Y005497D01*
X017448Y005497D01*
X017448Y005573D01*
X017372Y005573D01*
X017372Y005497D01*
X016920Y005497D01*
X016920Y005496D01*
X016932Y005420D01*
X016956Y005347D01*
X016991Y005278D01*
X017036Y005216D01*
X017091Y005161D01*
X017153Y005116D01*
X017222Y005081D01*
X017106Y005150D02*
X016880Y005150D01*
X016880Y005032D02*
X019920Y005032D01*
X019920Y005150D02*
X018718Y005150D01*
X018830Y005269D02*
X019920Y005269D01*
X019920Y005387D02*
X018879Y005387D01*
X018900Y005506D02*
X019920Y005506D01*
X019920Y005624D02*
X018900Y005624D01*
X018854Y005743D02*
X019920Y005743D01*
X019920Y005861D02*
X018777Y005861D01*
X018617Y005980D02*
X019920Y005980D01*
X019920Y006098D02*
X018158Y006098D01*
X018040Y006217D02*
X019920Y006217D01*
X019920Y006335D02*
X017921Y006335D01*
X017803Y006454D02*
X019920Y006454D01*
X019920Y006572D02*
X017684Y006572D01*
X017630Y006691D02*
X019920Y006691D01*
X017891Y005743D02*
X017854Y005743D01*
X017892Y005624D02*
X017920Y005624D01*
X017920Y005506D02*
X017448Y005506D01*
X017448Y005497D02*
X017900Y005497D01*
X017900Y005496D01*
X017888Y005420D01*
X017864Y005347D01*
X017829Y005278D01*
X017784Y005216D01*
X017729Y005161D01*
X017667Y005116D01*
X017598Y005081D01*
X017525Y005057D01*
X017449Y005045D01*
X017448Y005045D01*
X017448Y005497D01*
X017372Y005506D02*
X016880Y005506D01*
X016920Y005573D02*
X017372Y005573D01*
X017372Y006025D01*
X017371Y006025D01*
X017295Y006013D01*
X017222Y005989D01*
X017153Y005954D01*
X017091Y005909D01*
X017036Y005854D01*
X016991Y005792D01*
X016956Y005723D01*
X016932Y005650D01*
X016920Y005574D01*
X016920Y005573D01*
X016928Y005624D02*
X016880Y005624D01*
X016814Y005743D02*
X016966Y005743D01*
X017043Y005861D02*
X016695Y005861D01*
X016577Y005980D02*
X017203Y005980D01*
X017372Y005980D02*
X017448Y005980D01*
X017448Y005861D02*
X017372Y005861D01*
X017372Y005743D02*
X017448Y005743D01*
X017448Y005624D02*
X017372Y005624D01*
X017372Y005387D02*
X017448Y005387D01*
X017448Y005269D02*
X017372Y005269D01*
X017372Y005150D02*
X017448Y005150D01*
X017714Y005150D02*
X018102Y005150D01*
X017990Y005269D02*
X017822Y005269D01*
X017877Y005387D02*
X017941Y005387D01*
X016998Y005269D02*
X016880Y005269D01*
X016880Y005387D02*
X016943Y005387D01*
X016440Y005387D02*
X016020Y005387D01*
X016020Y005364D02*
X016020Y005520D01*
X015725Y005520D01*
X015725Y005225D01*
X015881Y005225D01*
X015922Y005236D01*
X015958Y005257D01*
X015988Y005287D01*
X016009Y005323D01*
X016020Y005364D01*
X015970Y005269D02*
X016440Y005269D01*
X016428Y005506D02*
X016020Y005506D01*
X016020Y005624D02*
X016310Y005624D01*
X016191Y005743D02*
X016010Y005743D01*
X016012Y005861D02*
X016073Y005861D01*
X015725Y005506D02*
X015695Y005506D01*
X015695Y005387D02*
X015725Y005387D01*
X015725Y005269D02*
X015695Y005269D01*
X015450Y005269D02*
X015370Y005269D01*
X017617Y005980D02*
X017654Y005980D01*
X015725Y006691D02*
X015695Y006691D01*
X015935Y007046D02*
X008017Y007046D01*
X007945Y007165D02*
X015886Y007165D01*
X015880Y007283D02*
X007950Y007283D01*
X007946Y007402D02*
X015885Y007402D01*
X015934Y007520D02*
X007897Y007520D01*
X007820Y007639D02*
X016014Y007639D01*
X016165Y007757D02*
X007682Y007757D01*
X007138Y007757D02*
X006682Y007757D01*
X006820Y007639D02*
X007000Y007639D01*
X006923Y007520D02*
X006897Y007520D01*
X006138Y007757D02*
X005682Y007757D01*
X005820Y007639D02*
X006000Y007639D01*
X005923Y007520D02*
X005897Y007520D01*
X003804Y006809D02*
X003684Y006809D01*
X003684Y006691D02*
X003804Y006691D01*
X003804Y006572D02*
X003684Y006572D01*
X003684Y006454D02*
X003804Y006454D01*
X011130Y004558D02*
X011310Y004558D01*
X011310Y004439D02*
X011130Y004439D01*
X011130Y004321D02*
X011310Y004321D01*
X011310Y004202D02*
X011130Y004202D01*
X011130Y004084D02*
X011310Y004084D01*
X011310Y003965D02*
X011130Y003965D01*
X011130Y003847D02*
X011310Y003847D01*
X011310Y003728D02*
X011130Y003728D01*
X012130Y003728D02*
X012342Y003728D01*
X012223Y003610D02*
X012130Y003610D01*
X012130Y003847D02*
X012460Y003847D01*
X012579Y003965D02*
X012130Y003965D01*
X015100Y003442D02*
X015692Y003442D01*
X016035Y003785D01*
X016408Y003847D02*
X017029Y003847D01*
X017600Y004084D02*
X017690Y004084D01*
X017690Y003965D02*
X017652Y003965D01*
X017910Y004035D02*
X017910Y003035D01*
X018130Y003017D02*
X019920Y003017D01*
X019920Y002899D02*
X018085Y002899D01*
X017966Y002780D02*
X019920Y002780D01*
X019920Y002662D02*
X017848Y002662D01*
X018703Y003136D02*
X019920Y003136D01*
X019920Y003254D02*
X018822Y003254D01*
X018873Y003373D02*
X019920Y003373D01*
X019920Y003491D02*
X018900Y003491D01*
X018900Y003610D02*
X019920Y003610D01*
X019920Y003728D02*
X018860Y003728D01*
X018791Y003847D02*
X019920Y003847D01*
X019920Y003965D02*
X018652Y003965D01*
X018600Y004084D02*
X019920Y004084D01*
X019920Y004202D02*
X018770Y004202D01*
X018852Y004321D02*
X019920Y004321D01*
X019920Y004439D02*
X018900Y004439D01*
X018900Y004558D02*
X019920Y004558D01*
X019920Y004676D02*
X018882Y004676D01*
X018833Y004795D02*
X019920Y004795D01*
X019920Y004913D02*
X018725Y004913D01*
X018095Y004913D02*
X017725Y004913D01*
X017833Y004795D02*
X017987Y004795D01*
X017938Y004676D02*
X017882Y004676D01*
X017900Y004558D02*
X017920Y004558D01*
X017920Y004439D02*
X017900Y004439D01*
X017884Y004321D02*
X017852Y004321D01*
X018151Y003965D02*
X018168Y003965D01*
X017410Y003535D02*
X016260Y003535D01*
X015960Y003235D01*
X014066Y006809D02*
X013730Y006809D01*
X016655Y007757D02*
X017165Y007757D01*
X017014Y007639D02*
X016806Y007639D01*
X016886Y007520D02*
X016934Y007520D01*
D29*
X014560Y005635D03*
X016260Y004935D03*
X015760Y004035D03*
X015960Y003235D03*
X014410Y002185D03*
X013760Y002185D03*
X013410Y002535D03*
X012810Y002185D03*
X011810Y001535D03*
X013160Y003035D03*
X012960Y003535D03*
X012938Y004363D03*
X010410Y004035D03*
X010410Y003535D03*
X009660Y004785D03*
X006010Y005135D03*
X005860Y004035D03*
X005460Y003535D03*
X002660Y002285D03*
X003210Y002010D03*
X002535Y000785D03*
X006660Y001785D03*
X015160Y001535D03*
X006910Y006535D03*
D30*
X003910Y006410D03*
X003535Y006160D03*
X001785Y006410D03*
X001410Y006160D03*
X001785Y002910D03*
X001410Y002660D03*
X003535Y002660D03*
X003910Y002910D03*
D31*
X008410Y002315D02*
X008410Y004755D01*
X007986Y005111D02*
X007910Y005035D01*
X007986Y005111D02*
X007986Y005835D01*
X006928Y005785D02*
X006828Y005535D01*
X006910Y005617D02*
X006910Y006535D01*
X006910Y006035D02*
X006910Y005803D01*
X006928Y005785D01*
X009660Y004785D02*
X009660Y003785D01*
X009320Y003445D01*
X009320Y002315D01*
D32*
X009320Y001410D01*
X006660Y001785D02*
X006660Y002235D01*
X006010Y005135D02*
X006010Y006385D01*
X006410Y006785D01*
X006410Y007285D01*
X007410Y007285D02*
X007986Y006709D01*
X007986Y005835D01*
X013410Y006535D02*
X014160Y006535D01*
X014260Y006635D01*
X015110Y006635D01*
D33*
X015110Y006085D02*
X014060Y006085D01*
X013567Y005592D01*
X013567Y004975D01*
X012938Y004975D02*
X012938Y004363D01*
X012835Y003910D02*
X014160Y003910D01*
X014637Y004387D01*
X015100Y004387D01*
X015760Y004435D02*
X015760Y004035D01*
X016035Y003785D02*
X016660Y004410D01*
X016660Y005585D01*
X016160Y006085D01*
X016210Y006085D01*
X016410Y006285D01*
X016410Y007285D01*
X017410Y007285D02*
X017410Y006535D01*
X018410Y005535D01*
X018410Y004535D02*
X017910Y004035D01*
X015760Y004435D02*
X015110Y005085D01*
X015110Y005535D01*
X015110Y006085D01*
X015710Y006085D02*
X016160Y006085D01*
X013567Y005592D02*
X013117Y005592D01*
X012938Y005413D01*
X012938Y004975D01*
X012623Y004975D02*
X012623Y005748D01*
X013410Y006535D01*
X012308Y005637D02*
X012308Y004975D01*
X010910Y005035D02*
X010810Y005135D01*
X010410Y005135D01*
X010910Y005035D02*
X010910Y003585D01*
X011053Y003442D01*
X011720Y003442D01*
X011720Y003128D02*
X011003Y003128D01*
X010910Y003035D01*
X010910Y002535D01*
X010810Y002435D01*
X010410Y002435D01*
X010410Y003035D02*
X010410Y003535D01*
X010410Y004035D02*
X010410Y004535D01*
X008410Y004755D02*
X008380Y004785D01*
X008160Y004785D01*
X007986Y004959D01*
X007986Y005111D01*
X006910Y005617D02*
X006828Y005535D01*
X005260Y004035D02*
X004445Y004850D01*
X003744Y004850D01*
X003744Y004535D02*
X004310Y004535D01*
X004560Y004285D01*
X004560Y003338D01*
X004910Y002988D01*
X005457Y003535D01*
X005460Y003535D01*
X005913Y003238D02*
X006160Y003485D01*
X006160Y003735D01*
X005860Y004035D01*
X005260Y004035D01*
X005913Y003238D02*
X005913Y002985D01*
X005910Y002988D01*
X006207Y002988D01*
X006360Y002835D01*
X006660Y002835D01*
X002811Y001115D02*
X002810Y001115D01*
X002810Y001060D01*
X002535Y000789D01*
X002535Y000785D01*
X011720Y002183D02*
X012358Y002183D01*
X012623Y001998D02*
X012623Y001595D01*
X012308Y001595D02*
X012248Y001535D01*
X011810Y001535D01*
X012623Y001998D02*
X012810Y002185D01*
X012323Y002498D02*
X011720Y002498D01*
X012323Y002498D02*
X012860Y003035D01*
X013160Y003035D01*
X012960Y003535D02*
X012238Y002813D01*
X011720Y002813D01*
X011720Y003128D02*
X012053Y003128D01*
X012835Y003910D01*
X015160Y001535D02*
X016410Y002785D01*
X017660Y002785D01*
X017910Y003035D01*
X015100Y002183D02*
X015098Y002185D01*
X014410Y002185D01*
X014512Y001595D02*
X014510Y001593D01*
X014210Y001535D02*
X014197Y001548D01*
X014197Y001595D01*
X013253Y001595D02*
X013253Y001278D01*
X012308Y005637D02*
X011410Y006535D01*
X009660Y006535D01*
D34*
X012710Y002535D02*
X012358Y002183D01*
X003644Y001278D02*
X003417Y001278D01*
X002990Y001705D01*
X002811Y001705D01*
X002811Y001410D02*
X002985Y001410D01*
X003432Y000963D01*
X003644Y000963D01*
D35*
X003744Y005165D02*
X004390Y005165D01*
X004610Y005385D01*
X005292Y005385D01*
X005292Y005535D01*
M02*
