G75*
G70*
%OFA0B0*%
%FSLAX24Y24*%
%IPPOS*%
%LPD*%
%AMOC8*
5,1,8,0,0,1.08239X$1,22.5*
%
%ADD10R,0.0300X0.0300*%
%ADD11R,0.0984X0.0197*%
%ADD12R,0.0984X0.0787*%
%ADD13R,0.0327X0.0248*%
%ADD14R,0.0748X0.1339*%
%ADD15R,0.0480X0.0880*%
%ADD16R,0.1417X0.0866*%
%ADD17R,0.0512X0.0591*%
%ADD18R,0.0236X0.0197*%
%ADD19R,0.0236X0.0236*%
%ADD20R,0.0256X0.0197*%
%ADD21R,0.0220X0.0500*%
%ADD22R,0.0500X0.0220*%
D10*
X006660Y002235D03*
X006660Y002835D03*
X008710Y001410D03*
X009310Y001410D03*
X010635Y001410D03*
X011235Y001410D03*
X010410Y002435D03*
X010410Y003035D03*
X010410Y004535D03*
X010410Y005135D03*
X009660Y005935D03*
X009660Y006535D03*
X015110Y006635D03*
X015710Y006635D03*
X015710Y006085D03*
X015110Y006085D03*
X015110Y005535D03*
X015710Y005535D03*
D11*
X003744Y005165D03*
X003744Y004850D03*
X003744Y004535D03*
X003744Y004220D03*
X003744Y003905D03*
D12*
X003744Y002763D03*
X001579Y002763D03*
X001579Y006307D03*
X003744Y006307D03*
D13*
X004910Y002988D03*
X005910Y002988D03*
X005910Y002082D03*
X004910Y002082D03*
D14*
X005292Y005535D03*
X006828Y005535D03*
D15*
X007500Y002315D03*
X008410Y002315D03*
X009320Y002315D03*
D16*
X008410Y004755D03*
D17*
X008734Y005835D03*
X007986Y005835D03*
D18*
X002259Y001115D03*
X002811Y001115D03*
X002811Y001705D03*
X002259Y001705D03*
D19*
X002259Y001410D03*
X002811Y001410D03*
D20*
X003644Y001278D03*
X003644Y001592D03*
X004176Y001592D03*
X004176Y001278D03*
X004176Y000963D03*
X003644Y000963D03*
X003644Y001907D03*
X004176Y001907D03*
D21*
X012308Y001595D03*
X012623Y001595D03*
X012938Y001595D03*
X013253Y001595D03*
X013567Y001595D03*
X013882Y001595D03*
X014197Y001595D03*
X014512Y001595D03*
X014512Y004975D03*
X014197Y004975D03*
X013882Y004975D03*
X013567Y004975D03*
X013253Y004975D03*
X012938Y004975D03*
X012623Y004975D03*
X012308Y004975D03*
D22*
X011720Y004387D03*
X011720Y004072D03*
X011720Y003757D03*
X011720Y003442D03*
X011720Y003128D03*
X011720Y002813D03*
X011720Y002498D03*
X011720Y002183D03*
X015100Y002183D03*
X015100Y002498D03*
X015100Y002813D03*
X015100Y003128D03*
X015100Y003442D03*
X015100Y003757D03*
X015100Y004072D03*
X015100Y004387D03*
M02*
