%
M48
M72
T01C0.0157
T02C0.0320
T03C0.0354
T04C0.0394
T05C0.0400
%
T01
X2535Y785
X3210Y2010
X2660Y2285
X5460Y3535
X5860Y4035
X6010Y5135
X6910Y6535
X9660Y4785
X10410Y4035
X10410Y3535
X12938Y4363
X12960Y3535
X13160Y3035
X13410Y2535
X13760Y2185
X14410Y2185
X15160Y1535
X12810Y2185
X11810Y1535
X15960Y3235
X15760Y4035
X16260Y4935
X14560Y5635
X6660Y1785
T02
X11410Y6535
X13410Y6535
T03
X7410Y7285
X6410Y7285
X5410Y7285
X2760Y5401
X2760Y3669
T04
X17410Y3535
X18410Y3535
X18410Y4535
X17410Y4535
X17410Y5535
X18410Y5535
T05
X17410Y7285
X16410Y7285
X16410Y1785
X17410Y1785
M30
