%
M48
M72
T01C0.0157
T02C0.0236
T03C0.0320
T04C0.0354
T05C0.0394
T06C0.0400
%
T01
X2535Y785
X3210Y2010
X2660Y2410
X5460Y3535
X5860Y4035
X6010Y5135
X6910Y6535
X9660Y4785
X10410Y4035
X10410Y3535
X12960Y3535
X13160Y3035
X13410Y2535
X13760Y2185
X14410Y2185
X15160Y1535
X12810Y2185
X11810Y1535
X15960Y3235
X15760Y4035
X16260Y4935
X14560Y5635
X12938Y4363
X6660Y1785
T02
X3910Y2910
X3535Y2660
X1785Y2910
X1410Y2660
X1410Y6160
X1785Y6410
X3535Y6160
X3910Y6410
X12410Y6535
T03
X11410Y6535
X13410Y6535
T04
X2760Y5401
X2760Y3669
T05
X17410Y3535
X18410Y3535
X18410Y4535
X17410Y4535
X17410Y5535
X18410Y5535
T06
X16410Y8035
X15410Y8035
X7410Y8035
X6410Y8035
X5410Y8035
X16035Y1035
X17035Y1035
M30
