G75*
G70*
%OFA0B0*%
%FSLAX24Y24*%
%IPPOS*%
%LPD*%
%AMOC8*
5,1,8,0,0,1.08239X$1,22.5*
%
%ADD10C,0.0520*%
%ADD11C,0.0660*%
%ADD12C,0.0600*%
%ADD13C,0.0120*%
%ADD14C,0.0317*%
%ADD15C,0.0396*%
%ADD16C,0.0400*%
%ADD17C,0.0240*%
%ADD18C,0.0160*%
D10*
X011410Y006535D03*
X013410Y006535D03*
D11*
X017410Y005535D03*
X018410Y005535D03*
X018410Y004535D03*
X017410Y004535D03*
X017410Y003535D03*
X018410Y003535D03*
D12*
X017035Y001035D03*
X016035Y001035D03*
X016410Y008035D03*
X015410Y008035D03*
X007410Y008035D03*
X006410Y008035D03*
X005410Y008035D03*
D13*
X001143Y000910D02*
X001428Y000746D01*
X001746Y000661D01*
X001910Y000650D01*
X002246Y000650D01*
X002216Y000722D01*
X002216Y000848D01*
X002265Y000966D01*
X002295Y000996D01*
X002295Y001383D01*
X002332Y001471D01*
X002399Y001538D01*
X002891Y002031D01*
X002891Y002073D01*
X002940Y002191D01*
X003029Y002280D01*
X003147Y002329D01*
X003273Y002329D01*
X003391Y002280D01*
X003480Y002191D01*
X003529Y002073D01*
X003529Y001947D01*
X003480Y001829D01*
X003391Y001740D01*
X003273Y001691D01*
X003231Y001691D01*
X002775Y001236D01*
X002775Y000996D01*
X002805Y000966D01*
X002854Y000848D01*
X002854Y000722D01*
X002824Y000650D01*
X015769Y000650D01*
X015645Y000774D01*
X015575Y000943D01*
X015575Y001126D01*
X015645Y001296D01*
X015774Y001425D01*
X015795Y001433D01*
X015795Y001811D01*
X015661Y001945D01*
X014621Y001945D01*
X014591Y001915D01*
X014473Y001866D01*
X014347Y001866D01*
X014229Y001915D01*
X014140Y002004D01*
X014091Y002122D01*
X014091Y002248D01*
X014111Y002295D01*
X013621Y002295D01*
X013591Y002265D01*
X013473Y002216D01*
X013347Y002216D01*
X013229Y002265D01*
X013140Y002354D01*
X013091Y002472D01*
X013091Y002598D01*
X013140Y002716D01*
X013140Y002716D01*
X013097Y002716D01*
X012979Y002765D01*
X012890Y002854D01*
X012841Y002972D01*
X012841Y003098D01*
X012890Y003216D01*
X012892Y003218D01*
X012779Y003265D01*
X012690Y003354D01*
X012650Y003451D01*
X012650Y002684D01*
X012831Y002504D01*
X012873Y002504D01*
X012991Y002455D01*
X013080Y002366D01*
X013129Y002248D01*
X013129Y002122D01*
X013080Y002004D01*
X012991Y001915D01*
X012873Y001866D01*
X012747Y001866D01*
X012629Y001915D01*
X012599Y001945D01*
X007159Y001945D01*
X006979Y001764D01*
X006979Y001722D01*
X006930Y001604D01*
X006841Y001515D01*
X006723Y001466D01*
X006597Y001466D01*
X006479Y001515D01*
X006390Y001604D01*
X006351Y001698D01*
X004751Y003298D01*
X004734Y003315D01*
X003876Y003315D01*
X002979Y002418D01*
X002979Y002347D01*
X002930Y002229D01*
X002841Y002140D01*
X002723Y002091D01*
X002597Y002091D01*
X002479Y002140D01*
X002390Y002229D01*
X002341Y002347D01*
X002341Y002473D01*
X002390Y002591D01*
X002479Y002680D01*
X002597Y002729D01*
X002668Y002729D01*
X003565Y003626D01*
X003694Y003755D01*
X004630Y003755D01*
X004630Y004091D01*
X004673Y004194D01*
X005701Y005222D01*
X005740Y005316D01*
X005829Y005405D01*
X005947Y005454D01*
X006073Y005454D01*
X006191Y005405D01*
X006280Y005316D01*
X006329Y005198D01*
X006329Y005072D01*
X006280Y004954D01*
X006191Y004865D01*
X006097Y004826D01*
X005190Y003919D01*
X005190Y003716D01*
X005279Y003805D01*
X005397Y003854D01*
X005523Y003854D01*
X005638Y003806D01*
X005590Y003854D01*
X005541Y003972D01*
X005541Y004098D01*
X005590Y004216D01*
X005679Y004305D01*
X005797Y004354D01*
X005923Y004354D01*
X006041Y004305D01*
X006071Y004275D01*
X010199Y004275D01*
X010229Y004305D01*
X010347Y004354D01*
X010473Y004354D01*
X010591Y004305D01*
X010680Y004216D01*
X010729Y004098D01*
X010729Y003972D01*
X010680Y003854D01*
X010611Y003785D01*
X010680Y003716D01*
X010729Y003598D01*
X010729Y003472D01*
X010680Y003354D01*
X010591Y003265D01*
X010473Y003216D01*
X010347Y003216D01*
X010229Y003265D01*
X010199Y003295D01*
X005671Y003295D01*
X005641Y003265D01*
X005595Y003246D01*
X006688Y002153D01*
X006924Y002388D01*
X007012Y002425D01*
X012231Y002425D01*
X012207Y002449D01*
X012170Y002537D01*
X012170Y003883D01*
X012207Y003971D01*
X012274Y004038D01*
X012598Y004363D01*
X012207Y004754D01*
X012170Y004842D01*
X012170Y006269D01*
X012106Y006332D01*
X012052Y006464D01*
X012052Y006606D01*
X012106Y006738D01*
X012207Y006839D01*
X012339Y006893D01*
X012481Y006893D01*
X012613Y006839D01*
X012714Y006738D01*
X012768Y006606D01*
X012768Y006464D01*
X012714Y006332D01*
X012650Y006269D01*
X012650Y004990D01*
X012958Y004681D01*
X013001Y004681D01*
X013118Y004633D01*
X013208Y004543D01*
X013256Y004426D01*
X013256Y004299D01*
X013208Y004182D01*
X013118Y004092D01*
X013001Y004044D01*
X012958Y004044D01*
X012650Y003736D01*
X012650Y003619D01*
X012690Y003716D01*
X012779Y003805D01*
X012897Y003854D01*
X013023Y003854D01*
X013141Y003805D01*
X013171Y003775D01*
X013811Y003775D01*
X014649Y004613D01*
X014737Y004650D01*
X016339Y004650D01*
X016944Y005255D01*
X017008Y005255D01*
X016991Y005278D01*
X016956Y005347D01*
X016932Y005420D01*
X016920Y005496D01*
X016920Y005497D01*
X017372Y005497D01*
X017372Y005573D01*
X016920Y005573D01*
X016920Y005574D01*
X016932Y005650D01*
X016956Y005723D01*
X016991Y005792D01*
X017036Y005854D01*
X017091Y005909D01*
X017153Y005954D01*
X017222Y005989D01*
X017295Y006013D01*
X017371Y006025D01*
X017372Y006025D01*
X017372Y005573D01*
X017448Y005573D01*
X017448Y006025D01*
X017449Y006025D01*
X017525Y006013D01*
X017598Y005989D01*
X017667Y005954D01*
X017729Y005909D01*
X017784Y005854D01*
X017829Y005792D01*
X017864Y005723D01*
X017888Y005650D01*
X017900Y005574D01*
X017900Y005573D01*
X017448Y005573D01*
X017448Y005497D01*
X017900Y005497D01*
X017900Y005496D01*
X017888Y005420D01*
X017864Y005347D01*
X017845Y005309D01*
X017936Y005400D01*
X017920Y005438D01*
X017920Y005632D01*
X017995Y005813D01*
X018132Y005950D01*
X018313Y006025D01*
X018507Y006025D01*
X018688Y005950D01*
X018825Y005813D01*
X018900Y005632D01*
X018900Y005438D01*
X018825Y005257D01*
X018688Y005120D01*
X018507Y005045D01*
X018313Y005045D01*
X018275Y005061D01*
X018188Y004973D01*
X018313Y005025D01*
X018507Y005025D01*
X018688Y004950D01*
X018825Y004813D01*
X018900Y004632D01*
X018900Y004438D01*
X018825Y004257D01*
X018688Y004120D01*
X018507Y004045D01*
X018313Y004045D01*
X018132Y004120D01*
X017995Y004257D01*
X017920Y004438D01*
X017920Y004632D01*
X017993Y004810D01*
X017958Y004795D01*
X017862Y004795D01*
X017827Y004810D01*
X017900Y004632D01*
X017900Y004438D01*
X017825Y004257D01*
X017688Y004120D01*
X017507Y004045D01*
X017313Y004045D01*
X017275Y004061D01*
X017188Y003973D01*
X017313Y004025D01*
X017507Y004025D01*
X017688Y003950D01*
X017825Y003813D01*
X017900Y003632D01*
X017900Y003438D01*
X017848Y003313D01*
X017936Y003400D01*
X017920Y003438D01*
X017920Y003632D01*
X017995Y003813D01*
X018132Y003950D01*
X018313Y004025D01*
X018507Y004025D01*
X018688Y003950D01*
X018825Y003813D01*
X018900Y003632D01*
X018900Y003438D01*
X018825Y003257D01*
X018688Y003120D01*
X018507Y003045D01*
X018313Y003045D01*
X018275Y003061D01*
X017546Y002332D01*
X017458Y002295D01*
X015989Y002295D01*
X016171Y002113D01*
X016171Y002113D01*
X016238Y002046D01*
X016275Y001958D01*
X016275Y001433D01*
X016296Y001425D01*
X016425Y001296D01*
X016495Y001126D01*
X016495Y000943D01*
X016425Y000774D01*
X016301Y000650D01*
X016782Y000650D01*
X016735Y000684D01*
X016684Y000735D01*
X016642Y000794D01*
X016609Y000858D01*
X016586Y000927D01*
X016576Y000995D01*
X016995Y000995D01*
X016995Y001075D01*
X016995Y001494D01*
X016927Y001484D01*
X016858Y001461D01*
X016794Y001428D01*
X016735Y001386D01*
X016684Y001335D01*
X016642Y001276D01*
X016609Y001212D01*
X016586Y001143D01*
X016576Y001075D01*
X016995Y001075D01*
X017075Y001075D01*
X017075Y001494D01*
X017143Y001484D01*
X017212Y001461D01*
X017276Y001428D01*
X017335Y001386D01*
X017386Y001335D01*
X017428Y001276D01*
X017461Y001212D01*
X017484Y001143D01*
X017494Y001075D01*
X017075Y001075D01*
X017075Y000995D01*
X017494Y000995D01*
X017484Y000927D01*
X017461Y000858D01*
X017428Y000794D01*
X017386Y000735D01*
X017335Y000684D01*
X017288Y000650D01*
X018097Y000650D01*
X018262Y000661D01*
X018580Y000746D01*
X018865Y000910D01*
X019097Y001143D01*
X019262Y001428D01*
X019262Y001428D01*
X019347Y001746D01*
X019358Y001910D01*
X019358Y007160D01*
X019347Y007324D01*
X019262Y007642D01*
X019097Y007927D01*
X018865Y008160D01*
X018580Y008324D01*
X018262Y008409D01*
X018098Y008420D01*
X016676Y008420D01*
X016800Y008296D01*
X016870Y008126D01*
X016870Y007943D01*
X016800Y007774D01*
X016671Y007645D01*
X016501Y007575D01*
X016318Y007575D01*
X016149Y007645D01*
X016020Y007774D01*
X015950Y007943D01*
X015950Y008126D01*
X016020Y008296D01*
X016144Y008420D01*
X015676Y008420D01*
X015800Y008296D01*
X015870Y008126D01*
X015870Y007943D01*
X015800Y007774D01*
X015671Y007645D01*
X015501Y007575D01*
X015318Y007575D01*
X015149Y007645D01*
X015020Y007774D01*
X014950Y007943D01*
X014950Y008126D01*
X015020Y008296D01*
X015144Y008420D01*
X007676Y008420D01*
X007800Y008296D01*
X007870Y008126D01*
X007870Y007943D01*
X007800Y007774D01*
X007671Y007645D01*
X007501Y007575D01*
X007318Y007575D01*
X007149Y007645D01*
X007020Y007774D01*
X006950Y007943D01*
X006950Y008126D01*
X007020Y008296D01*
X007144Y008420D01*
X006676Y008420D01*
X006800Y008296D01*
X006870Y008126D01*
X006870Y007943D01*
X006800Y007774D01*
X006671Y007645D01*
X006501Y007575D01*
X006318Y007575D01*
X006149Y007645D01*
X006020Y007774D01*
X005950Y007943D01*
X005950Y008126D01*
X006020Y008296D01*
X006144Y008420D01*
X005676Y008420D01*
X005800Y008296D01*
X005870Y008126D01*
X005870Y007943D01*
X005800Y007774D01*
X005690Y007664D01*
X005690Y007401D01*
X006276Y006815D01*
X006681Y006815D01*
X006706Y006840D01*
X006838Y006895D01*
X006982Y006895D01*
X007114Y006840D01*
X007215Y006739D01*
X007270Y006607D01*
X007270Y005434D01*
X007559Y005145D01*
X009732Y005145D01*
X009864Y005090D01*
X009965Y004989D01*
X010020Y004857D01*
X010020Y004713D01*
X009965Y004581D01*
X009864Y004480D01*
X009732Y004425D01*
X007338Y004425D01*
X007206Y004480D01*
X006706Y004980D01*
X006605Y005081D01*
X006550Y005213D01*
X006550Y006255D01*
X006104Y006255D01*
X006001Y006298D01*
X005251Y007048D01*
X005173Y007126D01*
X005130Y007229D01*
X005130Y007664D01*
X005020Y007774D01*
X004950Y007943D01*
X004950Y008126D01*
X005020Y008296D01*
X005144Y008420D01*
X001910Y008420D01*
X001746Y008409D01*
X001428Y008324D01*
X001143Y008160D01*
X000910Y007927D01*
X000746Y007642D01*
X000661Y007324D01*
X000650Y007160D01*
X000650Y001910D01*
X000661Y001746D01*
X000746Y001428D01*
X000910Y001143D01*
X001143Y000910D01*
X001189Y000884D02*
X002231Y000884D01*
X002216Y000766D02*
X001394Y000766D01*
X001051Y001003D02*
X002295Y001003D01*
X002295Y001121D02*
X000932Y001121D01*
X000855Y001240D02*
X002295Y001240D01*
X002295Y001358D02*
X000786Y001358D01*
X000733Y001477D02*
X002337Y001477D01*
X002456Y001595D02*
X000701Y001595D01*
X000669Y001714D02*
X002574Y001714D01*
X002693Y001832D02*
X000655Y001832D01*
X000650Y001951D02*
X002811Y001951D01*
X002891Y002069D02*
X000650Y002069D01*
X000650Y002188D02*
X002432Y002188D01*
X002358Y002306D02*
X000650Y002306D01*
X000650Y002425D02*
X002341Y002425D01*
X002370Y002543D02*
X000650Y002543D01*
X000650Y002662D02*
X002461Y002662D01*
X002719Y002780D02*
X000650Y002780D01*
X000650Y002899D02*
X002837Y002899D01*
X002956Y003017D02*
X000650Y003017D01*
X000650Y003136D02*
X003074Y003136D01*
X003193Y003254D02*
X002849Y003254D01*
X002843Y003252D02*
X002996Y003315D01*
X003114Y003433D01*
X003177Y003586D01*
X003177Y003752D01*
X003114Y003905D01*
X002996Y004023D01*
X002843Y004086D01*
X002677Y004086D01*
X002524Y004023D01*
X002406Y003905D01*
X002343Y003752D01*
X002343Y003586D01*
X002406Y003433D01*
X002524Y003315D01*
X002677Y003252D01*
X002843Y003252D01*
X002671Y003254D02*
X000650Y003254D01*
X000650Y003373D02*
X002466Y003373D01*
X002382Y003491D02*
X000650Y003491D01*
X000650Y003610D02*
X002343Y003610D01*
X002343Y003728D02*
X000650Y003728D01*
X000650Y003847D02*
X002382Y003847D01*
X002466Y003965D02*
X000650Y003965D01*
X000650Y004084D02*
X002671Y004084D01*
X002849Y004084D02*
X004630Y004084D01*
X004630Y003965D02*
X003054Y003965D01*
X003138Y003847D02*
X004630Y003847D01*
X005190Y003847D02*
X005379Y003847D01*
X005541Y003847D02*
X005598Y003847D01*
X005544Y003965D02*
X005236Y003965D01*
X005354Y004084D02*
X005541Y004084D01*
X005584Y004202D02*
X005473Y004202D01*
X005591Y004321D02*
X005716Y004321D01*
X005710Y004439D02*
X007305Y004439D01*
X007128Y004558D02*
X005828Y004558D01*
X005947Y004676D02*
X007010Y004676D01*
X006891Y004795D02*
X006065Y004795D01*
X006239Y004913D02*
X006773Y004913D01*
X006654Y005032D02*
X006312Y005032D01*
X006329Y005150D02*
X006576Y005150D01*
X006550Y005269D02*
X006300Y005269D01*
X006209Y005387D02*
X006550Y005387D01*
X006550Y005506D02*
X003168Y005506D01*
X003177Y005484D02*
X003114Y005637D01*
X002996Y005755D01*
X002843Y005818D01*
X002677Y005818D01*
X002524Y005755D01*
X002406Y005637D01*
X002343Y005484D01*
X002343Y005318D01*
X002406Y005165D01*
X002524Y005047D01*
X002677Y004984D01*
X002843Y004984D01*
X002996Y005047D01*
X003114Y005165D01*
X003177Y005318D01*
X003177Y005484D01*
X003177Y005387D02*
X005811Y005387D01*
X005720Y005269D02*
X003157Y005269D01*
X003099Y005150D02*
X005629Y005150D01*
X005511Y005032D02*
X002958Y005032D01*
X002562Y005032D02*
X000650Y005032D01*
X000650Y005150D02*
X002421Y005150D01*
X002363Y005269D02*
X000650Y005269D01*
X000650Y005387D02*
X002343Y005387D01*
X002352Y005506D02*
X000650Y005506D01*
X000650Y005624D02*
X002401Y005624D01*
X002511Y005743D02*
X000650Y005743D01*
X000650Y005861D02*
X006550Y005861D01*
X006550Y005743D02*
X003009Y005743D01*
X003119Y005624D02*
X006550Y005624D01*
X006550Y005980D02*
X000650Y005980D01*
X000650Y006098D02*
X006550Y006098D01*
X006550Y006217D02*
X000650Y006217D01*
X000650Y006335D02*
X005964Y006335D01*
X005846Y006454D02*
X000650Y006454D01*
X000650Y006572D02*
X005727Y006572D01*
X005609Y006691D02*
X000650Y006691D01*
X000650Y006809D02*
X005490Y006809D01*
X005372Y006928D02*
X000650Y006928D01*
X000650Y007046D02*
X005253Y007046D01*
X005157Y007165D02*
X000650Y007165D01*
X000658Y007283D02*
X005130Y007283D01*
X005130Y007402D02*
X000681Y007402D01*
X000713Y007520D02*
X005130Y007520D01*
X005130Y007639D02*
X000745Y007639D01*
X000812Y007757D02*
X005037Y007757D01*
X004978Y007876D02*
X000881Y007876D01*
X000977Y007994D02*
X004950Y007994D01*
X004950Y008113D02*
X001096Y008113D01*
X001267Y008231D02*
X004993Y008231D01*
X005074Y008350D02*
X001523Y008350D01*
X005746Y008350D02*
X006074Y008350D01*
X005993Y008231D02*
X005827Y008231D01*
X005870Y008113D02*
X005950Y008113D01*
X005950Y007994D02*
X005870Y007994D01*
X005842Y007876D02*
X005978Y007876D01*
X006037Y007757D02*
X005783Y007757D01*
X005690Y007639D02*
X006165Y007639D01*
X005690Y007520D02*
X019294Y007520D01*
X019263Y007639D02*
X016655Y007639D01*
X016783Y007757D02*
X019195Y007757D01*
X019127Y007876D02*
X016842Y007876D01*
X016870Y007994D02*
X019030Y007994D01*
X018912Y008113D02*
X016870Y008113D01*
X016827Y008231D02*
X018741Y008231D01*
X018485Y008350D02*
X016746Y008350D01*
X016074Y008350D02*
X015746Y008350D01*
X015827Y008231D02*
X015993Y008231D01*
X015950Y008113D02*
X015870Y008113D01*
X015870Y007994D02*
X015950Y007994D01*
X015978Y007876D02*
X015842Y007876D01*
X015783Y007757D02*
X016037Y007757D01*
X016165Y007639D02*
X015655Y007639D01*
X015165Y007639D02*
X007655Y007639D01*
X007783Y007757D02*
X015037Y007757D01*
X014978Y007876D02*
X007842Y007876D01*
X007870Y007994D02*
X014950Y007994D01*
X014950Y008113D02*
X007870Y008113D01*
X007827Y008231D02*
X014993Y008231D01*
X015074Y008350D02*
X007746Y008350D01*
X007074Y008350D02*
X006746Y008350D01*
X006827Y008231D02*
X006993Y008231D01*
X006950Y008113D02*
X006870Y008113D01*
X006870Y007994D02*
X006950Y007994D01*
X006978Y007876D02*
X006842Y007876D01*
X006783Y007757D02*
X007037Y007757D01*
X007165Y007639D02*
X006655Y007639D01*
X005808Y007283D02*
X019349Y007283D01*
X019357Y007165D02*
X005926Y007165D01*
X006045Y007046D02*
X019358Y007046D01*
X019358Y006928D02*
X013560Y006928D01*
X013494Y006955D02*
X013326Y006955D01*
X013172Y006891D01*
X013054Y006773D01*
X012990Y006619D01*
X012990Y006451D01*
X013054Y006297D01*
X013172Y006179D01*
X013326Y006115D01*
X013494Y006115D01*
X013648Y006179D01*
X013766Y006297D01*
X013830Y006451D01*
X013830Y006619D01*
X013766Y006773D01*
X013648Y006891D01*
X013494Y006955D01*
X013260Y006928D02*
X011560Y006928D01*
X011494Y006955D02*
X011326Y006955D01*
X011172Y006891D01*
X011054Y006773D01*
X010990Y006619D01*
X010990Y006451D01*
X011054Y006297D01*
X011172Y006179D01*
X011326Y006115D01*
X011494Y006115D01*
X011648Y006179D01*
X011766Y006297D01*
X011830Y006451D01*
X011830Y006619D01*
X011766Y006773D01*
X011648Y006891D01*
X011494Y006955D01*
X011260Y006928D02*
X006163Y006928D01*
X005690Y007402D02*
X019326Y007402D01*
X019358Y006809D02*
X013730Y006809D01*
X013800Y006691D02*
X019358Y006691D01*
X019358Y006572D02*
X013830Y006572D01*
X013830Y006454D02*
X019358Y006454D01*
X019358Y006335D02*
X013782Y006335D01*
X013685Y006217D02*
X019358Y006217D01*
X019358Y006098D02*
X012650Y006098D01*
X012650Y006217D02*
X013135Y006217D01*
X013038Y006335D02*
X012715Y006335D01*
X012764Y006454D02*
X012990Y006454D01*
X012990Y006572D02*
X012768Y006572D01*
X012733Y006691D02*
X013020Y006691D01*
X013090Y006809D02*
X012642Y006809D01*
X012178Y006809D02*
X011730Y006809D01*
X011800Y006691D02*
X012087Y006691D01*
X012052Y006572D02*
X011830Y006572D01*
X011830Y006454D02*
X012056Y006454D01*
X012105Y006335D02*
X011782Y006335D01*
X011685Y006217D02*
X012170Y006217D01*
X012170Y006098D02*
X007270Y006098D01*
X007270Y006217D02*
X011135Y006217D01*
X011038Y006335D02*
X007270Y006335D01*
X007270Y006454D02*
X010990Y006454D01*
X010990Y006572D02*
X007270Y006572D01*
X007235Y006691D02*
X011020Y006691D01*
X011090Y006809D02*
X007145Y006809D01*
X007270Y005980D02*
X012170Y005980D01*
X012170Y005861D02*
X007270Y005861D01*
X007270Y005743D02*
X012170Y005743D01*
X012170Y005624D02*
X007270Y005624D01*
X007270Y005506D02*
X012170Y005506D01*
X012170Y005387D02*
X007317Y005387D01*
X007436Y005269D02*
X012170Y005269D01*
X012170Y005150D02*
X007554Y005150D01*
X006004Y004321D02*
X010266Y004321D01*
X010554Y004321D02*
X012556Y004321D01*
X012522Y004439D02*
X009765Y004439D01*
X009942Y004558D02*
X012403Y004558D01*
X012285Y004676D02*
X010005Y004676D01*
X010020Y004795D02*
X012190Y004795D01*
X012170Y004913D02*
X009997Y004913D01*
X009923Y005032D02*
X012170Y005032D01*
X012650Y005032D02*
X016720Y005032D01*
X016839Y005150D02*
X012650Y005150D01*
X012650Y005269D02*
X016998Y005269D01*
X016943Y005387D02*
X012650Y005387D01*
X012650Y005506D02*
X017372Y005506D01*
X017448Y005506D02*
X017920Y005506D01*
X017920Y005624D02*
X017892Y005624D01*
X017854Y005743D02*
X017966Y005743D01*
X018043Y005861D02*
X017777Y005861D01*
X017617Y005980D02*
X018203Y005980D01*
X018617Y005980D02*
X019358Y005980D01*
X019358Y005861D02*
X018777Y005861D01*
X018854Y005743D02*
X019358Y005743D01*
X019358Y005624D02*
X018900Y005624D01*
X018900Y005506D02*
X019358Y005506D01*
X019358Y005387D02*
X018879Y005387D01*
X018830Y005269D02*
X019358Y005269D01*
X019358Y005150D02*
X018718Y005150D01*
X018246Y005032D02*
X019358Y005032D01*
X019358Y004913D02*
X018725Y004913D01*
X018833Y004795D02*
X019358Y004795D01*
X019358Y004676D02*
X018882Y004676D01*
X018900Y004558D02*
X019358Y004558D01*
X019358Y004439D02*
X018900Y004439D01*
X018852Y004321D02*
X019358Y004321D01*
X019358Y004202D02*
X018770Y004202D01*
X018600Y004084D02*
X019358Y004084D01*
X019358Y003965D02*
X018652Y003965D01*
X018791Y003847D02*
X019358Y003847D01*
X019358Y003728D02*
X018860Y003728D01*
X018900Y003610D02*
X019358Y003610D01*
X019358Y003491D02*
X018900Y003491D01*
X018873Y003373D02*
X019358Y003373D01*
X019358Y003254D02*
X018822Y003254D01*
X018703Y003136D02*
X019358Y003136D01*
X019358Y003017D02*
X018231Y003017D01*
X018113Y002899D02*
X019358Y002899D01*
X019358Y002780D02*
X017994Y002780D01*
X017876Y002662D02*
X019358Y002662D01*
X019358Y002543D02*
X017757Y002543D01*
X017639Y002425D02*
X019358Y002425D01*
X019358Y002306D02*
X017484Y002306D01*
X016275Y001951D02*
X019358Y001951D01*
X019352Y001832D02*
X016275Y001832D01*
X016275Y001714D02*
X019338Y001714D01*
X019306Y001595D02*
X016275Y001595D01*
X016275Y001477D02*
X016905Y001477D01*
X016995Y001477D02*
X017075Y001477D01*
X017165Y001477D02*
X019275Y001477D01*
X019221Y001358D02*
X017363Y001358D01*
X017075Y001358D02*
X016995Y001358D01*
X016707Y001358D02*
X016363Y001358D01*
X016448Y001240D02*
X016623Y001240D01*
X016583Y001121D02*
X016495Y001121D01*
X016495Y001003D02*
X016995Y001003D01*
X017075Y001003D02*
X018957Y001003D01*
X019075Y001121D02*
X017487Y001121D01*
X017447Y001240D02*
X019153Y001240D01*
X018819Y000884D02*
X017470Y000884D01*
X017408Y000766D02*
X018614Y000766D01*
X017075Y001121D02*
X016995Y001121D01*
X016995Y001240D02*
X017075Y001240D01*
X016600Y000884D02*
X016470Y000884D01*
X016416Y000766D02*
X016662Y000766D01*
X015654Y000766D02*
X002854Y000766D01*
X002839Y000884D02*
X015600Y000884D01*
X015575Y001003D02*
X002775Y001003D01*
X002775Y001121D02*
X015575Y001121D01*
X015622Y001240D02*
X015280Y001240D01*
X015223Y001216D02*
X015341Y001265D01*
X015430Y001354D01*
X015479Y001472D01*
X015479Y001598D01*
X015430Y001716D01*
X015341Y001805D01*
X015223Y001854D01*
X015097Y001854D01*
X014979Y001805D01*
X014949Y001775D01*
X012021Y001775D01*
X011991Y001805D01*
X011873Y001854D01*
X011747Y001854D01*
X011629Y001805D01*
X011540Y001716D01*
X011491Y001598D01*
X011491Y001472D01*
X011540Y001354D01*
X011629Y001265D01*
X011747Y001216D01*
X011873Y001216D01*
X011991Y001265D01*
X012021Y001295D01*
X014949Y001295D01*
X014979Y001265D01*
X015097Y001216D01*
X015223Y001216D01*
X015040Y001240D02*
X011930Y001240D01*
X011690Y001240D02*
X002779Y001240D01*
X002897Y001358D02*
X011538Y001358D01*
X011491Y001477D02*
X006748Y001477D01*
X006572Y001477D02*
X003016Y001477D01*
X003134Y001595D02*
X006399Y001595D01*
X006336Y001714D02*
X003327Y001714D01*
X003481Y001832D02*
X006217Y001832D01*
X006099Y001951D02*
X003529Y001951D01*
X003529Y002069D02*
X005980Y002069D01*
X005862Y002188D02*
X003481Y002188D01*
X003328Y002306D02*
X005743Y002306D01*
X005625Y002425D02*
X002986Y002425D01*
X003104Y002543D02*
X005506Y002543D01*
X005388Y002662D02*
X003223Y002662D01*
X003341Y002780D02*
X005269Y002780D01*
X005151Y002899D02*
X003460Y002899D01*
X003578Y003017D02*
X005032Y003017D01*
X004914Y003136D02*
X003697Y003136D01*
X003815Y003254D02*
X004795Y003254D01*
X004910Y003535D02*
X003785Y003535D01*
X002660Y002410D01*
X002962Y002306D02*
X003092Y002306D01*
X002939Y002188D02*
X002888Y002188D01*
X003054Y003373D02*
X003311Y003373D01*
X003430Y003491D02*
X003138Y003491D01*
X003177Y003610D02*
X003548Y003610D01*
X003667Y003728D02*
X003177Y003728D01*
X004681Y004202D02*
X000650Y004202D01*
X000650Y004321D02*
X004800Y004321D01*
X004918Y004439D02*
X000650Y004439D01*
X000650Y004558D02*
X005037Y004558D01*
X005155Y004676D02*
X000650Y004676D01*
X000650Y004795D02*
X005274Y004795D01*
X005392Y004913D02*
X000650Y004913D01*
X005190Y003728D02*
X005202Y003728D01*
X005615Y003254D02*
X010255Y003254D01*
X010565Y003254D02*
X012170Y003254D01*
X012170Y003136D02*
X005705Y003136D01*
X005824Y003017D02*
X012170Y003017D01*
X012170Y002899D02*
X005942Y002899D01*
X006061Y002780D02*
X012170Y002780D01*
X012170Y002662D02*
X006179Y002662D01*
X006298Y002543D02*
X012170Y002543D01*
X012673Y002662D02*
X013117Y002662D01*
X013091Y002543D02*
X012791Y002543D01*
X013021Y002425D02*
X013111Y002425D01*
X013105Y002306D02*
X013188Y002306D01*
X013129Y002188D02*
X014091Y002188D01*
X014113Y002069D02*
X013107Y002069D01*
X013026Y001951D02*
X014194Y001951D01*
X015044Y001832D02*
X011926Y001832D01*
X011694Y001832D02*
X007046Y001832D01*
X006975Y001714D02*
X011539Y001714D01*
X011491Y001595D02*
X006921Y001595D01*
X006723Y002188D02*
X006653Y002188D01*
X006535Y002306D02*
X006842Y002306D01*
X007011Y002425D02*
X006416Y002425D01*
X010688Y003373D02*
X012170Y003373D01*
X012170Y003491D02*
X010729Y003491D01*
X010724Y003610D02*
X012170Y003610D01*
X012170Y003728D02*
X010668Y003728D01*
X010672Y003847D02*
X012170Y003847D01*
X012204Y003965D02*
X010726Y003965D01*
X010729Y004084D02*
X012319Y004084D01*
X012438Y004202D02*
X010686Y004202D01*
X012650Y003728D02*
X012702Y003728D01*
X012761Y003847D02*
X012879Y003847D01*
X012879Y003965D02*
X014001Y003965D01*
X014119Y004084D02*
X013097Y004084D01*
X013216Y004202D02*
X014238Y004202D01*
X014356Y004321D02*
X013256Y004321D01*
X013251Y004439D02*
X014475Y004439D01*
X014593Y004558D02*
X013193Y004558D01*
X013014Y004676D02*
X016365Y004676D01*
X016483Y004795D02*
X012845Y004795D01*
X012727Y004913D02*
X016602Y004913D01*
X017035Y005035D02*
X016410Y004410D01*
X015760Y004035D02*
X015760Y003760D01*
X015960Y003560D01*
X015960Y003235D01*
X017652Y003965D02*
X018168Y003965D01*
X018220Y004084D02*
X017600Y004084D01*
X017770Y004202D02*
X018050Y004202D01*
X017968Y004321D02*
X017852Y004321D01*
X017900Y004439D02*
X017920Y004439D01*
X017920Y004558D02*
X017900Y004558D01*
X017882Y004676D02*
X017938Y004676D01*
X017987Y004795D02*
X017833Y004795D01*
X017910Y005035D02*
X017035Y005035D01*
X017877Y005387D02*
X017923Y005387D01*
X017448Y005624D02*
X017372Y005624D01*
X017372Y005743D02*
X017448Y005743D01*
X017448Y005861D02*
X017372Y005861D01*
X017372Y005980D02*
X017448Y005980D01*
X017203Y005980D02*
X012650Y005980D01*
X012650Y005861D02*
X017043Y005861D01*
X016966Y005743D02*
X012650Y005743D01*
X012650Y005624D02*
X016928Y005624D01*
X017791Y003847D02*
X018029Y003847D01*
X017960Y003728D02*
X017860Y003728D01*
X017900Y003610D02*
X017920Y003610D01*
X017920Y003491D02*
X017900Y003491D01*
X017908Y003373D02*
X017873Y003373D01*
X019358Y002188D02*
X016097Y002188D01*
X016215Y002069D02*
X019358Y002069D01*
X015795Y001714D02*
X015431Y001714D01*
X015276Y001832D02*
X015774Y001832D01*
X015795Y001595D02*
X015479Y001595D01*
X015479Y001477D02*
X015795Y001477D01*
X015707Y001358D02*
X015432Y001358D01*
X012964Y002780D02*
X012650Y002780D01*
X012650Y002899D02*
X012872Y002899D01*
X012841Y003017D02*
X012650Y003017D01*
X012650Y003136D02*
X012857Y003136D01*
X012805Y003254D02*
X012650Y003254D01*
X012650Y003373D02*
X012682Y003373D01*
X013041Y003847D02*
X013882Y003847D01*
D14*
X012960Y003535D03*
X013160Y003035D03*
X013410Y002535D03*
X013760Y002185D03*
X014410Y002185D03*
X015160Y001535D03*
X012810Y002185D03*
X011810Y001535D03*
X015960Y003235D03*
X015760Y004035D03*
X016260Y004935D03*
X014560Y005635D03*
X012938Y004363D03*
X010410Y004035D03*
X010410Y003535D03*
X009660Y004785D03*
X006010Y005135D03*
X005860Y004035D03*
X005460Y003535D03*
X002660Y002410D03*
X003210Y002010D03*
X002535Y000785D03*
X006660Y001785D03*
X006910Y006535D03*
D15*
X003910Y006410D03*
X003535Y006160D03*
X001785Y006410D03*
X001410Y006160D03*
X001785Y002910D03*
X001410Y002660D03*
X003535Y002660D03*
X003910Y002910D03*
X012410Y006535D03*
D16*
X009660Y004785D02*
X007410Y004785D01*
X006910Y005285D01*
X006910Y006535D01*
D17*
X006160Y006535D01*
X005410Y007285D01*
X005410Y008035D01*
X006010Y005135D02*
X004910Y004035D01*
X004910Y003535D01*
X006660Y001785D01*
D18*
X007060Y002185D01*
X012810Y002185D01*
X012410Y002585D01*
X012410Y003835D01*
X012938Y004363D01*
X012410Y004890D01*
X012410Y006535D01*
X014785Y004410D02*
X013910Y003535D01*
X012960Y003535D01*
X013160Y003035D02*
X013660Y003035D01*
X013835Y002860D01*
X016285Y002860D01*
X016660Y003235D01*
X016660Y003785D01*
X017410Y004535D01*
X016410Y004410D02*
X014785Y004410D01*
X017910Y005035D02*
X018410Y005535D01*
X018410Y003535D02*
X017410Y002535D01*
X013410Y002535D01*
X014410Y002185D02*
X015760Y002185D01*
X016035Y001910D01*
X016035Y001035D01*
X015160Y001535D02*
X011810Y001535D01*
X010410Y003535D02*
X005460Y003535D01*
X005860Y004035D02*
X010410Y004035D01*
X003210Y002010D02*
X002535Y001335D01*
X002535Y000785D01*
M02*
