G75*
G70*
%OFA0B0*%
%FSLAX24Y24*%
%IPPOS*%
%LPD*%
%AMOC8*
5,1,8,0,0,1.08239X$1,22.5*
%
%ADD10C,0.0050*%
%ADD11C,0.0120*%
%ADD12C,0.0080*%
%ADD13C,0.0060*%
%ADD14C,0.0100*%
%ADD15C,0.0067*%
D10*
X002456Y001095D02*
X002614Y001095D01*
X002614Y001725D02*
X002456Y001725D01*
X004460Y001115D02*
X004550Y001205D01*
X004550Y000935D01*
X004460Y000935D02*
X004640Y000935D01*
X004755Y000935D02*
X004755Y001205D01*
X004890Y001115D02*
X004755Y001025D01*
X004890Y000935D01*
X004945Y001560D02*
X005035Y001650D01*
X005035Y001830D01*
X005149Y001695D02*
X005239Y001785D01*
X005329Y001830D01*
X005284Y001695D02*
X005149Y001695D01*
X005149Y001605D01*
X005194Y001560D01*
X005284Y001560D01*
X005329Y001605D01*
X005329Y001650D01*
X005284Y001695D01*
X004945Y001560D02*
X004855Y001650D01*
X004855Y001830D01*
X004740Y001785D02*
X004740Y001740D01*
X004695Y001695D01*
X004740Y001650D01*
X004740Y001605D01*
X004695Y001560D01*
X004605Y001560D01*
X004560Y001605D01*
X004650Y001695D02*
X004695Y001695D01*
X004740Y001785D02*
X004695Y001830D01*
X004605Y001830D01*
X004560Y001785D01*
X005560Y001785D02*
X005605Y001830D01*
X005695Y001830D01*
X005740Y001785D01*
X005740Y001740D01*
X005695Y001695D01*
X005740Y001650D01*
X005740Y001605D01*
X005695Y001560D01*
X005605Y001560D01*
X005560Y001605D01*
X005650Y001695D02*
X005695Y001695D01*
X005855Y001650D02*
X005945Y001560D01*
X006035Y001650D01*
X006035Y001830D01*
X006149Y001695D02*
X006239Y001785D01*
X006329Y001830D01*
X006284Y001695D02*
X006149Y001695D01*
X006149Y001605D01*
X006194Y001560D01*
X006284Y001560D01*
X006329Y001605D01*
X006329Y001650D01*
X006284Y001695D01*
X005855Y001650D02*
X005855Y001830D01*
X007110Y001485D02*
X007200Y001575D01*
X007200Y001305D01*
X007110Y001305D02*
X007290Y001305D01*
X007405Y001350D02*
X007585Y001530D01*
X007585Y001350D01*
X007540Y001305D01*
X007450Y001305D01*
X007405Y001350D01*
X007405Y001530D01*
X007450Y001575D01*
X007540Y001575D01*
X007585Y001530D01*
X007699Y001530D02*
X007744Y001575D01*
X007834Y001575D01*
X007879Y001530D01*
X007699Y001350D01*
X007744Y001305D01*
X007834Y001305D01*
X007879Y001350D01*
X007879Y001530D01*
X007994Y001485D02*
X008129Y001485D01*
X008174Y001440D01*
X008174Y001305D01*
X008289Y001305D02*
X008289Y001575D01*
X008469Y001575D01*
X008379Y001440D02*
X008289Y001440D01*
X007994Y001485D02*
X007994Y001305D01*
X007699Y001350D02*
X007699Y001530D01*
X010260Y001680D02*
X010440Y001680D01*
X010350Y001680D02*
X010350Y001950D01*
X010260Y001860D01*
X010555Y001905D02*
X010555Y001725D01*
X010735Y001905D01*
X010735Y001725D01*
X010690Y001680D01*
X010600Y001680D01*
X010555Y001725D01*
X010849Y001725D02*
X010894Y001680D01*
X010984Y001680D01*
X011029Y001725D01*
X011029Y001905D01*
X010849Y001725D01*
X010849Y001905D01*
X010894Y001950D01*
X010984Y001950D01*
X011029Y001905D01*
X011144Y001860D02*
X011279Y001860D01*
X011324Y001815D01*
X011324Y001680D01*
X011439Y001680D02*
X011439Y001950D01*
X011619Y001950D01*
X011529Y001815D02*
X011439Y001815D01*
X011144Y001860D02*
X011144Y001680D01*
X010735Y001905D02*
X010690Y001950D01*
X010600Y001950D01*
X010555Y001905D01*
X010880Y002235D02*
X010880Y002370D01*
X010925Y002415D01*
X010970Y002415D01*
X011015Y002370D01*
X011015Y002280D01*
X010970Y002235D01*
X010880Y002235D01*
X010790Y002325D01*
X010745Y002415D01*
X010790Y002530D02*
X010835Y002530D01*
X010880Y002575D01*
X010880Y002665D01*
X010925Y002710D01*
X010970Y002710D01*
X011015Y002665D01*
X011015Y002575D01*
X010970Y002530D01*
X010925Y002530D01*
X010880Y002575D01*
X010880Y002665D02*
X010835Y002710D01*
X010790Y002710D01*
X010745Y002665D01*
X010745Y002575D01*
X010790Y002530D01*
X010745Y002824D02*
X010745Y002959D01*
X010790Y003004D01*
X010880Y003004D01*
X010925Y002959D01*
X010925Y002824D01*
X011015Y002824D02*
X010745Y002824D01*
X010925Y002914D02*
X011015Y003004D01*
X009553Y003085D02*
X009508Y003040D01*
X009418Y003040D01*
X009373Y003085D01*
X009258Y003085D02*
X009213Y003040D01*
X009123Y003040D01*
X009078Y003085D01*
X009168Y003175D02*
X009213Y003175D01*
X009258Y003130D01*
X009258Y003085D01*
X009213Y003175D02*
X009258Y003220D01*
X009258Y003265D01*
X009213Y003310D01*
X009123Y003310D01*
X009078Y003265D01*
X008963Y003265D02*
X008963Y003310D01*
X008783Y003310D01*
X008963Y003265D02*
X008783Y003085D01*
X008783Y003040D01*
X008669Y003040D02*
X008489Y003040D01*
X008579Y003040D02*
X008579Y003310D01*
X008489Y003220D01*
X008374Y003040D02*
X008194Y003040D01*
X008284Y003040D02*
X008284Y003310D01*
X008194Y003220D01*
X007989Y003310D02*
X007899Y003220D01*
X007785Y003265D02*
X007785Y003085D01*
X007740Y003040D01*
X007605Y003040D01*
X007605Y003310D01*
X007740Y003310D01*
X007785Y003265D01*
X007989Y003310D02*
X007989Y003040D01*
X007899Y003040D02*
X008079Y003040D01*
X007490Y003040D02*
X007310Y003040D01*
X007310Y003310D01*
X007005Y003360D02*
X007005Y003405D01*
X006960Y003450D01*
X006870Y003450D01*
X006825Y003405D01*
X006715Y003360D02*
X006580Y003270D01*
X006715Y003180D01*
X006825Y003180D02*
X007005Y003360D01*
X007005Y003180D02*
X006825Y003180D01*
X006580Y003180D02*
X006580Y003450D01*
X006465Y003405D02*
X006420Y003450D01*
X006330Y003450D01*
X006285Y003405D01*
X006465Y003405D02*
X006465Y003360D01*
X006285Y003180D01*
X006465Y003180D01*
X006603Y004435D02*
X006603Y004705D01*
X006738Y004705D01*
X006783Y004660D01*
X006783Y004570D01*
X006738Y004525D01*
X006603Y004525D01*
X006988Y004435D02*
X006988Y004705D01*
X006898Y004705D02*
X007078Y004705D01*
X007192Y004660D02*
X007192Y004480D01*
X007237Y004435D01*
X007327Y004435D01*
X007372Y004480D01*
X007372Y004660D02*
X007327Y004705D01*
X007237Y004705D01*
X007192Y004660D01*
X006194Y004615D02*
X006194Y004435D01*
X006014Y004435D02*
X006014Y004615D01*
X006104Y004705D01*
X006194Y004615D01*
X006194Y004570D02*
X006014Y004570D01*
X005899Y004570D02*
X005899Y004435D01*
X005809Y004435D02*
X005809Y004570D01*
X005854Y004615D01*
X005899Y004570D01*
X005809Y004570D02*
X005764Y004615D01*
X005719Y004615D01*
X005719Y004435D01*
X005604Y004480D02*
X005559Y004435D01*
X005469Y004435D01*
X005424Y004480D01*
X005604Y004660D01*
X005604Y004480D01*
X005424Y004480D02*
X005424Y004660D01*
X005469Y004705D01*
X005559Y004705D01*
X005604Y004660D01*
X005310Y004660D02*
X005310Y004480D01*
X005265Y004435D01*
X005175Y004435D01*
X005130Y004480D01*
X005310Y004660D01*
X005265Y004705D01*
X005175Y004705D01*
X005130Y004660D01*
X005130Y004480D01*
X005015Y004480D02*
X004970Y004435D01*
X004880Y004435D01*
X004835Y004480D01*
X004835Y004570D02*
X004925Y004615D01*
X004970Y004615D01*
X005015Y004570D01*
X005015Y004480D01*
X004835Y004570D02*
X004835Y004705D01*
X005015Y004705D01*
X007885Y006360D02*
X008065Y006360D01*
X007975Y006360D02*
X007975Y006630D01*
X007885Y006540D01*
X008180Y006585D02*
X008225Y006630D01*
X008315Y006630D01*
X008360Y006585D01*
X008180Y006405D01*
X008225Y006360D01*
X008315Y006360D01*
X008360Y006405D01*
X008360Y006585D01*
X008474Y006540D02*
X008474Y006405D01*
X008519Y006360D01*
X008654Y006360D01*
X008654Y006540D01*
X008769Y006495D02*
X008859Y006495D01*
X008769Y006360D02*
X008769Y006630D01*
X008949Y006630D01*
X008180Y006585D02*
X008180Y006405D01*
X008195Y007185D02*
X008105Y007185D01*
X008060Y007230D01*
X008150Y007320D02*
X008195Y007320D01*
X008240Y007275D01*
X008240Y007230D01*
X008195Y007185D01*
X008195Y007320D02*
X008240Y007365D01*
X008240Y007410D01*
X008195Y007455D01*
X008105Y007455D01*
X008060Y007410D01*
X008355Y007230D02*
X008400Y007230D01*
X008400Y007185D01*
X008355Y007185D01*
X008355Y007230D01*
X008502Y007230D02*
X008547Y007185D01*
X008637Y007185D01*
X008682Y007230D01*
X008682Y007275D01*
X008637Y007320D01*
X008592Y007320D01*
X008637Y007320D02*
X008682Y007365D01*
X008682Y007410D01*
X008637Y007455D01*
X008547Y007455D01*
X008502Y007410D01*
X008797Y007455D02*
X008797Y007275D01*
X008887Y007185D01*
X008977Y007275D01*
X008977Y007455D01*
X007704Y008010D02*
X007659Y008055D01*
X007659Y008235D01*
X007614Y008190D02*
X007704Y008190D01*
X007499Y008190D02*
X007364Y008190D01*
X007319Y008145D01*
X007319Y008055D01*
X007364Y008010D01*
X007499Y008010D01*
X007204Y008100D02*
X007024Y008100D01*
X007024Y008055D02*
X007024Y008145D01*
X007069Y008190D01*
X007159Y008190D01*
X007204Y008145D01*
X007204Y008100D01*
X007159Y008010D02*
X007069Y008010D01*
X007024Y008055D01*
X006918Y008010D02*
X006828Y008010D01*
X006873Y008010D02*
X006873Y008280D01*
X006828Y008280D01*
X006713Y008145D02*
X006713Y008100D01*
X006533Y008100D01*
X006533Y008055D02*
X006533Y008145D01*
X006578Y008190D01*
X006668Y008190D01*
X006713Y008145D01*
X006578Y008010D02*
X006533Y008055D01*
X006578Y008010D02*
X006668Y008010D01*
X006419Y008055D02*
X006374Y008010D01*
X006284Y008010D01*
X006239Y008055D01*
X006284Y008145D02*
X006374Y008145D01*
X006419Y008100D01*
X006419Y008055D01*
X006284Y008145D02*
X006239Y008190D01*
X006239Y008235D01*
X006284Y008280D01*
X006374Y008280D01*
X006419Y008235D01*
X005829Y008235D02*
X005829Y008055D01*
X005784Y008010D01*
X005649Y008010D01*
X005649Y008280D01*
X005784Y008280D01*
X005829Y008235D01*
X005535Y008235D02*
X005535Y008055D01*
X005490Y008010D01*
X005355Y008010D01*
X005355Y008280D01*
X005490Y008280D01*
X005535Y008235D01*
X005240Y008280D02*
X005240Y008100D01*
X005150Y008010D01*
X005060Y008100D01*
X005060Y008280D01*
X004785Y007455D02*
X004785Y007275D01*
X004695Y007185D01*
X004605Y007275D01*
X004605Y007455D01*
X004490Y007455D02*
X004310Y007455D01*
X004310Y007320D01*
X004400Y007365D01*
X004445Y007365D01*
X004490Y007320D01*
X004490Y007230D01*
X004445Y007185D01*
X004355Y007185D01*
X004310Y007230D01*
X003054Y007160D02*
X003054Y007115D01*
X003009Y007070D01*
X002874Y007070D01*
X002760Y007025D02*
X002715Y007070D01*
X002625Y007070D01*
X002580Y007115D01*
X002580Y007160D01*
X002625Y007205D01*
X002715Y007205D01*
X002760Y007160D01*
X002874Y007205D02*
X003009Y007205D01*
X003054Y007160D01*
X003009Y007070D02*
X003054Y007025D01*
X003054Y006980D01*
X003009Y006935D01*
X002874Y006935D01*
X002874Y007205D01*
X002760Y007025D02*
X002760Y006980D01*
X002715Y006935D01*
X002625Y006935D01*
X002580Y006980D01*
X002465Y006980D02*
X002420Y006935D01*
X002330Y006935D01*
X002285Y006980D01*
X002285Y007205D01*
X002465Y007205D02*
X002465Y006980D01*
X009360Y005530D02*
X009405Y005575D01*
X009495Y005575D01*
X009540Y005530D01*
X009540Y005485D01*
X009360Y005305D01*
X009540Y005305D01*
X009655Y005305D02*
X009835Y005485D01*
X009835Y005530D01*
X009790Y005575D01*
X009700Y005575D01*
X009655Y005530D01*
X009655Y005305D02*
X009835Y005305D01*
X009949Y005305D02*
X010084Y005305D01*
X010129Y005350D01*
X010129Y005440D01*
X010084Y005485D01*
X009949Y005485D01*
X009949Y005215D01*
X010735Y004815D02*
X010825Y004905D01*
X010915Y004950D01*
X011030Y004905D02*
X011075Y004950D01*
X011165Y004950D01*
X011210Y004905D01*
X011210Y004860D01*
X011165Y004815D01*
X011075Y004815D01*
X011030Y004860D01*
X011030Y004905D01*
X011075Y004815D02*
X011030Y004770D01*
X011030Y004725D01*
X011075Y004680D01*
X011165Y004680D01*
X011210Y004725D01*
X011210Y004770D01*
X011165Y004815D01*
X011324Y004770D02*
X011459Y004770D01*
X011504Y004815D01*
X011504Y004905D01*
X011459Y004950D01*
X011324Y004950D01*
X011324Y004680D01*
X011414Y004770D02*
X011504Y004680D01*
X010915Y004725D02*
X010915Y004770D01*
X010870Y004815D01*
X010735Y004815D01*
X010735Y004725D01*
X010780Y004680D01*
X010870Y004680D01*
X010915Y004725D01*
X012050Y004645D02*
X014650Y004645D01*
X014770Y004525D01*
X014770Y001925D01*
X012050Y001925D01*
X012050Y004645D01*
X014349Y004365D02*
X014351Y004388D01*
X014357Y004411D01*
X014366Y004432D01*
X014379Y004452D01*
X014395Y004469D01*
X014413Y004483D01*
X014433Y004494D01*
X014455Y004502D01*
X014478Y004506D01*
X014502Y004506D01*
X014525Y004502D01*
X014547Y004494D01*
X014567Y004483D01*
X014585Y004469D01*
X014601Y004452D01*
X014614Y004432D01*
X014623Y004411D01*
X014629Y004388D01*
X014631Y004365D01*
X014629Y004342D01*
X014623Y004319D01*
X014614Y004298D01*
X014601Y004278D01*
X014585Y004261D01*
X014567Y004247D01*
X014547Y004236D01*
X014525Y004228D01*
X014502Y004224D01*
X014478Y004224D01*
X014455Y004228D01*
X014433Y004236D01*
X014413Y004247D01*
X014395Y004261D01*
X014379Y004278D01*
X014366Y004298D01*
X014357Y004319D01*
X014351Y004342D01*
X014349Y004365D01*
X014785Y004930D02*
X014965Y004930D01*
X014875Y004930D02*
X014875Y005200D01*
X014785Y005110D01*
X015080Y005155D02*
X015080Y004975D01*
X015260Y005155D01*
X015260Y004975D01*
X015215Y004930D01*
X015125Y004930D01*
X015080Y004975D01*
X015374Y004975D02*
X015554Y005155D01*
X015554Y004975D01*
X015509Y004930D01*
X015419Y004930D01*
X015374Y004975D01*
X015374Y005155D01*
X015419Y005200D01*
X015509Y005200D01*
X015554Y005155D01*
X015669Y005110D02*
X015804Y005110D01*
X015849Y005065D01*
X015849Y004930D01*
X015964Y004930D02*
X015964Y005200D01*
X016144Y005200D01*
X016054Y005065D02*
X015964Y005065D01*
X015669Y005110D02*
X015669Y004930D01*
X015260Y005155D02*
X015215Y005200D01*
X015125Y005200D01*
X015080Y005155D01*
X015810Y004705D02*
X015900Y004615D01*
X015990Y004705D01*
X015990Y004435D01*
X016105Y004480D02*
X016150Y004435D01*
X016240Y004435D01*
X016285Y004480D01*
X016285Y004660D01*
X016240Y004705D01*
X016150Y004705D01*
X016105Y004660D01*
X016105Y004480D01*
X016399Y004480D02*
X016444Y004435D01*
X016534Y004435D01*
X016579Y004480D01*
X016579Y004525D01*
X016534Y004570D01*
X016444Y004570D01*
X016399Y004615D01*
X016399Y004660D01*
X016444Y004705D01*
X016534Y004705D01*
X016579Y004660D01*
X016694Y004705D02*
X016784Y004705D01*
X016739Y004705D02*
X016739Y004435D01*
X016694Y004435D02*
X016784Y004435D01*
X015810Y004435D02*
X015810Y004705D01*
X016105Y005435D02*
X016195Y005435D01*
X016240Y005480D01*
X016240Y005570D01*
X016150Y005570D01*
X016060Y005480D02*
X016105Y005435D01*
X016060Y005480D02*
X016060Y005660D01*
X016105Y005705D01*
X016195Y005705D01*
X016240Y005660D01*
X016355Y005705D02*
X016535Y005435D01*
X016535Y005705D01*
X016649Y005705D02*
X016784Y005705D01*
X016829Y005660D01*
X016829Y005480D01*
X016784Y005435D01*
X016649Y005435D01*
X016649Y005705D01*
X016355Y005705D02*
X016355Y005435D01*
X016375Y006005D02*
X016330Y006050D01*
X016510Y006230D01*
X016510Y006050D01*
X016465Y006005D01*
X016375Y006005D01*
X016330Y006050D02*
X016330Y006230D01*
X016375Y006275D01*
X016465Y006275D01*
X016510Y006230D01*
X016624Y006275D02*
X016624Y006005D01*
X016624Y006095D02*
X016759Y006185D01*
X016624Y006095D02*
X016759Y006005D01*
X016215Y006005D02*
X016035Y006005D01*
X016125Y006005D02*
X016125Y006275D01*
X016035Y006185D01*
X015499Y006865D02*
X015499Y007135D01*
X015634Y007135D01*
X015679Y007090D01*
X015679Y007000D01*
X015634Y006955D01*
X015499Y006955D01*
X015385Y006955D02*
X015205Y006955D01*
X015385Y007135D01*
X015385Y007180D01*
X015340Y007225D01*
X015250Y007225D01*
X015205Y007180D01*
X015090Y007180D02*
X015045Y007225D01*
X014955Y007225D01*
X014910Y007180D01*
X015090Y007180D02*
X015090Y007135D01*
X014910Y006955D01*
X015090Y006955D01*
X013338Y007010D02*
X013158Y007010D01*
X013338Y007190D01*
X013158Y007190D01*
X013044Y007145D02*
X012864Y007145D01*
X012864Y007010D02*
X012864Y007280D01*
X012749Y007280D02*
X012659Y007190D01*
X012569Y007280D01*
X012569Y007010D01*
X012749Y007010D02*
X012749Y007280D01*
X013044Y007280D02*
X013044Y007010D01*
X012160Y007010D02*
X011980Y007010D01*
X012160Y007190D01*
X012160Y007235D01*
X012115Y007280D01*
X012025Y007280D01*
X011980Y007235D01*
X011775Y007280D02*
X011775Y007010D01*
X011685Y007010D02*
X011865Y007010D01*
X011685Y007190D02*
X011775Y007280D01*
X015935Y007935D02*
X015935Y008205D01*
X016070Y008205D01*
X016115Y008160D01*
X016115Y008070D01*
X016070Y008025D01*
X015935Y008025D01*
X016230Y008025D02*
X016320Y008115D01*
X016365Y008115D01*
X016475Y008070D02*
X016475Y007980D01*
X016520Y007935D01*
X016610Y007935D01*
X016655Y007980D01*
X016655Y008070D01*
X016610Y008115D01*
X016520Y008115D01*
X016475Y008070D01*
X016770Y008070D02*
X016770Y007980D01*
X016815Y007935D01*
X016950Y007935D01*
X016950Y007890D02*
X016950Y008115D01*
X016815Y008115D01*
X016770Y008070D01*
X017064Y008025D02*
X017155Y008115D01*
X017200Y008115D01*
X017064Y008115D02*
X017064Y007935D01*
X016950Y007890D02*
X016905Y007845D01*
X016860Y007845D01*
X017310Y007980D02*
X017355Y007935D01*
X017490Y007935D01*
X017490Y008070D01*
X017445Y008115D01*
X017355Y008115D01*
X017355Y008025D02*
X017490Y008025D01*
X017355Y008025D02*
X017310Y007980D01*
X017605Y007935D02*
X017605Y008115D01*
X017650Y008115D01*
X017695Y008070D01*
X017740Y008115D01*
X017785Y008070D01*
X017785Y007935D01*
X017695Y007935D02*
X017695Y008070D01*
X016230Y008115D02*
X016230Y007935D01*
X019035Y005805D02*
X019919Y005805D01*
X019829Y005705D02*
X019649Y005705D01*
X019739Y005705D02*
X019739Y005435D01*
X019535Y005480D02*
X019490Y005435D01*
X019400Y005435D01*
X019355Y005480D01*
X019400Y005570D02*
X019490Y005570D01*
X019535Y005525D01*
X019535Y005480D01*
X019400Y005570D02*
X019355Y005615D01*
X019355Y005660D01*
X019400Y005705D01*
X019490Y005705D01*
X019535Y005660D01*
X019240Y005660D02*
X019240Y005570D01*
X019195Y005525D01*
X019060Y005525D01*
X019060Y005435D02*
X019060Y005705D01*
X019195Y005705D01*
X019240Y005660D01*
X019150Y005525D02*
X019240Y005435D01*
X019195Y004705D02*
X019105Y004705D01*
X019060Y004660D01*
X019060Y004615D01*
X019105Y004570D01*
X019195Y004570D01*
X019240Y004525D01*
X019240Y004480D01*
X019195Y004435D01*
X019105Y004435D01*
X019060Y004480D01*
X019240Y004660D02*
X019195Y004705D01*
X019355Y004660D02*
X019355Y004480D01*
X019400Y004435D01*
X019490Y004435D01*
X019535Y004480D01*
X019649Y004435D02*
X019649Y004705D01*
X019535Y004660D02*
X019490Y004705D01*
X019400Y004705D01*
X019355Y004660D01*
X019694Y004570D02*
X019829Y004435D01*
X019649Y004525D02*
X019829Y004705D01*
X019891Y003705D02*
X019846Y003660D01*
X019846Y003480D01*
X019891Y003435D01*
X019981Y003435D01*
X020026Y003480D01*
X020026Y003660D01*
X019981Y003705D01*
X019891Y003705D01*
X019731Y003660D02*
X019686Y003705D01*
X019596Y003705D01*
X019551Y003660D01*
X019551Y003615D01*
X019596Y003570D01*
X019686Y003570D01*
X019731Y003525D01*
X019731Y003480D01*
X019686Y003435D01*
X019596Y003435D01*
X019551Y003480D01*
X019445Y003435D02*
X019355Y003435D01*
X019400Y003435D02*
X019400Y003705D01*
X019355Y003705D02*
X019445Y003705D01*
X019240Y003705D02*
X019150Y003615D01*
X019060Y003705D01*
X019060Y003435D01*
X019240Y003435D02*
X019240Y003705D01*
X019110Y002785D02*
X019110Y002605D01*
X019155Y002560D01*
X018950Y002650D02*
X018770Y002650D01*
X018770Y002605D02*
X018770Y002695D01*
X018815Y002740D01*
X018905Y002740D01*
X018950Y002695D01*
X018950Y002650D01*
X018905Y002560D02*
X018815Y002560D01*
X018770Y002605D01*
X018655Y002560D02*
X018520Y002560D01*
X018475Y002605D01*
X018475Y002695D01*
X018520Y002740D01*
X018655Y002740D01*
X018655Y002515D01*
X018610Y002470D01*
X018565Y002470D01*
X018230Y002560D02*
X018230Y002740D01*
X018230Y002650D02*
X018320Y002740D01*
X018365Y002740D01*
X018115Y002695D02*
X018115Y002560D01*
X017980Y002560D01*
X017935Y002605D01*
X017980Y002650D01*
X018115Y002650D01*
X018115Y002695D02*
X018070Y002740D01*
X017980Y002740D01*
X017821Y002830D02*
X017640Y002830D01*
X017730Y002830D02*
X017730Y002560D01*
X017231Y002695D02*
X017231Y002785D01*
X017186Y002830D01*
X017051Y002830D01*
X017051Y002560D01*
X017051Y002650D02*
X017186Y002650D01*
X017231Y002695D01*
X016937Y002650D02*
X016937Y002605D01*
X016892Y002560D01*
X016801Y002560D01*
X016756Y002605D01*
X016801Y002695D02*
X016892Y002695D01*
X016937Y002650D01*
X016801Y002695D02*
X016756Y002740D01*
X016756Y002785D01*
X016801Y002830D01*
X016892Y002830D01*
X016937Y002785D01*
X016650Y002830D02*
X016560Y002830D01*
X016605Y002830D02*
X016605Y002560D01*
X016560Y002560D02*
X016650Y002560D01*
X016649Y003435D02*
X016784Y003435D01*
X016829Y003480D01*
X016829Y003660D01*
X016784Y003705D01*
X016649Y003705D01*
X016649Y003435D01*
X016535Y003480D02*
X016535Y003660D01*
X016490Y003705D01*
X016355Y003705D01*
X016355Y003435D01*
X016490Y003435D01*
X016535Y003480D01*
X016240Y003525D02*
X016150Y003435D01*
X016060Y003525D01*
X016060Y003705D01*
X016240Y003705D02*
X016240Y003525D01*
X019065Y002740D02*
X019155Y002740D01*
X018140Y001080D02*
X018140Y000810D01*
X018140Y000900D02*
X018276Y000810D01*
X018140Y000900D02*
X018276Y000990D01*
X018026Y000990D02*
X017891Y000990D01*
X017846Y000945D01*
X017846Y000855D01*
X017891Y000810D01*
X018026Y000810D01*
X017731Y000855D02*
X017731Y000945D01*
X017686Y000990D01*
X017596Y000990D01*
X017551Y000945D01*
X017551Y000855D01*
X017596Y000810D01*
X017686Y000810D01*
X017731Y000855D01*
X017445Y000810D02*
X017355Y000810D01*
X017400Y000810D02*
X017400Y001080D01*
X017355Y001080D01*
X017240Y001035D02*
X017195Y001080D01*
X017105Y001080D01*
X017060Y001035D01*
X017060Y000855D01*
X017105Y000810D01*
X017195Y000810D01*
X017240Y000855D01*
X016651Y000855D02*
X016651Y000990D01*
X016471Y000990D02*
X016471Y000855D01*
X016516Y000810D01*
X016561Y000855D01*
X016606Y000810D01*
X016651Y000855D01*
X016356Y000855D02*
X016356Y000945D01*
X016311Y000990D01*
X016221Y000990D01*
X016176Y000945D01*
X016176Y000855D01*
X016221Y000810D01*
X016311Y000810D01*
X016356Y000855D01*
X016070Y000810D02*
X015980Y000810D01*
X016025Y000810D02*
X016025Y001080D01*
X015980Y001080D01*
X015865Y001035D02*
X015820Y001080D01*
X015730Y001080D01*
X015685Y001035D01*
X015685Y000990D01*
X015730Y000945D01*
X015820Y000945D01*
X015865Y000900D01*
X015865Y000855D01*
X015820Y000810D01*
X015730Y000810D01*
X015685Y000855D01*
X014508Y000980D02*
X014463Y000935D01*
X014373Y000935D01*
X014328Y000980D01*
X014328Y001025D01*
X014373Y001070D01*
X014463Y001070D01*
X014508Y001025D01*
X014508Y000980D01*
X014463Y001070D02*
X014508Y001115D01*
X014508Y001160D01*
X014463Y001205D01*
X014373Y001205D01*
X014328Y001160D01*
X014328Y001115D01*
X014373Y001070D01*
X014213Y001070D02*
X014033Y001070D01*
X014033Y001115D02*
X014033Y000935D01*
X013919Y000980D02*
X013919Y001070D01*
X013829Y001070D01*
X013919Y000980D02*
X013874Y000935D01*
X013784Y000935D01*
X013739Y000980D01*
X013739Y001160D01*
X013784Y001205D01*
X013874Y001205D01*
X013919Y001160D01*
X014033Y001115D02*
X014123Y001205D01*
X014213Y001115D01*
X014213Y000935D01*
X013624Y000935D02*
X013444Y000935D01*
X013444Y001205D01*
X013624Y001205D01*
X013534Y001070D02*
X013444Y001070D01*
X013329Y001205D02*
X013329Y000935D01*
X013149Y000935D02*
X013149Y001205D01*
X013239Y001115D01*
X013329Y001205D01*
X013035Y001205D02*
X012855Y001205D01*
X012945Y001205D02*
X012945Y000935D01*
X012740Y000935D02*
X012740Y001115D01*
X012650Y001205D01*
X012560Y001115D01*
X012560Y000935D01*
X012560Y001070D02*
X012740Y001070D01*
X009553Y003085D02*
X009553Y003130D01*
X009508Y003175D01*
X009463Y003175D01*
X009508Y003175D02*
X009553Y003220D01*
X009553Y003265D01*
X009508Y003310D01*
X009418Y003310D01*
X009373Y003265D01*
D11*
X010630Y007645D02*
X014250Y007645D01*
X014250Y007646D02*
X014287Y007649D01*
X014324Y007657D01*
X014359Y007668D01*
X014394Y007682D01*
X014426Y007700D01*
X014457Y007721D01*
X014486Y007744D01*
X014512Y007771D01*
X014536Y007800D01*
X014557Y007831D01*
X014574Y007864D01*
X014588Y007898D01*
X014599Y007934D01*
X014606Y007971D01*
X014610Y008008D01*
X014609Y008045D01*
X014610Y008045D02*
X014610Y008155D01*
X014609Y008191D01*
X014605Y008227D01*
X014597Y008263D01*
X014586Y008297D01*
X014571Y008331D01*
X014553Y008362D01*
X014532Y008392D01*
X014509Y008419D01*
X014482Y008445D01*
X014454Y008467D01*
X014423Y008486D01*
X014391Y008503D01*
X014357Y008516D01*
X014322Y008526D01*
X014286Y008532D01*
X014250Y008535D01*
X010630Y008535D01*
X010594Y008532D01*
X010558Y008526D01*
X010523Y008516D01*
X010489Y008503D01*
X010457Y008486D01*
X010426Y008467D01*
X010398Y008445D01*
X010371Y008419D01*
X010348Y008392D01*
X010327Y008362D01*
X010309Y008331D01*
X010294Y008297D01*
X010283Y008263D01*
X010275Y008227D01*
X010271Y008191D01*
X010270Y008155D01*
X010270Y008025D01*
X010271Y007989D01*
X010275Y007953D01*
X010283Y007917D01*
X010294Y007883D01*
X010309Y007849D01*
X010327Y007818D01*
X010348Y007788D01*
X010371Y007761D01*
X010398Y007735D01*
X010426Y007713D01*
X010457Y007694D01*
X010489Y007677D01*
X010523Y007664D01*
X010558Y007654D01*
X010594Y007648D01*
X010630Y007645D01*
D12*
X011060Y007435D02*
X013760Y007435D01*
X013803Y007950D02*
X013989Y007950D01*
X014156Y007950D02*
X014341Y007950D01*
X014403Y008012D01*
X014341Y008073D01*
X014218Y008073D01*
X014156Y008135D01*
X014218Y008197D01*
X014403Y008197D01*
X013989Y008197D02*
X013803Y008197D01*
X013742Y008135D01*
X013742Y008012D01*
X013803Y007950D01*
X013589Y007950D02*
X013465Y007950D01*
X013527Y007950D02*
X013527Y008197D01*
X013465Y008197D01*
X013298Y008135D02*
X013298Y007950D01*
X013051Y007950D02*
X013051Y008197D01*
X013236Y008197D01*
X013298Y008135D01*
X012884Y008135D02*
X012884Y008012D01*
X012822Y007950D01*
X012698Y007950D01*
X012637Y008012D01*
X012637Y008135D01*
X012698Y008197D01*
X012822Y008197D01*
X012884Y008135D01*
X012477Y008197D02*
X012415Y008197D01*
X012291Y008073D01*
X012291Y007950D02*
X012291Y008197D01*
X012139Y008197D02*
X012015Y008197D01*
X012077Y008259D02*
X012077Y008012D01*
X012139Y007950D01*
X011848Y008073D02*
X011601Y008073D01*
X011601Y008012D02*
X011601Y008135D01*
X011663Y008197D01*
X011786Y008197D01*
X011848Y008135D01*
X011848Y008073D01*
X011663Y007950D02*
X011601Y008012D01*
X011663Y007950D02*
X011786Y007950D01*
X011433Y008073D02*
X011187Y008073D01*
X011187Y008012D02*
X011187Y008135D01*
X011248Y008197D01*
X011372Y008197D01*
X011433Y008135D01*
X011433Y008073D01*
X011248Y007950D02*
X011187Y008012D01*
X011248Y007950D02*
X011372Y007950D01*
X011026Y008197D02*
X010965Y008197D01*
X010841Y008073D01*
X010841Y007950D02*
X010841Y008197D01*
X010688Y008135D02*
X010565Y008135D01*
X010627Y008259D02*
X010627Y007950D01*
X010627Y008259D02*
X010688Y008320D01*
X013527Y008382D02*
X013527Y008320D01*
X015910Y007535D02*
X015910Y007035D01*
X016160Y006785D01*
X016660Y006785D01*
X016910Y007035D01*
X017160Y006785D01*
X017660Y006785D01*
X017910Y007035D01*
X017910Y007535D01*
X017660Y007785D01*
X017160Y007785D01*
X016910Y007535D01*
X016660Y007785D01*
X016160Y007785D01*
X015910Y007535D01*
X013760Y007435D02*
X013819Y007433D01*
X013877Y007427D01*
X013936Y007418D01*
X013993Y007404D01*
X014049Y007387D01*
X014104Y007366D01*
X014158Y007342D01*
X014210Y007314D01*
X014260Y007283D01*
X014308Y007249D01*
X014353Y007212D01*
X014396Y007171D01*
X014437Y007128D01*
X014474Y007083D01*
X014508Y007035D01*
X014539Y006985D01*
X014567Y006933D01*
X014591Y006879D01*
X014612Y006824D01*
X014629Y006768D01*
X014643Y006711D01*
X014652Y006652D01*
X014658Y006594D01*
X014660Y006535D01*
X014658Y006476D01*
X014652Y006418D01*
X014643Y006359D01*
X014629Y006302D01*
X014612Y006246D01*
X014591Y006191D01*
X014567Y006137D01*
X014539Y006085D01*
X014508Y006035D01*
X014474Y005987D01*
X014437Y005942D01*
X014396Y005899D01*
X014353Y005858D01*
X014308Y005821D01*
X014260Y005787D01*
X014210Y005756D01*
X014158Y005728D01*
X014104Y005704D01*
X014049Y005683D01*
X013993Y005666D01*
X013936Y005652D01*
X013877Y005643D01*
X013819Y005637D01*
X013760Y005635D01*
X011060Y005635D01*
X011001Y005637D01*
X010943Y005643D01*
X010884Y005652D01*
X010827Y005666D01*
X010771Y005683D01*
X010716Y005704D01*
X010662Y005728D01*
X010610Y005756D01*
X010560Y005787D01*
X010512Y005821D01*
X010467Y005858D01*
X010424Y005899D01*
X010383Y005942D01*
X010346Y005987D01*
X010312Y006035D01*
X010281Y006085D01*
X010253Y006137D01*
X010229Y006191D01*
X010208Y006246D01*
X010191Y006302D01*
X010177Y006359D01*
X010168Y006418D01*
X010162Y006476D01*
X010160Y006535D01*
X010162Y006594D01*
X010168Y006652D01*
X010177Y006711D01*
X010191Y006768D01*
X010208Y006824D01*
X010229Y006879D01*
X010253Y006933D01*
X010281Y006985D01*
X010312Y007035D01*
X010346Y007083D01*
X010383Y007128D01*
X010424Y007171D01*
X010467Y007212D01*
X010512Y007249D01*
X010560Y007283D01*
X010610Y007314D01*
X010662Y007342D01*
X010716Y007366D01*
X010771Y007387D01*
X010827Y007404D01*
X010884Y007418D01*
X010943Y007427D01*
X011001Y007433D01*
X011060Y007435D01*
X004059Y005755D02*
X004059Y005401D01*
X003075Y006031D02*
X002248Y006031D01*
X007120Y004235D02*
X009700Y004235D01*
X009700Y002835D01*
X007120Y002835D01*
X007120Y004235D01*
X006166Y002889D02*
X006166Y002732D01*
X005654Y002732D01*
X005654Y002181D01*
X005166Y002181D02*
X005166Y002732D01*
X004654Y002732D01*
X004654Y002181D01*
X004654Y002732D02*
X004654Y002889D01*
X005166Y002889D02*
X005166Y002732D01*
X005654Y002732D02*
X005654Y002889D01*
X006166Y002732D02*
X006166Y002181D01*
X004059Y003315D02*
X004059Y003669D01*
X003075Y003039D02*
X002248Y003039D01*
X015910Y002035D02*
X015910Y001535D01*
X016160Y001285D01*
X016660Y001285D01*
X016910Y001535D01*
X017160Y001285D01*
X017660Y001285D01*
X017910Y001535D01*
X017910Y002035D01*
X017660Y002285D01*
X017160Y002285D01*
X016910Y002035D01*
X016660Y002285D01*
X016160Y002285D01*
X015910Y002035D01*
D13*
X017160Y003035D02*
X016910Y003285D01*
X016910Y003785D01*
X017160Y004035D01*
X016910Y004285D01*
X016910Y004785D01*
X017160Y005035D01*
X016910Y005285D01*
X016910Y005785D01*
X017160Y006035D01*
X018660Y006035D01*
X018910Y005785D01*
X018910Y005285D01*
X018660Y005035D01*
X018910Y004785D01*
X018910Y004285D01*
X018660Y004035D01*
X018910Y003785D01*
X018910Y003285D01*
X018660Y003035D01*
X017160Y003035D01*
X011971Y000935D02*
X011911Y000935D01*
X011790Y000815D01*
X011790Y000695D02*
X011790Y000935D01*
X011644Y000875D02*
X011644Y000815D01*
X011404Y000815D01*
X011404Y000755D02*
X011404Y000875D01*
X011464Y000935D01*
X011584Y000935D01*
X011644Y000875D01*
X011464Y000695D02*
X011404Y000755D01*
X011464Y000695D02*
X011584Y000695D01*
X011257Y000695D02*
X011257Y000875D01*
X011197Y000935D01*
X011137Y000875D01*
X011137Y000695D01*
X011017Y000695D02*
X011017Y000935D01*
X011077Y000935D01*
X011137Y000875D01*
X010871Y000875D02*
X010871Y000695D01*
X010750Y000695D02*
X010750Y000875D01*
X010810Y000935D01*
X010871Y000875D01*
X010750Y000875D02*
X010690Y000935D01*
X010630Y000935D01*
X010630Y000695D01*
X010484Y000695D02*
X010304Y000695D01*
X010244Y000755D01*
X010304Y000815D01*
X010484Y000815D01*
X010484Y000875D02*
X010484Y000695D01*
X010484Y000875D02*
X010424Y000935D01*
X010304Y000935D01*
X010101Y000935D02*
X010041Y000935D01*
X009921Y000815D01*
X009921Y000695D02*
X009921Y000935D01*
X009775Y000935D02*
X009595Y000935D01*
X009535Y000875D01*
X009535Y000755D01*
X009595Y000695D01*
X009775Y000695D01*
X009775Y000635D02*
X009775Y000935D01*
X009388Y000875D02*
X009388Y000755D01*
X009328Y000695D01*
X009208Y000695D01*
X009148Y000755D01*
X009148Y000875D01*
X009208Y000935D01*
X009328Y000935D01*
X009388Y000875D01*
X009006Y000935D02*
X008946Y000935D01*
X008826Y000815D01*
X008826Y000695D02*
X008826Y000935D01*
X008679Y000875D02*
X008619Y000815D01*
X008439Y000815D01*
X008679Y000875D02*
X008679Y000995D01*
X008619Y001055D01*
X008439Y001055D01*
X008439Y000695D01*
X007906Y000695D02*
X007785Y000815D01*
X007846Y000815D02*
X007665Y000815D01*
X007519Y000815D02*
X007519Y001055D01*
X007665Y001055D02*
X007846Y001055D01*
X007906Y000995D01*
X007906Y000875D01*
X007846Y000815D01*
X007665Y000695D02*
X007665Y001055D01*
X007519Y000815D02*
X007399Y000695D01*
X007279Y000815D01*
X007279Y001055D01*
X007132Y000935D02*
X007132Y000695D01*
X006892Y000695D02*
X006892Y000935D01*
X007012Y001055D01*
X007132Y000935D01*
X007132Y000875D02*
X006892Y000875D01*
X006359Y000815D02*
X006359Y000755D01*
X006299Y000695D01*
X006118Y000695D01*
X006118Y001055D01*
X006299Y001055D01*
X006359Y000995D01*
X006359Y000935D01*
X006299Y000875D01*
X006118Y000875D01*
X005972Y000815D02*
X005972Y000755D01*
X005912Y000695D01*
X005792Y000695D01*
X005732Y000755D01*
X005792Y000875D02*
X005912Y000875D01*
X005972Y000815D01*
X005792Y000875D02*
X005732Y000935D01*
X005732Y000995D01*
X005792Y001055D01*
X005912Y001055D01*
X005972Y000995D01*
X006299Y000875D02*
X006359Y000815D01*
X005585Y000755D02*
X005585Y001055D01*
X005345Y001055D02*
X005345Y000755D01*
X005405Y000695D01*
X005525Y000695D01*
X005585Y000755D01*
X009655Y000575D02*
X009715Y000575D01*
X009775Y000635D01*
X007710Y006785D02*
X007110Y006785D01*
X006910Y006985D01*
X006710Y006785D01*
X006110Y006785D01*
X005910Y006985D01*
X005710Y006785D01*
X005110Y006785D01*
X004910Y006985D01*
X004910Y007585D01*
X005110Y007785D01*
X005710Y007785D01*
X005910Y007585D01*
X006110Y007785D01*
X006710Y007785D01*
X006910Y007585D01*
X007110Y007785D01*
X007710Y007785D01*
X007910Y007585D01*
X007910Y006985D01*
X007710Y006785D01*
D14*
X009560Y006285D02*
X009560Y006185D01*
X009760Y006185D02*
X009760Y006285D01*
X010310Y004885D02*
X010310Y004785D01*
X010510Y004785D02*
X010510Y004885D01*
X010510Y002785D02*
X010510Y002685D01*
X010310Y002685D02*
X010310Y002785D01*
X010885Y001510D02*
X010985Y001510D01*
X010985Y001310D02*
X010885Y001310D01*
X009060Y001310D02*
X008960Y001310D01*
X008960Y001510D02*
X009060Y001510D01*
X006760Y002485D02*
X006760Y002585D01*
X006560Y002585D02*
X006560Y002485D01*
X015360Y005435D02*
X015460Y005435D01*
X015460Y005635D02*
X015360Y005635D01*
X015360Y005985D02*
X015460Y005985D01*
X015460Y006185D02*
X015360Y006185D01*
X015360Y006535D02*
X015460Y006535D01*
X015460Y006735D02*
X015360Y006735D01*
D15*
X002780Y000906D02*
X002782Y000917D01*
X002787Y000926D01*
X002795Y000933D01*
X002806Y000937D01*
X002816Y000937D01*
X002826Y000933D01*
X002835Y000926D01*
X002840Y000917D01*
X002842Y000906D01*
X002840Y000895D01*
X002835Y000886D01*
X002827Y000879D01*
X002816Y000875D01*
X002806Y000875D01*
X002795Y000879D01*
X002787Y000886D01*
X002782Y000895D01*
X002780Y000906D01*
M02*
