G75*
G70*
%OFA0B0*%
%FSLAX24Y24*%
%IPPOS*%
%LPD*%
%AMOC8*
5,1,8,0,0,1.08239X$1,22.5*
%
%ADD10C,0.0060*%
%ADD11C,0.0120*%
%ADD12C,0.0080*%
D10*
X006396Y000760D02*
X006456Y000700D01*
X006516Y000700D01*
X006396Y000760D02*
X006396Y001060D01*
X006576Y001060D01*
X006636Y001000D01*
X006636Y000880D01*
X006576Y000820D01*
X006396Y000820D01*
X006783Y000880D02*
X006783Y001000D01*
X006843Y001060D01*
X006963Y001060D01*
X007023Y001000D01*
X007023Y000880D01*
X006963Y000820D01*
X006843Y000820D01*
X006783Y000880D01*
X007165Y001060D02*
X007225Y001060D01*
X007345Y000940D01*
X007345Y000820D02*
X007345Y001060D01*
X007492Y001000D02*
X007492Y000880D01*
X007552Y000820D01*
X007732Y000820D01*
X007732Y000700D02*
X007732Y001060D01*
X007552Y001060D01*
X007492Y001000D01*
X007874Y001060D02*
X007934Y001060D01*
X008054Y000940D01*
X008054Y000820D02*
X008054Y001060D01*
X008201Y001060D02*
X008321Y000820D01*
X008441Y001060D01*
X008588Y001000D02*
X008588Y000820D01*
X008768Y000820D01*
X008828Y000880D01*
X008768Y000940D01*
X008588Y000940D01*
X008588Y001000D02*
X008648Y001060D01*
X008768Y001060D01*
X008974Y001180D02*
X009215Y000820D01*
X009361Y000820D02*
X009361Y001000D01*
X009421Y001060D01*
X009481Y001000D01*
X009481Y000820D01*
X009601Y000820D02*
X009601Y001060D01*
X009541Y001060D01*
X009481Y001000D01*
X009748Y001000D02*
X009808Y001060D01*
X009928Y001060D01*
X009988Y001000D01*
X009988Y000880D01*
X009928Y000820D01*
X009808Y000820D01*
X009748Y000880D01*
X009748Y001000D01*
X010134Y001060D02*
X010315Y001060D01*
X010375Y001000D01*
X010375Y000880D01*
X010315Y000820D01*
X010134Y000820D01*
X010508Y000820D02*
X010568Y000820D01*
X010568Y000880D01*
X010508Y000880D01*
X010508Y000820D01*
X010715Y000880D02*
X010775Y000940D01*
X010895Y000940D01*
X010955Y001000D01*
X010895Y001060D01*
X010715Y001060D01*
X011101Y001060D02*
X011281Y001060D01*
X011342Y001000D01*
X011342Y000880D01*
X011281Y000820D01*
X011101Y000820D01*
X010955Y000820D02*
X010775Y000820D01*
X010715Y000880D01*
X011479Y000820D02*
X011599Y000820D01*
X011539Y000820D02*
X011539Y001060D01*
X011599Y001060D01*
X011746Y001000D02*
X011746Y000820D01*
X011986Y000820D02*
X011986Y001060D01*
X011806Y001060D01*
X011746Y001000D01*
X012133Y001000D02*
X012193Y001060D01*
X012313Y001060D01*
X012373Y001000D01*
X012373Y000880D01*
X012313Y000820D01*
X012193Y000820D01*
X012133Y000880D01*
X012133Y001000D01*
X012515Y001060D02*
X012575Y001060D01*
X012695Y000940D01*
X012695Y000820D02*
X012695Y001060D01*
X012833Y001060D02*
X012953Y001060D01*
X012893Y001120D02*
X012893Y000880D01*
X012833Y000820D01*
X013099Y000940D02*
X013340Y000940D01*
X013340Y000880D02*
X013340Y001000D01*
X013280Y001060D01*
X013159Y001060D01*
X013099Y001000D01*
X013099Y000940D01*
X013159Y000820D02*
X013280Y000820D01*
X013340Y000880D01*
X013486Y000940D02*
X013726Y000940D01*
X013726Y000880D02*
X013726Y001000D01*
X013666Y001060D01*
X013546Y001060D01*
X013486Y001000D01*
X013486Y000940D01*
X013546Y000820D02*
X013666Y000820D01*
X013726Y000880D01*
X013868Y001060D02*
X013929Y001060D01*
X014049Y000940D01*
X014049Y000820D02*
X014049Y001060D01*
X014186Y001000D02*
X014306Y001000D01*
X014246Y001120D02*
X014186Y001180D01*
X014246Y001120D02*
X014246Y000820D01*
X014440Y000820D02*
X014500Y000820D01*
X014500Y000880D01*
X014440Y000880D01*
X014440Y000820D01*
X014646Y000880D02*
X014646Y001060D01*
X014887Y001060D02*
X014887Y000880D01*
X014826Y000820D01*
X014766Y000880D01*
X014706Y000820D01*
X014646Y000880D01*
X015033Y000880D02*
X015033Y001060D01*
X015273Y001060D02*
X015273Y000880D01*
X015213Y000820D01*
X015153Y000880D01*
X015093Y000820D01*
X015033Y000880D01*
X015420Y000880D02*
X015420Y001060D01*
X015420Y000880D02*
X015480Y000820D01*
X015540Y000880D01*
X015600Y000820D01*
X015660Y000880D01*
X015660Y001060D01*
X012785Y002755D02*
X012725Y002695D01*
X012605Y002695D01*
X012545Y002755D01*
X012545Y002815D01*
X012605Y002875D01*
X012725Y002875D01*
X012785Y002935D01*
X012785Y002995D01*
X012725Y003055D01*
X012605Y003055D01*
X012545Y002995D01*
X012398Y003055D02*
X012398Y002695D01*
X012398Y002815D02*
X012158Y003055D01*
X012012Y003055D02*
X012012Y002755D01*
X011951Y002695D01*
X011831Y002695D01*
X011771Y002755D01*
X011771Y003055D01*
X011625Y002935D02*
X011625Y002875D01*
X011565Y002875D01*
X011565Y002935D01*
X011625Y002935D01*
X011431Y002935D02*
X011311Y003055D01*
X011191Y002935D01*
X011191Y002695D01*
X011045Y002815D02*
X010925Y002695D01*
X010805Y002815D01*
X010805Y003055D01*
X010658Y003055D02*
X010478Y003055D01*
X010418Y002995D01*
X010418Y002875D01*
X010478Y002815D01*
X010658Y002815D01*
X010658Y002695D02*
X010658Y003055D01*
X011045Y003055D02*
X011045Y002815D01*
X011191Y002875D02*
X011431Y002875D01*
X011431Y002935D02*
X011431Y002695D01*
X011565Y002695D02*
X011625Y002695D01*
X011625Y002755D01*
X011565Y002755D01*
X011565Y002695D01*
X012158Y002695D02*
X012338Y002875D01*
X010538Y002815D02*
X010418Y002695D01*
X010271Y002695D02*
X010271Y003055D01*
X010091Y003055D01*
X010031Y002995D01*
X010031Y002875D01*
X010091Y002815D01*
X010271Y002815D01*
X009885Y002815D02*
X009704Y002815D01*
X009644Y002875D01*
X009644Y002995D01*
X009704Y003055D01*
X009885Y003055D01*
X009885Y002695D01*
X009764Y002815D02*
X009644Y002695D01*
X009498Y002755D02*
X009438Y002695D01*
X009318Y002695D01*
X009258Y002755D01*
X009258Y002995D01*
X009318Y003055D01*
X009438Y003055D01*
X009498Y002995D01*
X009498Y002755D01*
X009111Y002755D02*
X009051Y002695D01*
X008931Y002695D01*
X008871Y002755D01*
X008871Y002875D01*
X008991Y002875D01*
X009111Y002995D02*
X009111Y002755D01*
X009111Y002995D02*
X009051Y003055D01*
X008931Y003055D01*
X008871Y002995D01*
X011539Y001240D02*
X011539Y001180D01*
X012094Y004950D02*
X012094Y005310D01*
X011913Y005310D01*
X011853Y005250D01*
X011853Y005130D01*
X011913Y005070D01*
X012094Y005070D01*
X012240Y005130D02*
X012300Y005190D01*
X012420Y005190D01*
X012480Y005250D01*
X012420Y005310D01*
X012240Y005310D01*
X012240Y005130D02*
X012300Y005070D01*
X012480Y005070D01*
X012627Y005070D02*
X012627Y005310D01*
X012747Y005430D01*
X012867Y005310D01*
X012867Y005070D01*
X013014Y005130D02*
X013074Y005070D01*
X013254Y005070D01*
X013254Y005430D01*
X013074Y005430D01*
X013014Y005370D01*
X013014Y005310D01*
X013074Y005250D01*
X013254Y005250D01*
X013400Y005190D02*
X013400Y005130D01*
X013460Y005070D01*
X013580Y005070D01*
X013640Y005130D01*
X013580Y005250D02*
X013460Y005250D01*
X013400Y005190D01*
X013580Y005250D02*
X013640Y005310D01*
X013640Y005370D01*
X013580Y005430D01*
X013460Y005430D01*
X013400Y005370D01*
X013074Y005250D02*
X013014Y005190D01*
X013014Y005130D01*
X012867Y005250D02*
X012627Y005250D01*
X012637Y005695D02*
X012637Y006055D01*
X012456Y006055D01*
X012396Y005995D01*
X012396Y005875D01*
X012456Y005815D01*
X012637Y005815D01*
X012516Y005815D02*
X012396Y005695D01*
X012783Y005815D02*
X012783Y006055D01*
X013023Y006055D02*
X013023Y005815D01*
X012903Y005695D01*
X012783Y005815D01*
X013170Y005875D02*
X013410Y005875D01*
X013410Y005935D02*
X013290Y006055D01*
X013170Y005935D01*
X013170Y005695D01*
X013410Y005695D02*
X013410Y005935D01*
X013787Y005430D02*
X013787Y005130D01*
X013847Y005070D01*
X013967Y005070D01*
X014027Y005130D01*
X014027Y005430D01*
X014165Y005430D02*
X014285Y005310D01*
X014285Y005190D01*
X014165Y005070D01*
X011863Y005695D02*
X011863Y006055D01*
X011683Y006055D01*
X011623Y005995D01*
X011623Y005875D01*
X011683Y005815D01*
X011863Y005815D01*
X011476Y005815D02*
X011356Y005935D01*
X011296Y005935D01*
X011154Y005875D02*
X011154Y005755D01*
X011094Y005695D01*
X010974Y005695D01*
X010914Y005755D01*
X010914Y005875D01*
X010974Y005935D01*
X011094Y005935D01*
X011154Y005875D01*
X011476Y005935D02*
X011476Y005695D01*
X010767Y005755D02*
X010707Y005695D01*
X010527Y005695D01*
X010527Y005635D02*
X010527Y005935D01*
X010707Y005935D01*
X010767Y005875D01*
X010767Y005755D01*
X010647Y005575D02*
X010587Y005575D01*
X010527Y005635D01*
X010381Y005695D02*
X010381Y005935D01*
X010381Y005815D02*
X010261Y005935D01*
X010200Y005935D01*
X009998Y005935D02*
X009878Y005935D01*
X009818Y005875D01*
X009818Y005695D01*
X009998Y005695D01*
X010058Y005755D01*
X009998Y005815D01*
X009818Y005815D01*
X009672Y005695D02*
X009672Y005935D01*
X009612Y005935D01*
X009552Y005875D01*
X009491Y005935D01*
X009431Y005875D01*
X009431Y005695D01*
X009552Y005695D02*
X009552Y005875D01*
X009285Y005935D02*
X009225Y005935D01*
X009165Y005875D01*
X009105Y005935D01*
X009045Y005875D01*
X009045Y005695D01*
X009165Y005695D02*
X009165Y005875D01*
X009285Y005935D02*
X009285Y005695D01*
X009069Y005490D02*
X009069Y005430D01*
X009069Y005310D02*
X009069Y005070D01*
X009129Y005070D02*
X009009Y005070D01*
X008871Y005070D02*
X008691Y005070D01*
X008631Y005130D01*
X008631Y005250D01*
X008691Y005310D01*
X008871Y005310D01*
X008871Y005430D02*
X008871Y005070D01*
X008484Y005070D02*
X008364Y005070D01*
X008424Y005070D02*
X008424Y005430D01*
X008484Y005430D01*
X008226Y005250D02*
X008166Y005310D01*
X008046Y005310D01*
X007986Y005250D01*
X007986Y005190D01*
X008226Y005190D01*
X008226Y005130D02*
X008226Y005250D01*
X008226Y005130D02*
X008166Y005070D01*
X008046Y005070D01*
X007840Y005070D02*
X007719Y005190D01*
X007719Y005310D01*
X007840Y005430D01*
X008511Y005695D02*
X008511Y005935D01*
X008511Y005815D02*
X008391Y005935D01*
X008331Y005935D01*
X008658Y005875D02*
X008658Y005815D01*
X008898Y005815D01*
X008898Y005755D02*
X008898Y005875D01*
X008838Y005935D01*
X008718Y005935D01*
X008658Y005875D01*
X008838Y005695D02*
X008898Y005755D01*
X008838Y005695D02*
X008718Y005695D01*
X009326Y005370D02*
X009326Y005130D01*
X009266Y005070D01*
X009533Y005070D02*
X009713Y005070D01*
X009773Y005130D01*
X009713Y005190D01*
X009533Y005190D01*
X009533Y005250D02*
X009533Y005070D01*
X009533Y005250D02*
X009593Y005310D01*
X009713Y005310D01*
X009920Y005250D02*
X009920Y005130D01*
X009980Y005070D01*
X010160Y005070D01*
X010160Y004950D02*
X010160Y005310D01*
X009980Y005310D01*
X009920Y005250D01*
X010306Y005250D02*
X010306Y005070D01*
X010427Y005070D02*
X010427Y005250D01*
X010366Y005310D01*
X010306Y005250D01*
X010427Y005250D02*
X010487Y005310D01*
X010547Y005310D01*
X010547Y005070D01*
X010693Y005130D02*
X010693Y005250D01*
X010753Y005310D01*
X010873Y005310D01*
X010933Y005250D01*
X010933Y005130D01*
X010873Y005070D01*
X010753Y005070D01*
X010693Y005130D01*
X011080Y005070D02*
X011260Y005070D01*
X011320Y005130D01*
X011320Y005250D01*
X011260Y005310D01*
X011080Y005310D01*
X009386Y005310D02*
X009266Y005310D01*
X009129Y005310D02*
X009069Y005310D01*
D11*
X008945Y007270D02*
X012565Y007270D01*
X012601Y007273D01*
X012637Y007279D01*
X012672Y007289D01*
X012706Y007302D01*
X012738Y007319D01*
X012769Y007338D01*
X012797Y007360D01*
X012824Y007386D01*
X012847Y007413D01*
X012868Y007443D01*
X012886Y007474D01*
X012901Y007508D01*
X012912Y007542D01*
X012920Y007578D01*
X012924Y007614D01*
X012925Y007650D01*
X012925Y007780D01*
X012924Y007816D01*
X012920Y007852D01*
X012912Y007888D01*
X012901Y007922D01*
X012886Y007956D01*
X012868Y007987D01*
X012847Y008017D01*
X012824Y008044D01*
X012797Y008070D01*
X012769Y008092D01*
X012738Y008111D01*
X012706Y008128D01*
X012672Y008141D01*
X012637Y008151D01*
X012601Y008157D01*
X012565Y008160D01*
X008945Y008160D01*
X008909Y008157D01*
X008873Y008151D01*
X008838Y008141D01*
X008804Y008128D01*
X008772Y008111D01*
X008741Y008092D01*
X008713Y008070D01*
X008686Y008044D01*
X008663Y008017D01*
X008642Y007987D01*
X008624Y007956D01*
X008609Y007922D01*
X008598Y007888D01*
X008590Y007852D01*
X008586Y007816D01*
X008585Y007780D01*
X008585Y007670D01*
X008586Y007670D02*
X008585Y007633D01*
X008589Y007596D01*
X008596Y007559D01*
X008607Y007523D01*
X008621Y007489D01*
X008638Y007456D01*
X008659Y007425D01*
X008683Y007396D01*
X008709Y007369D01*
X008738Y007346D01*
X008769Y007325D01*
X008801Y007307D01*
X008836Y007293D01*
X008871Y007282D01*
X008908Y007274D01*
X008945Y007271D01*
D12*
X008854Y007575D02*
X008792Y007637D01*
X008854Y007698D01*
X008977Y007698D01*
X009039Y007760D01*
X008977Y007822D01*
X008792Y007822D01*
X009206Y007822D02*
X009392Y007822D01*
X009453Y007760D01*
X009453Y007637D01*
X009392Y007575D01*
X009206Y007575D01*
X009039Y007575D02*
X008854Y007575D01*
X009606Y007575D02*
X009730Y007575D01*
X009668Y007575D02*
X009668Y007822D01*
X009730Y007822D01*
X009668Y007945D02*
X009668Y008007D01*
X009897Y007760D02*
X009959Y007822D01*
X010144Y007822D01*
X010144Y007575D01*
X010311Y007637D02*
X010311Y007760D01*
X010373Y007822D01*
X010497Y007822D01*
X010558Y007760D01*
X010558Y007637D01*
X010497Y007575D01*
X010373Y007575D01*
X010311Y007637D01*
X009897Y007575D02*
X009897Y007760D01*
X010718Y007822D02*
X010780Y007822D01*
X010904Y007698D01*
X010904Y007575D02*
X010904Y007822D01*
X011056Y007822D02*
X011180Y007822D01*
X011118Y007884D02*
X011118Y007637D01*
X011056Y007575D01*
X011347Y007698D02*
X011594Y007698D01*
X011594Y007637D02*
X011594Y007760D01*
X011532Y007822D01*
X011409Y007822D01*
X011347Y007760D01*
X011347Y007698D01*
X011532Y007575D02*
X011594Y007637D01*
X011532Y007575D02*
X011409Y007575D01*
X011762Y007698D02*
X012008Y007698D01*
X012008Y007637D02*
X012008Y007760D01*
X011947Y007822D01*
X011823Y007822D01*
X011762Y007760D01*
X011762Y007698D01*
X011947Y007575D02*
X012008Y007637D01*
X011947Y007575D02*
X011823Y007575D01*
X012169Y007822D02*
X012230Y007822D01*
X012354Y007698D01*
X012354Y007575D02*
X012354Y007822D01*
X012507Y007760D02*
X012630Y007760D01*
X012568Y007884D02*
X012507Y007945D01*
X012568Y007884D02*
X012568Y007575D01*
M02*
