G75*
G70*
%OFA0B0*%
%FSLAX24Y24*%
%IPPOS*%
%LPD*%
%AMOC8*
5,1,8,0,0,1.08239X$1,22.5*
%
%ADD10R,0.0380X0.0380*%
%ADD11C,0.0600*%
%ADD12C,0.0820*%
%ADD13R,0.1064X0.0277*%
%ADD14R,0.1064X0.0867*%
%ADD15C,0.0434*%
%ADD16R,0.0407X0.0328*%
%ADD17R,0.0828X0.1419*%
%ADD18C,0.0740*%
%ADD19R,0.0560X0.0960*%
%ADD20R,0.1497X0.0946*%
%ADD21R,0.0592X0.0671*%
%ADD22R,0.0316X0.0277*%
%ADD23R,0.0316X0.0316*%
%ADD24R,0.0336X0.0277*%
%ADD25C,0.0840*%
%ADD26R,0.0300X0.0580*%
%ADD27R,0.0580X0.0300*%
D10*
X006660Y002235D03*
X006660Y002835D03*
X008710Y001410D03*
X009310Y001410D03*
X010635Y001410D03*
X011235Y001410D03*
X010410Y002435D03*
X010410Y003035D03*
X010410Y004535D03*
X010410Y005135D03*
X009660Y005935D03*
X009660Y006535D03*
X015110Y006635D03*
X015710Y006635D03*
X015710Y006085D03*
X015110Y006085D03*
X015110Y005535D03*
X015710Y005535D03*
D11*
X013410Y006535D03*
X011410Y006535D03*
D12*
X016410Y007285D03*
X017410Y007285D03*
X017410Y001785D03*
X016410Y001785D03*
D13*
X003744Y003905D03*
X003744Y004220D03*
X003744Y004535D03*
X003744Y004850D03*
X003744Y005165D03*
D14*
X003744Y006307D03*
X001579Y006307D03*
X001579Y002763D03*
X003744Y002763D03*
D15*
X002760Y003669D03*
X002760Y005401D03*
D16*
X004910Y002988D03*
X005910Y002988D03*
X005910Y002082D03*
X004910Y002082D03*
D17*
X005292Y005535D03*
X006828Y005535D03*
D18*
X017410Y005535D03*
X018410Y005535D03*
X018410Y004535D03*
X017410Y004535D03*
X017410Y003535D03*
X018410Y003535D03*
D19*
X009320Y002315D03*
X008410Y002315D03*
X007500Y002315D03*
D20*
X008410Y004755D03*
D21*
X008734Y005835D03*
X007986Y005835D03*
D22*
X002259Y001115D03*
X002811Y001115D03*
X002811Y001705D03*
X002259Y001705D03*
D23*
X002259Y001410D03*
X002811Y001410D03*
D24*
X003644Y001278D03*
X003644Y001592D03*
X004176Y001592D03*
X004176Y001278D03*
X004176Y000963D03*
X003644Y000963D03*
X003644Y001907D03*
X004176Y001907D03*
D25*
X005410Y007285D03*
X006410Y007285D03*
X007410Y007285D03*
D26*
X012308Y004975D03*
X012623Y004975D03*
X012938Y004975D03*
X013253Y004975D03*
X013567Y004975D03*
X013882Y004975D03*
X014197Y004975D03*
X014512Y004975D03*
X014512Y001595D03*
X014197Y001595D03*
X013882Y001595D03*
X013567Y001595D03*
X013253Y001595D03*
X012938Y001595D03*
X012623Y001595D03*
X012308Y001595D03*
D27*
X011720Y002183D03*
X011720Y002498D03*
X011720Y002813D03*
X011720Y003128D03*
X011720Y003442D03*
X011720Y003757D03*
X011720Y004072D03*
X011720Y004387D03*
X015100Y004387D03*
X015100Y004072D03*
X015100Y003757D03*
X015100Y003442D03*
X015100Y003128D03*
X015100Y002813D03*
X015100Y002498D03*
X015100Y002183D03*
M02*
