G75*
G70*
%OFA0B0*%
%FSLAX24Y24*%
%IPPOS*%
%LPD*%
%AMOC8*
5,1,8,0,0,1.08239X$1,22.5*
%
%ADD10C,0.0060*%
%ADD11C,0.0120*%
%ADD12C,0.0080*%
D10*
X006081Y000700D02*
X006021Y000760D01*
X006021Y001060D01*
X006201Y001060D01*
X006261Y001000D01*
X006261Y000880D01*
X006201Y000820D01*
X006021Y000820D01*
X006081Y000700D02*
X006141Y000700D01*
X006408Y000880D02*
X006408Y001000D01*
X006468Y001060D01*
X006588Y001060D01*
X006648Y001000D01*
X006648Y000880D01*
X006588Y000820D01*
X006468Y000820D01*
X006408Y000880D01*
X006790Y001060D02*
X006850Y001060D01*
X006970Y000940D01*
X006970Y000820D02*
X006970Y001060D01*
X007117Y001000D02*
X007117Y000880D01*
X007177Y000820D01*
X007357Y000820D01*
X007357Y000700D02*
X007357Y001060D01*
X007177Y001060D01*
X007117Y001000D01*
X007499Y001060D02*
X007559Y001060D01*
X007679Y000940D01*
X007679Y000820D02*
X007679Y001060D01*
X007826Y001060D02*
X007946Y000820D01*
X008066Y001060D01*
X008213Y001000D02*
X008213Y000820D01*
X008393Y000820D01*
X008453Y000880D01*
X008393Y000940D01*
X008213Y000940D01*
X008213Y001000D02*
X008273Y001060D01*
X008393Y001060D01*
X008599Y001180D02*
X008840Y000820D01*
X008986Y000820D02*
X008986Y001000D01*
X009046Y001060D01*
X009106Y001000D01*
X009106Y000820D01*
X009226Y000820D02*
X009226Y001060D01*
X009166Y001060D01*
X009106Y001000D01*
X009373Y001000D02*
X009433Y001060D01*
X009553Y001060D01*
X009613Y001000D01*
X009613Y000880D01*
X009553Y000820D01*
X009433Y000820D01*
X009373Y000880D01*
X009373Y001000D01*
X009759Y001060D02*
X009940Y001060D01*
X010000Y001000D01*
X010000Y000880D01*
X009940Y000820D01*
X009759Y000820D01*
X010133Y000820D02*
X010193Y000820D01*
X010193Y000880D01*
X010133Y000880D01*
X010133Y000820D01*
X010340Y000880D02*
X010400Y000940D01*
X010520Y000940D01*
X010580Y001000D01*
X010520Y001060D01*
X010340Y001060D01*
X010340Y000880D02*
X010400Y000820D01*
X010580Y000820D01*
X010726Y000820D02*
X010906Y000820D01*
X010967Y000880D01*
X010967Y001000D01*
X010906Y001060D01*
X010726Y001060D01*
X011164Y001060D02*
X011164Y000820D01*
X011224Y000820D02*
X011104Y000820D01*
X011371Y000820D02*
X011371Y001000D01*
X011431Y001060D01*
X011611Y001060D01*
X011611Y000820D01*
X011758Y000880D02*
X011758Y001000D01*
X011818Y001060D01*
X011938Y001060D01*
X011998Y001000D01*
X011998Y000880D01*
X011938Y000820D01*
X011818Y000820D01*
X011758Y000880D01*
X012140Y001060D02*
X012200Y001060D01*
X012320Y000940D01*
X012320Y000820D02*
X012320Y001060D01*
X012458Y001060D02*
X012578Y001060D01*
X012518Y001120D02*
X012518Y000880D01*
X012458Y000820D01*
X012724Y000940D02*
X012965Y000940D01*
X012965Y000880D02*
X012965Y001000D01*
X012905Y001060D01*
X012784Y001060D01*
X012724Y001000D01*
X012724Y000940D01*
X012784Y000820D02*
X012905Y000820D01*
X012965Y000880D01*
X013111Y000940D02*
X013351Y000940D01*
X013351Y000880D02*
X013351Y001000D01*
X013291Y001060D01*
X013171Y001060D01*
X013111Y001000D01*
X013111Y000940D01*
X013171Y000820D02*
X013291Y000820D01*
X013351Y000880D01*
X013493Y001060D02*
X013554Y001060D01*
X013674Y000940D01*
X013674Y000820D02*
X013674Y001060D01*
X013811Y001000D02*
X013931Y001000D01*
X013871Y001120D02*
X013811Y001180D01*
X013871Y001120D02*
X013871Y000820D01*
X014065Y000820D02*
X014125Y000820D01*
X014125Y000880D01*
X014065Y000880D01*
X014065Y000820D01*
X014271Y000880D02*
X014271Y001060D01*
X014512Y001060D02*
X014512Y000880D01*
X014451Y000820D01*
X014391Y000880D01*
X014331Y000820D01*
X014271Y000880D01*
X014658Y000880D02*
X014658Y001060D01*
X014898Y001060D02*
X014898Y000880D01*
X014838Y000820D01*
X014778Y000880D01*
X014718Y000820D01*
X014658Y000880D01*
X015045Y000880D02*
X015045Y001060D01*
X015285Y001060D02*
X015285Y000880D01*
X015225Y000820D01*
X015165Y000880D01*
X015105Y000820D01*
X015045Y000880D01*
X011224Y001060D02*
X011164Y001060D01*
X011164Y001180D02*
X011164Y001240D01*
X011191Y002695D02*
X011191Y002935D01*
X011311Y003055D01*
X011431Y002935D01*
X011431Y002695D01*
X011565Y002695D02*
X011625Y002695D01*
X011625Y002755D01*
X011565Y002755D01*
X011565Y002695D01*
X011771Y002755D02*
X011771Y003055D01*
X011625Y002935D02*
X011565Y002935D01*
X011565Y002875D01*
X011625Y002875D01*
X011625Y002935D01*
X011431Y002875D02*
X011191Y002875D01*
X011045Y002815D02*
X010925Y002695D01*
X010805Y002815D01*
X010805Y003055D01*
X010658Y003055D02*
X010478Y003055D01*
X010418Y002995D01*
X010418Y002875D01*
X010478Y002815D01*
X010658Y002815D01*
X010658Y002695D02*
X010658Y003055D01*
X011045Y003055D02*
X011045Y002815D01*
X010538Y002815D02*
X010418Y002695D01*
X010271Y002695D02*
X010271Y003055D01*
X010091Y003055D01*
X010031Y002995D01*
X010031Y002875D01*
X010091Y002815D01*
X010271Y002815D01*
X009885Y002815D02*
X009704Y002815D01*
X009644Y002875D01*
X009644Y002995D01*
X009704Y003055D01*
X009885Y003055D01*
X009885Y002695D01*
X009764Y002815D02*
X009644Y002695D01*
X009498Y002755D02*
X009438Y002695D01*
X009318Y002695D01*
X009258Y002755D01*
X009258Y002995D01*
X009318Y003055D01*
X009438Y003055D01*
X009498Y002995D01*
X009498Y002755D01*
X009111Y002755D02*
X009051Y002695D01*
X008931Y002695D01*
X008871Y002755D01*
X008871Y002875D01*
X008991Y002875D01*
X009111Y002995D02*
X009111Y002755D01*
X009111Y002995D02*
X009051Y003055D01*
X008931Y003055D01*
X008871Y002995D01*
X011771Y002755D02*
X011831Y002695D01*
X011951Y002695D01*
X012012Y002755D01*
X012012Y003055D01*
X012158Y003055D02*
X012398Y002815D01*
X012338Y002875D02*
X012158Y002695D01*
X012398Y002695D02*
X012398Y003055D01*
X012545Y002995D02*
X012605Y003055D01*
X012725Y003055D01*
X012785Y002995D01*
X012785Y002935D01*
X012725Y002875D01*
X012605Y002875D01*
X012545Y002815D01*
X012545Y002755D01*
X012605Y002695D01*
X012725Y002695D01*
X012785Y002755D01*
X012094Y004950D02*
X012094Y005310D01*
X011913Y005310D01*
X011853Y005250D01*
X011853Y005130D01*
X011913Y005070D01*
X012094Y005070D01*
X012240Y005130D02*
X012300Y005190D01*
X012420Y005190D01*
X012480Y005250D01*
X012420Y005310D01*
X012240Y005310D01*
X012240Y005130D02*
X012300Y005070D01*
X012480Y005070D01*
X012627Y005070D02*
X012627Y005310D01*
X012747Y005430D01*
X012867Y005310D01*
X012867Y005070D01*
X013014Y005130D02*
X013074Y005070D01*
X013254Y005070D01*
X013254Y005430D01*
X013074Y005430D01*
X013014Y005370D01*
X013014Y005310D01*
X013074Y005250D01*
X013254Y005250D01*
X013400Y005190D02*
X013400Y005130D01*
X013460Y005070D01*
X013580Y005070D01*
X013640Y005130D01*
X013580Y005250D02*
X013460Y005250D01*
X013400Y005190D01*
X013580Y005250D02*
X013640Y005310D01*
X013640Y005370D01*
X013580Y005430D01*
X013460Y005430D01*
X013400Y005370D01*
X013074Y005250D02*
X013014Y005190D01*
X013014Y005130D01*
X012867Y005250D02*
X012627Y005250D01*
X012637Y005695D02*
X012637Y006055D01*
X012456Y006055D01*
X012396Y005995D01*
X012396Y005875D01*
X012456Y005815D01*
X012637Y005815D01*
X012516Y005815D02*
X012396Y005695D01*
X012783Y005815D02*
X012783Y006055D01*
X012783Y005815D02*
X012903Y005695D01*
X013023Y005815D01*
X013023Y006055D01*
X013170Y005935D02*
X013170Y005695D01*
X013170Y005875D02*
X013410Y005875D01*
X013410Y005935D02*
X013290Y006055D01*
X013170Y005935D01*
X013410Y005935D02*
X013410Y005695D01*
X013787Y005430D02*
X013787Y005130D01*
X013847Y005070D01*
X013967Y005070D01*
X014027Y005130D01*
X014027Y005430D01*
X014165Y005430D02*
X014285Y005310D01*
X014285Y005190D01*
X014165Y005070D01*
X011863Y005695D02*
X011863Y006055D01*
X011683Y006055D01*
X011623Y005995D01*
X011623Y005875D01*
X011683Y005815D01*
X011863Y005815D01*
X011476Y005815D02*
X011356Y005935D01*
X011296Y005935D01*
X011154Y005875D02*
X011154Y005755D01*
X011094Y005695D01*
X010974Y005695D01*
X010914Y005755D01*
X010914Y005875D01*
X010974Y005935D01*
X011094Y005935D01*
X011154Y005875D01*
X011476Y005935D02*
X011476Y005695D01*
X011260Y005310D02*
X011080Y005310D01*
X010933Y005250D02*
X010933Y005130D01*
X010873Y005070D01*
X010753Y005070D01*
X010693Y005130D01*
X010693Y005250D01*
X010753Y005310D01*
X010873Y005310D01*
X010933Y005250D01*
X011080Y005070D02*
X011260Y005070D01*
X011320Y005130D01*
X011320Y005250D01*
X011260Y005310D01*
X010647Y005575D02*
X010587Y005575D01*
X010527Y005635D01*
X010527Y005935D01*
X010707Y005935D01*
X010767Y005875D01*
X010767Y005755D01*
X010707Y005695D01*
X010527Y005695D01*
X010381Y005695D02*
X010381Y005935D01*
X010381Y005815D02*
X010261Y005935D01*
X010200Y005935D01*
X009998Y005935D02*
X009878Y005935D01*
X009818Y005875D01*
X009818Y005695D01*
X009998Y005695D01*
X010058Y005755D01*
X009998Y005815D01*
X009818Y005815D01*
X009672Y005695D02*
X009672Y005935D01*
X009612Y005935D01*
X009552Y005875D01*
X009491Y005935D01*
X009431Y005875D01*
X009431Y005695D01*
X009552Y005695D02*
X009552Y005875D01*
X009285Y005935D02*
X009225Y005935D01*
X009165Y005875D01*
X009105Y005935D01*
X009045Y005875D01*
X009045Y005695D01*
X009165Y005695D02*
X009165Y005875D01*
X009285Y005935D02*
X009285Y005695D01*
X009069Y005490D02*
X009069Y005430D01*
X009069Y005310D02*
X009069Y005070D01*
X009129Y005070D02*
X009009Y005070D01*
X008871Y005070D02*
X008691Y005070D01*
X008631Y005130D01*
X008631Y005250D01*
X008691Y005310D01*
X008871Y005310D01*
X008871Y005430D02*
X008871Y005070D01*
X008484Y005070D02*
X008364Y005070D01*
X008424Y005070D02*
X008424Y005430D01*
X008484Y005430D01*
X008226Y005250D02*
X008166Y005310D01*
X008046Y005310D01*
X007986Y005250D01*
X007986Y005190D01*
X008226Y005190D01*
X008226Y005130D02*
X008226Y005250D01*
X008226Y005130D02*
X008166Y005070D01*
X008046Y005070D01*
X007840Y005070D02*
X007719Y005190D01*
X007719Y005310D01*
X007840Y005430D01*
X008511Y005695D02*
X008511Y005935D01*
X008511Y005815D02*
X008391Y005935D01*
X008331Y005935D01*
X008658Y005875D02*
X008658Y005815D01*
X008898Y005815D01*
X008898Y005755D02*
X008898Y005875D01*
X008838Y005935D01*
X008718Y005935D01*
X008658Y005875D01*
X008838Y005695D02*
X008898Y005755D01*
X008838Y005695D02*
X008718Y005695D01*
X009326Y005370D02*
X009326Y005130D01*
X009266Y005070D01*
X009533Y005070D02*
X009713Y005070D01*
X009773Y005130D01*
X009713Y005190D01*
X009533Y005190D01*
X009533Y005250D02*
X009533Y005070D01*
X009533Y005250D02*
X009593Y005310D01*
X009713Y005310D01*
X009920Y005250D02*
X009920Y005130D01*
X009980Y005070D01*
X010160Y005070D01*
X010160Y004950D02*
X010160Y005310D01*
X009980Y005310D01*
X009920Y005250D01*
X010306Y005250D02*
X010306Y005070D01*
X010427Y005070D02*
X010427Y005250D01*
X010366Y005310D01*
X010306Y005250D01*
X010427Y005250D02*
X010487Y005310D01*
X010547Y005310D01*
X010547Y005070D01*
X009386Y005310D02*
X009266Y005310D01*
X009129Y005310D02*
X009069Y005310D01*
D11*
X008945Y007270D02*
X012565Y007270D01*
X012601Y007273D01*
X012637Y007279D01*
X012672Y007289D01*
X012706Y007302D01*
X012738Y007319D01*
X012769Y007338D01*
X012797Y007360D01*
X012824Y007386D01*
X012847Y007413D01*
X012868Y007443D01*
X012886Y007474D01*
X012901Y007508D01*
X012912Y007542D01*
X012920Y007578D01*
X012924Y007614D01*
X012925Y007650D01*
X012925Y007780D01*
X012924Y007816D01*
X012920Y007852D01*
X012912Y007888D01*
X012901Y007922D01*
X012886Y007956D01*
X012868Y007987D01*
X012847Y008017D01*
X012824Y008044D01*
X012797Y008070D01*
X012769Y008092D01*
X012738Y008111D01*
X012706Y008128D01*
X012672Y008141D01*
X012637Y008151D01*
X012601Y008157D01*
X012565Y008160D01*
X008945Y008160D01*
X008909Y008157D01*
X008873Y008151D01*
X008838Y008141D01*
X008804Y008128D01*
X008772Y008111D01*
X008741Y008092D01*
X008713Y008070D01*
X008686Y008044D01*
X008663Y008017D01*
X008642Y007987D01*
X008624Y007956D01*
X008609Y007922D01*
X008598Y007888D01*
X008590Y007852D01*
X008586Y007816D01*
X008585Y007780D01*
X008585Y007670D01*
X008586Y007670D02*
X008585Y007633D01*
X008589Y007596D01*
X008596Y007559D01*
X008607Y007523D01*
X008621Y007489D01*
X008638Y007456D01*
X008659Y007425D01*
X008683Y007396D01*
X008709Y007369D01*
X008738Y007346D01*
X008769Y007325D01*
X008801Y007307D01*
X008836Y007293D01*
X008871Y007282D01*
X008908Y007274D01*
X008945Y007271D01*
D12*
X008854Y007575D02*
X008792Y007637D01*
X008854Y007698D01*
X008977Y007698D01*
X009039Y007760D01*
X008977Y007822D01*
X008792Y007822D01*
X008854Y007575D02*
X009039Y007575D01*
X009206Y007575D02*
X009392Y007575D01*
X009453Y007637D01*
X009453Y007760D01*
X009392Y007822D01*
X009206Y007822D01*
X009668Y007822D02*
X009668Y007575D01*
X009730Y007575D02*
X009606Y007575D01*
X009897Y007575D02*
X009897Y007760D01*
X009959Y007822D01*
X010144Y007822D01*
X010144Y007575D01*
X010311Y007637D02*
X010311Y007760D01*
X010373Y007822D01*
X010497Y007822D01*
X010558Y007760D01*
X010558Y007637D01*
X010497Y007575D01*
X010373Y007575D01*
X010311Y007637D01*
X010718Y007822D02*
X010780Y007822D01*
X010904Y007698D01*
X010904Y007575D02*
X010904Y007822D01*
X011056Y007822D02*
X011180Y007822D01*
X011118Y007884D02*
X011118Y007637D01*
X011056Y007575D01*
X011347Y007698D02*
X011594Y007698D01*
X011594Y007637D02*
X011594Y007760D01*
X011532Y007822D01*
X011409Y007822D01*
X011347Y007760D01*
X011347Y007698D01*
X011532Y007575D02*
X011594Y007637D01*
X011532Y007575D02*
X011409Y007575D01*
X011762Y007698D02*
X012008Y007698D01*
X012008Y007637D02*
X012008Y007760D01*
X011947Y007822D01*
X011823Y007822D01*
X011762Y007760D01*
X011762Y007698D01*
X011823Y007575D02*
X011947Y007575D01*
X012008Y007637D01*
X012230Y007822D02*
X012354Y007698D01*
X012354Y007575D02*
X012354Y007822D01*
X012230Y007822D02*
X012169Y007822D01*
X012507Y007760D02*
X012630Y007760D01*
X012568Y007884D02*
X012568Y007575D01*
X012568Y007884D02*
X012507Y007945D01*
X009730Y007822D02*
X009668Y007822D01*
X009668Y007945D02*
X009668Y008007D01*
M02*
