G75*
G70*
%OFA0B0*%
%FSLAX24Y24*%
%IPPOS*%
%LPD*%
%AMOC8*
5,1,8,0,0,1.08239X$1,22.5*
%
%ADD10C,0.0520*%
%ADD11C,0.0740*%
%ADD12C,0.0660*%
%ADD13C,0.0760*%
%ADD14C,0.0120*%
%ADD15C,0.0317*%
%ADD16C,0.0396*%
%ADD17C,0.0400*%
%ADD18C,0.0240*%
%ADD19C,0.0160*%
D10*
X011410Y006535D03*
X013410Y006535D03*
D11*
X016410Y007285D03*
X017410Y007285D03*
X017410Y001785D03*
X016410Y001785D03*
D12*
X017410Y003535D03*
X018410Y003535D03*
X018410Y004535D03*
X017410Y004535D03*
X017410Y005535D03*
X018410Y005535D03*
D13*
X007410Y007285D03*
X006410Y007285D03*
X005410Y007285D03*
D14*
X001428Y000746D02*
X001143Y000910D01*
X000910Y001143D01*
X000746Y001428D01*
X000661Y001746D01*
X000650Y001910D01*
X000650Y007160D01*
X000661Y007324D01*
X000746Y007642D01*
X000910Y007927D01*
X001143Y008160D01*
X001428Y008324D01*
X001746Y008409D01*
X001910Y008420D01*
X018660Y008420D01*
X018824Y008409D01*
X019142Y008324D01*
X019427Y008160D01*
X019660Y007927D01*
X019824Y007642D01*
X019909Y007324D01*
X019920Y007160D01*
X019920Y001910D01*
X019909Y001746D01*
X019824Y001428D01*
X019660Y001143D01*
X019427Y000910D01*
X019142Y000746D01*
X018824Y000661D01*
X018660Y000650D01*
X002824Y000650D01*
X002854Y000722D01*
X002854Y000848D01*
X002805Y000966D01*
X002755Y001016D01*
X002755Y001244D01*
X003202Y001691D01*
X003273Y001691D01*
X003391Y001740D01*
X003480Y001829D01*
X003529Y001947D01*
X003529Y002073D01*
X003480Y002191D01*
X003391Y002280D01*
X003273Y002329D01*
X003147Y002329D01*
X003029Y002280D01*
X002979Y002230D01*
X002979Y002348D01*
X002930Y002466D01*
X002860Y002536D01*
X002860Y002577D01*
X003618Y003335D01*
X004742Y003335D01*
X004763Y003315D01*
X006341Y001736D01*
X006341Y001722D01*
X006390Y001604D01*
X006479Y001515D01*
X006597Y001466D01*
X006668Y001466D01*
X007069Y001065D01*
X011001Y001065D01*
X011130Y001194D01*
X011491Y001555D01*
X011491Y001472D01*
X011540Y001354D01*
X011629Y001265D01*
X011747Y001216D01*
X011873Y001216D01*
X011991Y001265D01*
X012041Y001315D01*
X014929Y001315D01*
X014979Y001265D01*
X015097Y001216D01*
X015223Y001216D01*
X015341Y001265D01*
X015430Y001354D01*
X015479Y001472D01*
X015479Y001598D01*
X015430Y001716D01*
X015341Y001805D01*
X015223Y001854D01*
X015097Y001854D01*
X014979Y001805D01*
X014929Y001755D01*
X012041Y001755D01*
X011991Y001805D01*
X011873Y001854D01*
X011790Y001854D01*
X011901Y001965D01*
X012579Y001965D01*
X012629Y001915D01*
X012747Y001866D01*
X012873Y001866D01*
X012991Y001915D01*
X013080Y002004D01*
X013129Y002122D01*
X013129Y002248D01*
X013080Y002366D01*
X012991Y002455D01*
X012873Y002504D01*
X012802Y002504D01*
X012630Y002676D01*
X012630Y003744D01*
X012930Y004044D01*
X013001Y004044D01*
X013118Y004092D01*
X013208Y004182D01*
X013256Y004299D01*
X013256Y004426D01*
X013208Y004543D01*
X013118Y004633D01*
X013001Y004681D01*
X012874Y004681D01*
X012757Y004633D01*
X012667Y004543D01*
X012619Y004426D01*
X012619Y004355D01*
X012319Y004055D01*
X012190Y003926D01*
X012190Y002494D01*
X012279Y002405D01*
X011719Y002405D01*
X010819Y001505D01*
X007251Y001505D01*
X006979Y001777D01*
X006979Y001848D01*
X006930Y001966D01*
X006841Y002055D01*
X006723Y002104D01*
X006709Y002104D01*
X005575Y003238D01*
X005641Y003265D01*
X005691Y003315D01*
X010179Y003315D01*
X010229Y003265D01*
X010347Y003216D01*
X010473Y003216D01*
X010591Y003265D01*
X010680Y003354D01*
X010729Y003472D01*
X010729Y003598D01*
X010680Y003716D01*
X010611Y003785D01*
X010680Y003854D01*
X010729Y003972D01*
X010729Y004098D01*
X010680Y004216D01*
X010591Y004305D01*
X010473Y004354D01*
X010347Y004354D01*
X010229Y004305D01*
X010179Y004255D01*
X006091Y004255D01*
X006041Y004305D01*
X005923Y004354D01*
X005797Y004354D01*
X005679Y004305D01*
X005590Y004216D01*
X005541Y004098D01*
X005541Y003972D01*
X005590Y003854D01*
X005638Y003806D01*
X005523Y003854D01*
X005397Y003854D01*
X005279Y003805D01*
X005190Y003716D01*
X005170Y003668D01*
X005170Y003927D01*
X006059Y004816D01*
X006073Y004816D01*
X006191Y004865D01*
X006280Y004954D01*
X006329Y005072D01*
X006329Y005198D01*
X006280Y005316D01*
X006191Y005405D01*
X006073Y005454D01*
X005947Y005454D01*
X005829Y005405D01*
X005740Y005316D01*
X005691Y005198D01*
X005691Y005184D01*
X004690Y004182D01*
X004650Y004087D01*
X004650Y003735D01*
X003452Y003735D01*
X002577Y002860D01*
X002460Y002743D01*
X002460Y002536D01*
X002390Y002466D01*
X002341Y002348D01*
X002341Y002222D01*
X002390Y002104D01*
X002479Y002015D01*
X002597Y001966D01*
X002723Y001966D01*
X002841Y002015D01*
X002891Y002065D01*
X002891Y002002D01*
X002444Y001555D01*
X002315Y001426D01*
X002315Y001016D01*
X002265Y000966D01*
X002216Y000848D01*
X002216Y000722D01*
X002246Y000650D01*
X001910Y000650D01*
X001746Y000661D01*
X001428Y000746D01*
X001394Y000766D02*
X002216Y000766D01*
X002231Y000884D02*
X001189Y000884D01*
X001051Y001003D02*
X002302Y001003D01*
X002315Y001121D02*
X000932Y001121D01*
X000855Y001240D02*
X002315Y001240D01*
X002315Y001358D02*
X000786Y001358D01*
X000733Y001477D02*
X002365Y001477D01*
X002484Y001595D02*
X000701Y001595D01*
X000669Y001714D02*
X002602Y001714D01*
X002721Y001832D02*
X000655Y001832D01*
X000650Y001951D02*
X002839Y001951D01*
X002425Y002069D02*
X000650Y002069D01*
X000650Y002188D02*
X002355Y002188D01*
X002341Y002306D02*
X000650Y002306D01*
X000650Y002425D02*
X002373Y002425D01*
X002460Y002543D02*
X000650Y002543D01*
X000650Y002662D02*
X002460Y002662D01*
X002660Y002660D02*
X002660Y002285D01*
X002947Y002425D02*
X005653Y002425D01*
X005534Y002543D02*
X002860Y002543D01*
X002944Y002662D02*
X005416Y002662D01*
X005297Y002780D02*
X003063Y002780D01*
X003181Y002899D02*
X005179Y002899D01*
X005060Y003017D02*
X003300Y003017D01*
X003418Y003136D02*
X004942Y003136D01*
X004823Y003254D02*
X003537Y003254D01*
X003114Y003433D02*
X003177Y003586D01*
X003177Y003752D01*
X003114Y003905D01*
X002996Y004023D01*
X002843Y004086D01*
X002677Y004086D01*
X002524Y004023D01*
X002406Y003905D01*
X002343Y003752D01*
X002343Y003586D01*
X002406Y003433D01*
X002524Y003315D01*
X002677Y003252D01*
X002843Y003252D01*
X002996Y003315D01*
X003114Y003433D01*
X003138Y003491D02*
X003208Y003491D01*
X003177Y003610D02*
X003327Y003610D01*
X003445Y003728D02*
X003177Y003728D01*
X003138Y003847D02*
X004650Y003847D01*
X004650Y003965D02*
X003054Y003965D01*
X002849Y004084D02*
X004650Y004084D01*
X004709Y004202D02*
X000650Y004202D01*
X000650Y004084D02*
X002671Y004084D01*
X002466Y003965D02*
X000650Y003965D01*
X000650Y003847D02*
X002382Y003847D01*
X002343Y003728D02*
X000650Y003728D01*
X000650Y003610D02*
X002343Y003610D01*
X002382Y003491D02*
X000650Y003491D01*
X000650Y003373D02*
X002466Y003373D01*
X002671Y003254D02*
X000650Y003254D01*
X000650Y003136D02*
X002853Y003136D01*
X002849Y003254D02*
X002971Y003254D01*
X003054Y003373D02*
X003090Y003373D01*
X003535Y003535D02*
X002660Y002660D01*
X002497Y002780D02*
X000650Y002780D01*
X000650Y002899D02*
X002616Y002899D01*
X002734Y003017D02*
X000650Y003017D01*
X002979Y002306D02*
X003092Y002306D01*
X003328Y002306D02*
X005771Y002306D01*
X005890Y002188D02*
X003481Y002188D01*
X003529Y002069D02*
X006008Y002069D01*
X006127Y001951D02*
X003529Y001951D01*
X003481Y001832D02*
X006245Y001832D01*
X006345Y001714D02*
X003327Y001714D01*
X003106Y001595D02*
X006399Y001595D01*
X006572Y001477D02*
X002988Y001477D01*
X002869Y001358D02*
X006776Y001358D01*
X006894Y001240D02*
X002755Y001240D01*
X002755Y001121D02*
X007013Y001121D01*
X007161Y001595D02*
X010909Y001595D01*
X011027Y001714D02*
X007043Y001714D01*
X006979Y001832D02*
X011146Y001832D01*
X011264Y001951D02*
X006936Y001951D01*
X006807Y002069D02*
X011383Y002069D01*
X011501Y002188D02*
X006625Y002188D01*
X006507Y002306D02*
X011620Y002306D01*
X012190Y002543D02*
X006270Y002543D01*
X006388Y002425D02*
X012259Y002425D01*
X012190Y002662D02*
X006151Y002662D01*
X006033Y002780D02*
X012190Y002780D01*
X012190Y002899D02*
X005914Y002899D01*
X005796Y003017D02*
X012190Y003017D01*
X012190Y003136D02*
X005677Y003136D01*
X005615Y003254D02*
X010255Y003254D01*
X010565Y003254D02*
X012190Y003254D01*
X012190Y003373D02*
X010688Y003373D01*
X010729Y003491D02*
X012190Y003491D01*
X012190Y003610D02*
X010724Y003610D01*
X010668Y003728D02*
X012190Y003728D01*
X012190Y003847D02*
X010672Y003847D01*
X010726Y003965D02*
X012229Y003965D01*
X012347Y004084D02*
X010729Y004084D01*
X010686Y004202D02*
X012466Y004202D01*
X012584Y004321D02*
X010554Y004321D01*
X010266Y004321D02*
X006004Y004321D01*
X005716Y004321D02*
X005563Y004321D01*
X005682Y004439D02*
X012624Y004439D01*
X012682Y004558D02*
X009913Y004558D01*
X009948Y004592D02*
X010000Y004717D01*
X010000Y004853D01*
X009948Y004978D01*
X009853Y005073D01*
X009728Y005125D01*
X007551Y005125D01*
X007250Y005426D01*
X007250Y006603D01*
X007198Y006728D01*
X007103Y006823D01*
X006978Y006875D01*
X006842Y006875D01*
X006717Y006823D01*
X006689Y006795D01*
X006638Y006795D01*
X006716Y006827D01*
X006868Y006979D01*
X006910Y007081D01*
X006952Y006979D01*
X007104Y006827D01*
X007303Y006745D01*
X007517Y006745D01*
X007716Y006827D01*
X007868Y006979D01*
X007950Y007178D01*
X007950Y007392D01*
X007868Y007591D01*
X007716Y007743D01*
X007517Y007825D01*
X007303Y007825D01*
X007104Y007743D01*
X006952Y007591D01*
X006910Y007489D01*
X006868Y007591D01*
X006716Y007743D01*
X006517Y007825D01*
X006303Y007825D01*
X006104Y007743D01*
X005952Y007591D01*
X005910Y007489D01*
X005868Y007591D01*
X005716Y007743D01*
X005517Y007825D01*
X005303Y007825D01*
X005104Y007743D01*
X004952Y007591D01*
X004870Y007392D01*
X004870Y007178D01*
X004952Y006979D01*
X005104Y006827D01*
X005303Y006745D01*
X005517Y006745D01*
X005563Y006764D01*
X006013Y006315D01*
X006108Y006275D01*
X006570Y006275D01*
X006570Y005217D01*
X006622Y005092D01*
X006717Y004997D01*
X007217Y004497D01*
X007342Y004445D01*
X009728Y004445D01*
X009853Y004497D01*
X009948Y004592D01*
X009983Y004676D02*
X012861Y004676D01*
X013014Y004676D02*
X016393Y004676D01*
X016347Y004630D02*
X014694Y004630D01*
X013819Y003755D01*
X013191Y003755D01*
X013141Y003805D01*
X013023Y003854D01*
X012897Y003854D01*
X012779Y003805D01*
X012690Y003716D01*
X012641Y003598D01*
X012641Y003472D01*
X012690Y003354D01*
X012779Y003265D01*
X012892Y003218D01*
X012890Y003216D01*
X012841Y003098D01*
X012841Y002972D01*
X012890Y002854D01*
X012979Y002765D01*
X013097Y002716D01*
X013140Y002716D01*
X013091Y002598D01*
X013091Y002472D01*
X013140Y002354D01*
X013229Y002265D01*
X013347Y002216D01*
X013473Y002216D01*
X013591Y002265D01*
X013641Y002315D01*
X014119Y002315D01*
X014091Y002248D01*
X014091Y002122D01*
X014140Y002004D01*
X014229Y001915D01*
X014347Y001866D01*
X014473Y001866D01*
X014591Y001915D01*
X014641Y001965D01*
X015319Y001965D01*
X015590Y001694D01*
X015590Y001694D01*
X015719Y001565D01*
X015927Y001565D01*
X015961Y001485D01*
X016110Y001336D01*
X016305Y001255D01*
X016515Y001255D01*
X016710Y001336D01*
X016859Y001485D01*
X016910Y001608D01*
X016919Y001582D01*
X016957Y001507D01*
X017006Y001440D01*
X017065Y001381D01*
X017132Y001332D01*
X017207Y001294D01*
X017286Y001268D01*
X017368Y001255D01*
X017370Y001255D01*
X017370Y001745D01*
X017450Y001745D01*
X017450Y001825D01*
X017370Y001825D01*
X017370Y002315D01*
X017368Y002315D01*
X017286Y002302D01*
X017207Y002276D01*
X017132Y002238D01*
X017065Y002189D01*
X017006Y002130D01*
X016957Y002063D01*
X016919Y001988D01*
X016910Y001962D01*
X016859Y002085D01*
X016710Y002234D01*
X016515Y002315D01*
X016305Y002315D01*
X016110Y002234D01*
X015961Y002085D01*
X015927Y002005D01*
X015901Y002005D01*
X015630Y002276D01*
X015630Y002276D01*
X015591Y002315D01*
X017501Y002315D01*
X018255Y003069D01*
X018313Y003045D01*
X018507Y003045D01*
X018688Y003120D01*
X018825Y003257D01*
X018900Y003438D01*
X018900Y003632D01*
X018825Y003813D01*
X018688Y003950D01*
X018507Y004025D01*
X018313Y004025D01*
X018132Y003950D01*
X017995Y003813D01*
X017920Y003632D01*
X017920Y003438D01*
X017944Y003380D01*
X017828Y003264D01*
X017900Y003438D01*
X017900Y003632D01*
X017825Y003813D01*
X017688Y003950D01*
X017507Y004025D01*
X017313Y004025D01*
X017139Y003953D01*
X017255Y004069D01*
X017313Y004045D01*
X017507Y004045D01*
X017688Y004120D01*
X017825Y004257D01*
X017900Y004438D01*
X017900Y004632D01*
X017825Y004813D01*
X017823Y004815D01*
X017997Y004815D01*
X017995Y004813D01*
X017920Y004632D01*
X017920Y004438D01*
X017995Y004257D01*
X018132Y004120D01*
X018313Y004045D01*
X018507Y004045D01*
X018688Y004120D01*
X018825Y004257D01*
X018900Y004438D01*
X018900Y004632D01*
X018825Y004813D01*
X018688Y004950D01*
X018507Y005025D01*
X018313Y005025D01*
X018139Y004953D01*
X018255Y005069D01*
X018313Y005045D01*
X018507Y005045D01*
X018688Y005120D01*
X018825Y005257D01*
X018900Y005438D01*
X018900Y005632D01*
X018825Y005813D01*
X018688Y005950D01*
X018507Y006025D01*
X018313Y006025D01*
X018132Y005950D01*
X017995Y005813D01*
X017920Y005632D01*
X017920Y005438D01*
X017944Y005380D01*
X017799Y005235D01*
X017798Y005235D01*
X017829Y005278D01*
X017864Y005347D01*
X017888Y005420D01*
X017900Y005496D01*
X017900Y005497D01*
X017448Y005497D01*
X017448Y005573D01*
X017372Y005573D01*
X017372Y005497D01*
X016920Y005497D01*
X016920Y005496D01*
X016932Y005420D01*
X016956Y005347D01*
X016991Y005278D01*
X017022Y005235D01*
X016952Y005235D01*
X016347Y004630D01*
X016410Y004410D02*
X017035Y005035D01*
X017910Y005035D01*
X018218Y005032D02*
X019920Y005032D01*
X019920Y005150D02*
X018718Y005150D01*
X018830Y005269D02*
X019920Y005269D01*
X019920Y005387D02*
X018879Y005387D01*
X018900Y005506D02*
X019920Y005506D01*
X019920Y005624D02*
X018900Y005624D01*
X018854Y005743D02*
X019920Y005743D01*
X019920Y005861D02*
X018777Y005861D01*
X018617Y005980D02*
X019920Y005980D01*
X019920Y006098D02*
X007250Y006098D01*
X007250Y006217D02*
X011135Y006217D01*
X011172Y006179D02*
X011326Y006115D01*
X011494Y006115D01*
X011648Y006179D01*
X011766Y006297D01*
X011830Y006451D01*
X011830Y006619D01*
X011766Y006773D01*
X011648Y006891D01*
X011494Y006955D01*
X011326Y006955D01*
X011172Y006891D01*
X011054Y006773D01*
X010990Y006619D01*
X010990Y006451D01*
X011054Y006297D01*
X011172Y006179D01*
X011038Y006335D02*
X007250Y006335D01*
X007250Y006454D02*
X010990Y006454D01*
X010990Y006572D02*
X007250Y006572D01*
X007214Y006691D02*
X011020Y006691D01*
X011090Y006809D02*
X007672Y006809D01*
X007816Y006928D02*
X011260Y006928D01*
X011560Y006928D02*
X013260Y006928D01*
X013326Y006955D02*
X013172Y006891D01*
X013054Y006773D01*
X012990Y006619D01*
X012990Y006451D01*
X013054Y006297D01*
X013172Y006179D01*
X013326Y006115D01*
X013494Y006115D01*
X013648Y006179D01*
X013766Y006297D01*
X013830Y006451D01*
X013830Y006619D01*
X013766Y006773D01*
X013648Y006891D01*
X013494Y006955D01*
X013326Y006955D01*
X013560Y006928D02*
X016018Y006928D01*
X015961Y006985D02*
X016110Y006836D01*
X016305Y006755D01*
X016515Y006755D01*
X016710Y006836D01*
X016859Y006985D01*
X016910Y007107D01*
X016961Y006985D01*
X017110Y006836D01*
X017305Y006755D01*
X017515Y006755D01*
X017710Y006836D01*
X017859Y006985D01*
X017940Y007180D01*
X017940Y007390D01*
X017859Y007585D01*
X017710Y007734D01*
X017515Y007815D01*
X017305Y007815D01*
X017110Y007734D01*
X016961Y007585D01*
X016910Y007463D01*
X016859Y007585D01*
X016710Y007734D01*
X016515Y007815D01*
X016305Y007815D01*
X016110Y007734D01*
X015961Y007585D01*
X015880Y007390D01*
X015880Y007180D01*
X015961Y006985D01*
X015935Y007046D02*
X007895Y007046D01*
X007945Y007165D02*
X015886Y007165D01*
X015880Y007283D02*
X007950Y007283D01*
X007946Y007402D02*
X015885Y007402D01*
X015934Y007520D02*
X007897Y007520D01*
X007820Y007639D02*
X016014Y007639D01*
X016165Y007757D02*
X007682Y007757D01*
X007138Y007757D02*
X006682Y007757D01*
X006820Y007639D02*
X007000Y007639D01*
X006923Y007520D02*
X006897Y007520D01*
X006138Y007757D02*
X005682Y007757D01*
X005820Y007639D02*
X006000Y007639D01*
X005923Y007520D02*
X005897Y007520D01*
X005138Y007757D02*
X000812Y007757D01*
X000745Y007639D02*
X005000Y007639D01*
X004923Y007520D02*
X000713Y007520D01*
X000681Y007402D02*
X004874Y007402D01*
X004870Y007283D02*
X000658Y007283D01*
X000661Y007324D02*
X000661Y007324D01*
X000650Y007165D02*
X004875Y007165D01*
X004924Y007046D02*
X000650Y007046D01*
X000650Y006928D02*
X005004Y006928D01*
X005148Y006809D02*
X000650Y006809D01*
X000650Y006691D02*
X005637Y006691D01*
X005755Y006572D02*
X000650Y006572D01*
X000650Y006454D02*
X005874Y006454D01*
X005992Y006335D02*
X000650Y006335D01*
X000650Y006217D02*
X006570Y006217D01*
X006570Y006098D02*
X000650Y006098D01*
X000650Y005980D02*
X006570Y005980D01*
X006570Y005861D02*
X000650Y005861D01*
X000650Y005743D02*
X002511Y005743D01*
X002524Y005755D02*
X002406Y005637D01*
X002343Y005484D01*
X002343Y005318D01*
X002406Y005165D01*
X002524Y005047D01*
X002677Y004984D01*
X002843Y004984D01*
X002996Y005047D01*
X003114Y005165D01*
X003177Y005318D01*
X003177Y005484D01*
X003114Y005637D01*
X002996Y005755D01*
X002843Y005818D01*
X002677Y005818D01*
X002524Y005755D01*
X002401Y005624D02*
X000650Y005624D01*
X000650Y005506D02*
X002352Y005506D01*
X002343Y005387D02*
X000650Y005387D01*
X000650Y005269D02*
X002363Y005269D01*
X002421Y005150D02*
X000650Y005150D01*
X000650Y005032D02*
X002562Y005032D01*
X002958Y005032D02*
X005539Y005032D01*
X005657Y005150D02*
X003099Y005150D01*
X003157Y005269D02*
X005720Y005269D01*
X005811Y005387D02*
X003177Y005387D01*
X003168Y005506D02*
X006570Y005506D01*
X006570Y005624D02*
X003119Y005624D01*
X003009Y005743D02*
X006570Y005743D01*
X006570Y005387D02*
X006209Y005387D01*
X006300Y005269D02*
X006570Y005269D01*
X006598Y005150D02*
X006329Y005150D01*
X006312Y005032D02*
X006683Y005032D01*
X006801Y004913D02*
X006239Y004913D01*
X006037Y004795D02*
X006920Y004795D01*
X007038Y004676D02*
X005919Y004676D01*
X005800Y004558D02*
X007157Y004558D01*
X007526Y005150D02*
X016867Y005150D01*
X016749Y005032D02*
X009894Y005032D01*
X009975Y004913D02*
X016630Y004913D01*
X016512Y004795D02*
X010000Y004795D01*
X007407Y005269D02*
X016998Y005269D01*
X016943Y005387D02*
X007289Y005387D01*
X007250Y005506D02*
X017372Y005506D01*
X017372Y005573D02*
X016920Y005573D01*
X016920Y005574D01*
X016932Y005650D01*
X016956Y005723D01*
X016991Y005792D01*
X017036Y005854D01*
X017091Y005909D01*
X017153Y005954D01*
X017222Y005989D01*
X017295Y006013D01*
X017371Y006025D01*
X017372Y006025D01*
X017372Y005573D01*
X017372Y005624D02*
X017448Y005624D01*
X017448Y005573D02*
X017448Y006025D01*
X017449Y006025D01*
X017525Y006013D01*
X017598Y005989D01*
X017667Y005954D01*
X017729Y005909D01*
X017784Y005854D01*
X017829Y005792D01*
X017864Y005723D01*
X017888Y005650D01*
X017900Y005574D01*
X017900Y005573D01*
X017448Y005573D01*
X017448Y005506D02*
X017920Y005506D01*
X017920Y005624D02*
X017892Y005624D01*
X017854Y005743D02*
X017966Y005743D01*
X018043Y005861D02*
X017777Y005861D01*
X017617Y005980D02*
X018203Y005980D01*
X017448Y005980D02*
X017372Y005980D01*
X017372Y005861D02*
X017448Y005861D01*
X017448Y005743D02*
X017372Y005743D01*
X017203Y005980D02*
X007250Y005980D01*
X007250Y005861D02*
X017043Y005861D01*
X016966Y005743D02*
X007250Y005743D01*
X007250Y005624D02*
X016928Y005624D01*
X017822Y005269D02*
X017832Y005269D01*
X017877Y005387D02*
X017941Y005387D01*
X018725Y004913D02*
X019920Y004913D01*
X019920Y004795D02*
X018833Y004795D01*
X018882Y004676D02*
X019920Y004676D01*
X019920Y004558D02*
X018900Y004558D01*
X018900Y004439D02*
X019920Y004439D01*
X019920Y004321D02*
X018852Y004321D01*
X018770Y004202D02*
X019920Y004202D01*
X019920Y004084D02*
X018600Y004084D01*
X018652Y003965D02*
X019920Y003965D01*
X019920Y003847D02*
X018791Y003847D01*
X018860Y003728D02*
X019920Y003728D01*
X019920Y003610D02*
X018900Y003610D01*
X018900Y003491D02*
X019920Y003491D01*
X019920Y003373D02*
X018873Y003373D01*
X018822Y003254D02*
X019920Y003254D01*
X019920Y003136D02*
X018703Y003136D01*
X018203Y003017D02*
X019920Y003017D01*
X019920Y002899D02*
X018085Y002899D01*
X017966Y002780D02*
X019920Y002780D01*
X019920Y002662D02*
X017848Y002662D01*
X017729Y002543D02*
X019920Y002543D01*
X019920Y002425D02*
X017611Y002425D01*
X017534Y002302D02*
X017452Y002315D01*
X017450Y002315D01*
X017450Y001825D01*
X017940Y001825D01*
X017940Y001827D01*
X017927Y001909D01*
X017901Y001988D01*
X017863Y002063D01*
X017814Y002130D01*
X017755Y002189D01*
X017688Y002238D01*
X017613Y002276D01*
X017534Y002302D01*
X017509Y002306D02*
X019920Y002306D01*
X019920Y002188D02*
X017757Y002188D01*
X017859Y002069D02*
X019920Y002069D01*
X019920Y001951D02*
X017913Y001951D01*
X017939Y001832D02*
X019915Y001832D01*
X019901Y001714D02*
X017935Y001714D01*
X017940Y001743D02*
X017940Y001745D01*
X017450Y001745D01*
X017450Y001255D01*
X017452Y001255D01*
X017534Y001268D01*
X017613Y001294D01*
X017688Y001332D01*
X017755Y001381D01*
X017814Y001440D01*
X017863Y001507D01*
X017901Y001582D01*
X017927Y001661D01*
X017940Y001743D01*
X017906Y001595D02*
X019869Y001595D01*
X019837Y001477D02*
X017841Y001477D01*
X017724Y001358D02*
X019784Y001358D01*
X019715Y001240D02*
X015280Y001240D01*
X015040Y001240D02*
X011930Y001240D01*
X011690Y001240D02*
X011176Y001240D01*
X011057Y001121D02*
X019638Y001121D01*
X019519Y001003D02*
X002768Y001003D01*
X002839Y000884D02*
X019381Y000884D01*
X019176Y000766D02*
X002854Y000766D01*
X003535Y003535D02*
X004910Y003535D01*
X005170Y003728D02*
X005202Y003728D01*
X005170Y003847D02*
X005379Y003847D01*
X005541Y003847D02*
X005598Y003847D01*
X005544Y003965D02*
X005208Y003965D01*
X005326Y004084D02*
X005541Y004084D01*
X005584Y004202D02*
X005445Y004202D01*
X004946Y004439D02*
X000650Y004439D01*
X000650Y004321D02*
X004828Y004321D01*
X005065Y004558D02*
X000650Y004558D01*
X000650Y004676D02*
X005183Y004676D01*
X005302Y004795D02*
X000650Y004795D01*
X000650Y004913D02*
X005420Y004913D01*
X006672Y006809D02*
X006703Y006809D01*
X006816Y006928D02*
X007004Y006928D01*
X006924Y007046D02*
X006895Y007046D01*
X007117Y006809D02*
X007148Y006809D01*
X011685Y006217D02*
X013135Y006217D01*
X013038Y006335D02*
X011782Y006335D01*
X011830Y006454D02*
X012990Y006454D01*
X012990Y006572D02*
X011830Y006572D01*
X011800Y006691D02*
X013020Y006691D01*
X013090Y006809D02*
X011730Y006809D01*
X013730Y006809D02*
X016174Y006809D01*
X016646Y006809D02*
X017174Y006809D01*
X017018Y006928D02*
X016802Y006928D01*
X016885Y007046D02*
X016935Y007046D01*
X017646Y006809D02*
X019920Y006809D01*
X019920Y006928D02*
X017802Y006928D01*
X017885Y007046D02*
X019920Y007046D01*
X019920Y007165D02*
X017934Y007165D01*
X017940Y007283D02*
X019912Y007283D01*
X019889Y007402D02*
X017935Y007402D01*
X017886Y007520D02*
X019857Y007520D01*
X019825Y007639D02*
X017806Y007639D01*
X017655Y007757D02*
X019758Y007757D01*
X019689Y007876D02*
X000881Y007876D01*
X000977Y007994D02*
X019593Y007994D01*
X019474Y008113D02*
X001096Y008113D01*
X001267Y008231D02*
X019303Y008231D01*
X019047Y008350D02*
X001523Y008350D01*
X012630Y003728D02*
X012702Y003728D01*
X012646Y003610D02*
X012630Y003610D01*
X012630Y003491D02*
X012641Y003491D01*
X012630Y003373D02*
X012682Y003373D01*
X012630Y003254D02*
X012805Y003254D01*
X012857Y003136D02*
X012630Y003136D01*
X012630Y003017D02*
X012841Y003017D01*
X012872Y002899D02*
X012630Y002899D01*
X012630Y002780D02*
X012964Y002780D01*
X013140Y002716D02*
X013140Y002716D01*
X013117Y002662D02*
X012645Y002662D01*
X012763Y002543D02*
X013091Y002543D01*
X013111Y002425D02*
X013021Y002425D01*
X013105Y002306D02*
X013188Y002306D01*
X013129Y002188D02*
X014091Y002188D01*
X014115Y002306D02*
X013632Y002306D01*
X014113Y002069D02*
X013107Y002069D01*
X013026Y001951D02*
X014194Y001951D01*
X014626Y001951D02*
X015333Y001951D01*
X015276Y001832D02*
X015452Y001832D01*
X015431Y001714D02*
X015570Y001714D01*
X015479Y001595D02*
X015689Y001595D01*
X015479Y001477D02*
X015969Y001477D01*
X016087Y001358D02*
X015432Y001358D01*
X015044Y001832D02*
X011926Y001832D01*
X011887Y001951D02*
X012594Y001951D01*
X011491Y001477D02*
X011413Y001477D01*
X011294Y001358D02*
X011538Y001358D01*
X015600Y002306D02*
X016283Y002306D01*
X016063Y002188D02*
X015719Y002188D01*
X015837Y002069D02*
X015954Y002069D01*
X016537Y002306D02*
X017311Y002306D01*
X017370Y002306D02*
X017450Y002306D01*
X017450Y002188D02*
X017370Y002188D01*
X017370Y002069D02*
X017450Y002069D01*
X017450Y001951D02*
X017370Y001951D01*
X017370Y001832D02*
X017450Y001832D01*
X017450Y001714D02*
X017370Y001714D01*
X017370Y001595D02*
X017450Y001595D01*
X017450Y001477D02*
X017370Y001477D01*
X017370Y001358D02*
X017450Y001358D01*
X017096Y001358D02*
X016733Y001358D01*
X016851Y001477D02*
X016979Y001477D01*
X016914Y001595D02*
X016905Y001595D01*
X016866Y002069D02*
X016961Y002069D01*
X017063Y002188D02*
X016757Y002188D01*
X015960Y003235D02*
X015960Y003560D01*
X015760Y003760D01*
X015760Y004035D01*
X014621Y004558D02*
X013193Y004558D01*
X013251Y004439D02*
X014503Y004439D01*
X014384Y004321D02*
X013256Y004321D01*
X013216Y004202D02*
X014266Y004202D01*
X014147Y004084D02*
X013097Y004084D01*
X012851Y003965D02*
X014029Y003965D01*
X013910Y003847D02*
X013041Y003847D01*
X012879Y003847D02*
X012733Y003847D01*
X017151Y003965D02*
X017168Y003965D01*
X017600Y004084D02*
X018220Y004084D01*
X018168Y003965D02*
X017652Y003965D01*
X017791Y003847D02*
X018029Y003847D01*
X017960Y003728D02*
X017860Y003728D01*
X017900Y003610D02*
X017920Y003610D01*
X017920Y003491D02*
X017900Y003491D01*
X017873Y003373D02*
X017936Y003373D01*
X018050Y004202D02*
X017770Y004202D01*
X017852Y004321D02*
X017968Y004321D01*
X017920Y004439D02*
X017900Y004439D01*
X017900Y004558D02*
X017920Y004558D01*
X017938Y004676D02*
X017882Y004676D01*
X017833Y004795D02*
X017987Y004795D01*
X019920Y006217D02*
X013685Y006217D01*
X013782Y006335D02*
X019920Y006335D01*
X019920Y006454D02*
X013830Y006454D01*
X013830Y006572D02*
X019920Y006572D01*
X019920Y006691D02*
X013800Y006691D01*
X016655Y007757D02*
X017165Y007757D01*
X017014Y007639D02*
X016806Y007639D01*
X016886Y007520D02*
X016934Y007520D01*
D15*
X014560Y005635D03*
X016260Y004935D03*
X015760Y004035D03*
X015960Y003235D03*
X014410Y002185D03*
X013760Y002185D03*
X013410Y002535D03*
X012810Y002185D03*
X011810Y001535D03*
X013160Y003035D03*
X012960Y003535D03*
X012938Y004363D03*
X010410Y004035D03*
X010410Y003535D03*
X009660Y004785D03*
X006010Y005135D03*
X005860Y004035D03*
X005460Y003535D03*
X002660Y002285D03*
X003210Y002010D03*
X002535Y000785D03*
X006660Y001785D03*
X015160Y001535D03*
X006910Y006535D03*
D16*
X003910Y006410D03*
X003535Y006160D03*
X001785Y006410D03*
X001410Y006160D03*
X001785Y002910D03*
X001410Y002660D03*
X003535Y002660D03*
X003910Y002910D03*
D17*
X006910Y005285D02*
X007410Y004785D01*
X009660Y004785D01*
X006910Y005285D02*
X006910Y006535D01*
D18*
X006160Y006535D01*
X005410Y007285D01*
X006010Y005135D02*
X004910Y004035D01*
X004910Y003535D01*
X006660Y001785D01*
D19*
X007160Y001285D01*
X010910Y001285D01*
X011810Y002185D01*
X012810Y002185D01*
X012410Y002585D01*
X012410Y003835D01*
X012938Y004363D01*
X012960Y003535D02*
X013910Y003535D01*
X014785Y004410D01*
X016410Y004410D01*
X016660Y003785D02*
X017410Y004535D01*
X017910Y005035D02*
X018410Y005535D01*
X016660Y003785D02*
X016660Y003235D01*
X016285Y002860D01*
X013835Y002860D01*
X013660Y003035D01*
X013160Y003035D01*
X013410Y002535D02*
X017410Y002535D01*
X018410Y003535D01*
X015810Y001785D02*
X015410Y002185D01*
X014410Y002185D01*
X015810Y001785D02*
X016410Y001785D01*
X015160Y001535D02*
X011810Y001535D01*
X010410Y003535D02*
X005460Y003535D01*
X005860Y004035D02*
X010410Y004035D01*
X003210Y002010D02*
X002535Y001335D01*
X002535Y000785D01*
M02*
